<?xml version="1.0" encoding="UTF-8"?>
<svg xmlns="http://www.w3.org/2000/svg" xmlns:xlink="http://www.w3.org/1999/xlink"
     width="800" height="1400" viewBox="-400.0 -700.0 800 1400">
<defs>
</defs>
<text x="-290" y="-650" font-size="25" fill="black">cercopithecine_betaherpesvirus_5</text>
<text x="-290" y="-580" font-size="25" fill="black">RL11A</text>
<path d="M-125,-567.5 L-125,-600" stroke="#1e90ff" />
<path d="M-118,-567.5 L-118,-600" stroke="#1e90ff" />
<path d="M-72,-567.5 L-72,-600" stroke="#1e90ff" />
<path d="M-64,-567.5 L-64,-600" stroke="#1e90ff" />
<path d="M-62,-567.5 L-62,-600" stroke="#1e90ff" />
<path d="M-61,-567.5 L-61,-600" stroke="#1e90ff" />
<path d="M-60,-567.5 L-60,-600" stroke="#1e90ff" />
<path d="M-57,-567.5 L-57,-600" stroke="#1e90ff" />
<path d="M-56,-567.5 L-56,-600" stroke="#1e90ff" />
<path d="M-55,-567.5 L-55,-600" stroke="#1e90ff" />
<path d="M-53,-567.5 L-53,-600" stroke="#1e90ff" />
<path d="M-49,-567.5 L-49,-600" stroke="#1e90ff" />
<path d="M-45,-567.5 L-45,-600" stroke="#1e90ff" />
<path d="M-43,-567.5 L-43,-600" stroke="#1e90ff" />
<path d="M-41,-567.5 L-41,-600" stroke="#1e90ff" />
<path d="M-171,-600 L-171,-607.5" stroke="#dc143c" />
<path d="M-160,-600 L-160,-607.5" stroke="#dc143c" />
<path d="M-156,-600 L-156,-607.5" stroke="#dc143c" />
<path d="M-108,-600 L-108,-607.5" stroke="#dc143c" />
<path d="M-82,-600 L-82,-607.5" stroke="#dc143c" />
<path d="M-74,-600 L-74,-607.5" stroke="#dc143c" />
<path d="M-70,-600 L-70,-607.5" stroke="#dc143c" />
<path d="M8,-600 L8,-607.5" stroke="#dc143c" />
<rect x="-200" y="-600" width="255" height="25" fill="white" stroke="black" />
<rect x="-200" y="-600" width="22.0" height="25" fill="#dc143c" stroke="black" />
<rect x="-174.0" y="-600" width="103.0" height="25" fill="#ffd700" stroke="black" />
<rect x="-27.0" y="-600" width="22.0" height="25" fill="#1e90ff" stroke="black" />
<text x="-290" y="-530" font-size="25" fill="black">RL11B</text>
<path d="M-87,-517.5 L-87,-550" stroke="#1e90ff" />
<path d="M-59,-517.5 L-59,-550" stroke="#1e90ff" />
<path d="M-57,-517.5 L-57,-550" stroke="#1e90ff" />
<path d="M-53,-517.5 L-53,-550" stroke="#1e90ff" />
<path d="M-50,-517.5 L-50,-550" stroke="#1e90ff" />
<path d="M-48,-517.5 L-48,-550" stroke="#1e90ff" />
<path d="M-47,-517.5 L-47,-550" stroke="#1e90ff" />
<path d="M-38,-517.5 L-38,-550" stroke="#1e90ff" />
<path d="M-102,-550 L-102,-557.5" stroke="#dc143c" />
<path d="M-90,-550 L-90,-557.5" stroke="#dc143c" />
<path d="M-62,-550 L-62,-557.5" stroke="#dc143c" />
<rect x="-200" y="-550" width="209" height="25" fill="white" stroke="black" />
<rect x="-174.0" y="-550" width="113.0" height="25" fill="#ffd700" stroke="black" />
<rect x="-20.0" y="-550" width="22.0" height="25" fill="#1e90ff" stroke="black" />
<text x="-290" y="-480" font-size="25" fill="black">RL11C1</text>
<path d="M-116,-467.5 L-116,-500" stroke="#1e90ff" />
<path d="M-57,-467.5 L-57,-500" stroke="#1e90ff" />
<path d="M-37,-467.5 L-37,-500" stroke="#1e90ff" />
<path d="M-160,-500 L-160,-507.5" stroke="#dc143c" />
<path d="M-98,-500 L-98,-507.5" stroke="#dc143c" />
<path d="M-90,-500 L-90,-507.5" stroke="#dc143c" />
<path d="M-68,-500 L-68,-507.5" stroke="#dc143c" />
<rect x="-200" y="-500" width="202" height="25" fill="white" stroke="black" />
<rect x="-200" y="-500" width="28.0" height="25" fill="#dc143c" stroke="black" />
<rect x="-170.0" y="-500" width="110.0" height="25" fill="#ffd700" stroke="black" />
<rect x="-29.0" y="-500" width="22.0" height="25" fill="#1e90ff" stroke="black" />
<text x="-290" y="-430" font-size="25" fill="black">RL11C2</text>
<path d="M-145,-450 L-145,-457.5" stroke="#dc143c" />
<path d="M-99,-450 L-99,-457.5" stroke="#dc143c" />
<path d="M-95,-450 L-95,-457.5" stroke="#dc143c" />
<path d="M-87,-450 L-87,-457.5" stroke="#dc143c" />
<path d="M-67,-450 L-67,-457.5" stroke="#dc143c" />
<path d="M-60,-450 L-60,-457.5" stroke="#dc143c" />
<rect x="-200" y="-450" width="163" height="25" fill="white" stroke="black" />
<rect x="-200" y="-450" width="23.0" height="25" fill="#dc143c" stroke="black" />
<rect x="-175.0" y="-450" width="116.0" height="25" fill="#ffd700" stroke="black" />
<text x="-290" y="-380" font-size="25" fill="black">RL11D</text>
<path d="M-49,-367.5 L-49,-400" stroke="#1e90ff" />
<path d="M-42,-367.5 L-42,-400" stroke="#1e90ff" />
<path d="M-35,-367.5 L-35,-400" stroke="#1e90ff" />
<path d="M-34,-367.5 L-34,-400" stroke="#1e90ff" />
<path d="M-156,-400 L-156,-407.5" stroke="#dc143c" />
<path d="M-148,-400 L-148,-407.5" stroke="#dc143c" />
<path d="M-140,-400 L-140,-407.5" stroke="#dc143c" />
<path d="M-116,-400 L-116,-407.5" stroke="#dc143c" />
<path d="M-70,-400 L-70,-407.5" stroke="#dc143c" />
<path d="M-65,-400 L-65,-407.5" stroke="#dc143c" />
<rect x="-200" y="-400" width="223" height="25" fill="white" stroke="black" />
<rect x="-200" y="-400" width="35.0" height="25" fill="#dc143c" stroke="black" />
<rect x="-168.0" y="-400" width="110.0" height="25" fill="#ffd700" stroke="black" />
<rect x="-20.0" y="-400" width="22.0" height="25" fill="#1e90ff" stroke="black" />
<text x="-290" y="-330" font-size="25" fill="black">RL11F</text>
<path d="M-171,-350 L-171,-357.5" stroke="#dc143c" />
<path d="M-144,-350 L-144,-357.5" stroke="#dc143c" />
<path d="M-127,-350 L-127,-357.5" stroke="#dc143c" />
<path d="M-108,-350 L-108,-357.5" stroke="#dc143c" />
<path d="M-98,-350 L-98,-357.5" stroke="#dc143c" />
<path d="M-73,-350 L-73,-357.5" stroke="#dc143c" />
<path d="M-57,-350 L-57,-357.5" stroke="#dc143c" />
<path d="M-54,-350 L-54,-357.5" stroke="#dc143c" />
<rect x="-200" y="-350" width="204" height="25" fill="white" stroke="black" />
<rect x="-200" y="-350" width="25.0" height="25" fill="#dc143c" stroke="black" />
<rect x="-180.0" y="-350" width="112.0" height="25" fill="#ffd700" stroke="black" />
<rect x="-33.0" y="-350" width="22.0" height="25" fill="#1e90ff" stroke="black" />
<text x="-290" y="-280" font-size="25" fill="black">RL11G</text>
<path d="M-26,-267.5 L-26,-300" stroke="#1e90ff" />
<path d="M-25,-267.5 L-25,-300" stroke="#1e90ff" />
<path d="M-24,-267.5 L-24,-300" stroke="#1e90ff" />
<path d="M-23,-267.5 L-23,-300" stroke="#1e90ff" />
<path d="M-20,-267.5 L-20,-300" stroke="#1e90ff" />
<path d="M-19,-267.5 L-19,-300" stroke="#1e90ff" />
<path d="M-18,-267.5 L-18,-300" stroke="#1e90ff" />
<path d="M-17,-267.5 L-17,-300" stroke="#1e90ff" />
<path d="M-16,-267.5 L-16,-300" stroke="#1e90ff" />
<path d="M-14,-267.5 L-14,-300" stroke="#1e90ff" />
<path d="M-13,-267.5 L-13,-300" stroke="#1e90ff" />
<path d="M-12,-267.5 L-12,-300" stroke="#1e90ff" />
<path d="M-11,-267.5 L-11,-300" stroke="#1e90ff" />
<path d="M-10,-267.5 L-10,-300" stroke="#1e90ff" />
<path d="M-9,-267.5 L-9,-300" stroke="#1e90ff" />
<path d="M-8,-267.5 L-8,-300" stroke="#1e90ff" />
<path d="M-7,-267.5 L-7,-300" stroke="#1e90ff" />
<path d="M-4,-267.5 L-4,-300" stroke="#1e90ff" />
<path d="M-3,-267.5 L-3,-300" stroke="#1e90ff" />
<path d="M1,-267.5 L1,-300" stroke="#1e90ff" />
<path d="M2,-267.5 L2,-300" stroke="#1e90ff" />
<path d="M3,-267.5 L3,-300" stroke="#1e90ff" />
<path d="M6,-267.5 L6,-300" stroke="#1e90ff" />
<path d="M7,-267.5 L7,-300" stroke="#1e90ff" />
<path d="M8,-267.5 L8,-300" stroke="#1e90ff" />
<path d="M11,-267.5 L11,-300" stroke="#1e90ff" />
<path d="M12,-267.5 L12,-300" stroke="#1e90ff" />
<path d="M13,-267.5 L13,-300" stroke="#1e90ff" />
<path d="M14,-267.5 L14,-300" stroke="#1e90ff" />
<path d="M17,-267.5 L17,-300" stroke="#1e90ff" />
<path d="M18,-267.5 L18,-300" stroke="#1e90ff" />
<path d="M75,-267.5 L75,-300" stroke="#1e90ff" />
<path d="M-167,-300 L-167,-307.5" stroke="#dc143c" />
<path d="M-159,-300 L-159,-307.5" stroke="#dc143c" />
<path d="M-148,-300 L-148,-307.5" stroke="#dc143c" />
<path d="M-138,-300 L-138,-307.5" stroke="#dc143c" />
<path d="M-96,-300 L-96,-307.5" stroke="#dc143c" />
<path d="M-84,-300 L-84,-307.5" stroke="#dc143c" />
<path d="M-47,-300 L-47,-307.5" stroke="#dc143c" />
<path d="M-34,-300 L-34,-307.5" stroke="#dc143c" />
<rect x="-200" y="-300" width="315" height="25" fill="white" stroke="black" />
<rect x="-200" y="-300" width="17.0" height="25" fill="#dc143c" stroke="black" />
<rect x="-167.0" y="-300" width="104.0" height="25" fill="#ffd700" stroke="black" />
<rect x="38.0" y="-300" width="22.0" height="25" fill="#1e90ff" stroke="black" />
<text x="-290" y="-230" font-size="25" fill="black">RL11H</text>
<path d="M-159,-217.5 L-159,-250" stroke="#1e90ff" />
<path d="M-166,-250 L-166,-257.5" stroke="#dc143c" />
<path d="M-148,-250 L-148,-257.5" stroke="#dc143c" />
<path d="M-142,-250 L-142,-257.5" stroke="#dc143c" />
<path d="M-100,-250 L-100,-257.5" stroke="#dc143c" />
<path d="M-94,-250 L-94,-257.5" stroke="#dc143c" />
<path d="M-57,-250 L-57,-257.5" stroke="#dc143c" />
<path d="M-26,-250 L-26,-257.5" stroke="#dc143c" />
<path d="M-19,-250 L-19,-257.5" stroke="#dc143c" />
<path d="M-13,-250 L-13,-257.5" stroke="#dc143c" />
<path d="M-10,-250 L-10,-257.5" stroke="#dc143c" />
<rect x="-200" y="-250" width="299" height="25" fill="white" stroke="black" />
<rect x="-200" y="-250" width="27.0" height="25" fill="#dc143c" stroke="black" />
<rect x="-113.0" y="-250" width="97.0" height="25" fill="#ffd700" stroke="black" />
<rect x="51.0" y="-250" width="22.0" height="25" fill="#1e90ff" stroke="black" />
<text x="-290" y="-180" font-size="25" fill="black">RL11I</text>
<path d="M-171,-167.5 L-171,-200" stroke="#1e90ff" />
<path d="M-168,-167.5 L-168,-200" stroke="#1e90ff" />
<path d="M-165,-167.5 L-165,-200" stroke="#1e90ff" />
<path d="M-164,-167.5 L-164,-200" stroke="#1e90ff" />
<path d="M-161,-167.5 L-161,-200" stroke="#1e90ff" />
<path d="M-158,-167.5 L-158,-200" stroke="#1e90ff" />
<path d="M-153,-167.5 L-153,-200" stroke="#1e90ff" />
<path d="M-152,-167.5 L-152,-200" stroke="#1e90ff" />
<path d="M-147,-167.5 L-147,-200" stroke="#1e90ff" />
<path d="M-144,-167.5 L-144,-200" stroke="#1e90ff" />
<path d="M-143,-167.5 L-143,-200" stroke="#1e90ff" />
<path d="M-142,-167.5 L-142,-200" stroke="#1e90ff" />
<path d="M-140,-167.5 L-140,-200" stroke="#1e90ff" />
<path d="M-139,-167.5 L-139,-200" stroke="#1e90ff" />
<path d="M-136,-167.5 L-136,-200" stroke="#1e90ff" />
<path d="M-134,-167.5 L-134,-200" stroke="#1e90ff" />
<path d="M-133,-167.5 L-133,-200" stroke="#1e90ff" />
<path d="M-129,-167.5 L-129,-200" stroke="#1e90ff" />
<path d="M-125,-167.5 L-125,-200" stroke="#1e90ff" />
<path d="M-123,-167.5 L-123,-200" stroke="#1e90ff" />
<path d="M-118,-167.5 L-118,-200" stroke="#1e90ff" />
<path d="M-117,-167.5 L-117,-200" stroke="#1e90ff" />
<path d="M-114,-167.5 L-114,-200" stroke="#1e90ff" />
<path d="M-112,-167.5 L-112,-200" stroke="#1e90ff" />
<path d="M-109,-167.5 L-109,-200" stroke="#1e90ff" />
<path d="M-108,-167.5 L-108,-200" stroke="#1e90ff" />
<path d="M18,-167.5 L18,-200" stroke="#1e90ff" />
<path d="M19,-167.5 L19,-200" stroke="#1e90ff" />
<path d="M25,-167.5 L25,-200" stroke="#1e90ff" />
<path d="M26,-167.5 L26,-200" stroke="#1e90ff" />
<path d="M27,-167.5 L27,-200" stroke="#1e90ff" />
<path d="M31,-167.5 L31,-200" stroke="#1e90ff" />
<path d="M-166,-200 L-166,-207.5" stroke="#dc143c" />
<path d="M-135,-200 L-135,-207.5" stroke="#dc143c" />
<path d="M-127,-200 L-127,-207.5" stroke="#dc143c" />
<path d="M-97,-200 L-97,-207.5" stroke="#dc143c" />
<path d="M-76,-200 L-76,-207.5" stroke="#dc143c" />
<path d="M-72,-200 L-72,-207.5" stroke="#dc143c" />
<path d="M-56,-200 L-56,-207.5" stroke="#dc143c" />
<path d="M-41,-200 L-41,-207.5" stroke="#dc143c" />
<path d="M-32,-200 L-32,-207.5" stroke="#dc143c" />
<path d="M-20,-200 L-20,-207.5" stroke="#dc143c" />
<path d="M1,-200 L1,-207.5" stroke="#dc143c" />
<path d="M8,-200 L8,-207.5" stroke="#dc143c" />
<path d="M14,-200 L14,-207.5" stroke="#dc143c" />
<path d="M17,-200 L17,-207.5" stroke="#dc143c" />
<rect x="-200" y="-200" width="317" height="25" fill="white" stroke="black" />
<rect x="-200" y="-200" width="27.0" height="25" fill="#dc143c" stroke="black" />
<rect x="-85.0" y="-200" width="96.0" height="25" fill="#ffd700" stroke="black" />
<rect x="67.0" y="-200" width="22.0" height="25" fill="#1e90ff" stroke="black" />
<text x="-290" y="-130" font-size="25" fill="black">RL11J</text>
<path d="M-78,-117.5 L-78,-150" stroke="#1e90ff" />
<path d="M-73,-117.5 L-73,-150" stroke="#1e90ff" />
<path d="M-72,-117.5 L-72,-150" stroke="#1e90ff" />
<path d="M-71,-117.5 L-71,-150" stroke="#1e90ff" />
<path d="M-70,-117.5 L-70,-150" stroke="#1e90ff" />
<path d="M-68,-117.5 L-68,-150" stroke="#1e90ff" />
<path d="M-58,-117.5 L-58,-150" stroke="#1e90ff" />
<path d="M-156,-150 L-156,-157.5" stroke="#dc143c" />
<path d="M-147,-150 L-147,-157.5" stroke="#dc143c" />
<path d="M-85,-150 L-85,-157.5" stroke="#dc143c" />
<rect x="-200" y="-150" width="198" height="25" fill="white" stroke="black" />
<rect x="-200" y="-150" width="16.0" height="25" fill="#dc143c" stroke="black" />
<rect x="-177.0" y="-150" width="95.0" height="25" fill="#ffd700" stroke="black" />
<rect x="-46.0" y="-150" width="22.0" height="25" fill="#1e90ff" stroke="black" />
<text x="-290" y="-80" font-size="25" fill="black">RL11K</text>
<path d="M-49,-67.5 L-49,-100" stroke="#1e90ff" />
<path d="M-43,-67.5 L-43,-100" stroke="#1e90ff" />
<path d="M-41,-67.5 L-41,-100" stroke="#1e90ff" />
<path d="M-38,-67.5 L-38,-100" stroke="#1e90ff" />
<path d="M-37,-67.5 L-37,-100" stroke="#1e90ff" />
<path d="M-35,-67.5 L-35,-100" stroke="#1e90ff" />
<path d="M-34,-67.5 L-34,-100" stroke="#1e90ff" />
<path d="M-31,-67.5 L-31,-100" stroke="#1e90ff" />
<path d="M-27,-67.5 L-27,-100" stroke="#1e90ff" />
<path d="M-152,-100 L-152,-107.5" stroke="#dc143c" />
<path d="M-143,-100 L-143,-107.5" stroke="#dc143c" />
<path d="M-134,-100 L-134,-107.5" stroke="#dc143c" />
<path d="M-94,-100 L-94,-107.5" stroke="#dc143c" />
<path d="M-87,-100 L-87,-107.5" stroke="#dc143c" />
<path d="M-60,-100 L-60,-107.5" stroke="#dc143c" />
<rect x="-200" y="-100" width="233" height="25" fill="white" stroke="black" />
<rect x="-200" y="-100" width="18.0" height="25" fill="#dc143c" stroke="black" />
<rect x="-152.0" y="-100" width="95.0" height="25" fill="#ffd700" stroke="black" />
<rect x="2.0" y="-100" width="19.0" height="25" fill="#1e90ff" stroke="black" />
<text x="-290" y="-30" font-size="25" fill="black">RL11M</text>
<path d="M-65,-17.5 L-65,-50" stroke="#1e90ff" />
<path d="M-61,-17.5 L-61,-50" stroke="#1e90ff" />
<path d="M-60,-17.5 L-60,-50" stroke="#1e90ff" />
<path d="M-59,-17.5 L-59,-50" stroke="#1e90ff" />
<path d="M-56,-17.5 L-56,-50" stroke="#1e90ff" />
<path d="M-55,-17.5 L-55,-50" stroke="#1e90ff" />
<path d="M-54,-17.5 L-54,-50" stroke="#1e90ff" />
<path d="M-53,-17.5 L-53,-50" stroke="#1e90ff" />
<path d="M-52,-17.5 L-52,-50" stroke="#1e90ff" />
<path d="M-50,-17.5 L-50,-50" stroke="#1e90ff" />
<path d="M-49,-17.5 L-49,-50" stroke="#1e90ff" />
<path d="M-48,-17.5 L-48,-50" stroke="#1e90ff" />
<path d="M-47,-17.5 L-47,-50" stroke="#1e90ff" />
<path d="M-46,-17.5 L-46,-50" stroke="#1e90ff" />
<path d="M-44,-17.5 L-44,-50" stroke="#1e90ff" />
<path d="M-43,-17.5 L-43,-50" stroke="#1e90ff" />
<path d="M-42,-17.5 L-42,-50" stroke="#1e90ff" />
<path d="M-41,-17.5 L-41,-50" stroke="#1e90ff" />
<path d="M-36,-17.5 L-36,-50" stroke="#1e90ff" />
<path d="M-35,-17.5 L-35,-50" stroke="#1e90ff" />
<path d="M-32,-17.5 L-32,-50" stroke="#1e90ff" />
<path d="M-31,-17.5 L-31,-50" stroke="#1e90ff" />
<path d="M-9,-17.5 L-9,-50" stroke="#1e90ff" />
<path d="M-195,-50 L-195,-57.5" stroke="#dc143c" />
<path d="M-161,-50 L-161,-57.5" stroke="#dc143c" />
<path d="M-155,-50 L-155,-57.5" stroke="#dc143c" />
<path d="M-106,-50 L-106,-57.5" stroke="#dc143c" />
<path d="M-99,-50 L-99,-57.5" stroke="#dc143c" />
<path d="M-3,-50 L-3,-57.5" stroke="#dc143c" />
<rect x="-200" y="-50" width="237" height="25" fill="white" stroke="black" />
<rect x="-200" y="-50" width="29.0" height="25" fill="#dc143c" stroke="black" />
<rect x="-164.0" y="-50" width="94.0" height="25" fill="#ffd700" stroke="black" />
<rect x="1.0" y="-50" width="19.0" height="25" fill="#1e90ff" stroke="black" />
<text x="-290" y="20" font-size="25" fill="black">RL11N</text>
<path d="M-168,32.5 L-168,0" stroke="#1e90ff" />
<path d="M-147,32.5 L-147,0" stroke="#1e90ff" />
<path d="M-166,0 L-166,-7.5" stroke="#dc143c" />
<path d="M-158,0 L-158,-7.5" stroke="#dc143c" />
<path d="M-132,0 L-132,-7.5" stroke="#dc143c" />
<rect x="-200" y="0" width="123" height="25" fill="white" stroke="black" />
<rect x="-200" y="0" width="24.0" height="25" fill="#dc143c" stroke="black" />
<rect x="-118.0" y="0" width="22.0" height="25" fill="#1e90ff" stroke="black" />
<text x="-290" y="70" font-size="25" fill="black">RL11O</text>
<path d="M-168,50 L-168,42.5" stroke="#dc143c" />
<path d="M-95,50 L-95,42.5" stroke="#dc143c" />
<path d="M-68,50 L-68,42.5" stroke="#dc143c" />
<path d="M-23,50 L-23,42.5" stroke="#dc143c" />
<rect x="-200" y="50" width="231" height="25" fill="white" stroke="black" />
<rect x="-200" y="50" width="30.0" height="25" fill="#dc143c" stroke="black" />
<rect x="-166.0" y="50" width="101.0" height="25" fill="#ffd700" stroke="black" />
<rect x="-11.0" y="50" width="22.0" height="25" fill="#1e90ff" stroke="black" />
<text x="-290" y="120" font-size="25" fill="black">RL11P</text>
<path d="M-46,132.5 L-46,100" stroke="#1e90ff" />
<path d="M-45,132.5 L-45,100" stroke="#1e90ff" />
<path d="M-31,132.5 L-31,100" stroke="#1e90ff" />
<path d="M-28,132.5 L-28,100" stroke="#1e90ff" />
<path d="M-27,132.5 L-27,100" stroke="#1e90ff" />
<path d="M-26,132.5 L-26,100" stroke="#1e90ff" />
<path d="M-23,132.5 L-23,100" stroke="#1e90ff" />
<path d="M-22,132.5 L-22,100" stroke="#1e90ff" />
<path d="M-21,132.5 L-21,100" stroke="#1e90ff" />
<path d="M-19,132.5 L-19,100" stroke="#1e90ff" />
<path d="M-18,132.5 L-18,100" stroke="#1e90ff" />
<path d="M-15,132.5 L-15,100" stroke="#1e90ff" />
<path d="M-12,132.5 L-12,100" stroke="#1e90ff" />
<path d="M-11,132.5 L-11,100" stroke="#1e90ff" />
<path d="M-10,132.5 L-10,100" stroke="#1e90ff" />
<path d="M-1,132.5 L-1,100" stroke="#1e90ff" />
<path d="M7,132.5 L7,100" stroke="#1e90ff" />
<path d="M12,132.5 L12,100" stroke="#1e90ff" />
<path d="M15,132.5 L15,100" stroke="#1e90ff" />
<path d="M-150,100 L-150,92.5" stroke="#dc143c" />
<path d="M-144,100 L-144,92.5" stroke="#dc143c" />
<path d="M-112,100 L-112,92.5" stroke="#dc143c" />
<path d="M-102,100 L-102,92.5" stroke="#dc143c" />
<path d="M-95,100 L-95,92.5" stroke="#dc143c" />
<path d="M-71,100 L-71,92.5" stroke="#dc143c" />
<path d="M-64,100 L-64,92.5" stroke="#dc143c" />
<path d="M26,100 L26,92.5" stroke="#dc143c" />
<rect x="-200" y="100" width="276" height="25" fill="white" stroke="black" />
<rect x="-160.0" y="100" width="92.0" height="25" fill="#ffd700" stroke="black" />
<rect x="42.0" y="100" width="22.0" height="25" fill="#1e90ff" stroke="black" />
<text x="-290" y="170" font-size="25" fill="black">RL11Q</text>
<path d="M-49,182.5 L-49,150" stroke="#1e90ff" />
<path d="M-48,182.5 L-48,150" stroke="#1e90ff" />
<path d="M-116,150 L-116,142.5" stroke="#dc143c" />
<path d="M-84,150 L-84,142.5" stroke="#dc143c" />
<path d="M-69,150 L-69,142.5" stroke="#dc143c" />
<rect x="-200" y="150" width="216" height="25" fill="white" stroke="black" />
<rect x="-200" y="150" width="29.0" height="25" fill="#dc143c" stroke="black" />
<rect x="-167.0" y="150" width="101.0" height="25" fill="#ffd700" stroke="black" />
<rect x="-10.0" y="150" width="22.0" height="25" fill="#1e90ff" stroke="black" />
<text x="-290" y="220" font-size="25" fill="black">RL11R</text>
<path d="M-167,200 L-167,192.5" stroke="#dc143c" />
<path d="M-161,200 L-161,192.5" stroke="#dc143c" />
<path d="M-157,200 L-157,192.5" stroke="#dc143c" />
<path d="M-112,200 L-112,192.5" stroke="#dc143c" />
<path d="M-103,200 L-103,192.5" stroke="#dc143c" />
<rect x="-200" y="200" width="211" height="25" fill="white" stroke="black" />
<rect x="-200" y="200" width="21.0" height="25" fill="#dc143c" stroke="black" />
<rect x="-173.0" y="200" width="98.0" height="25" fill="#ffd700" stroke="black" />
<rect x="-45.0" y="200" width="22.0" height="25" fill="#1e90ff" stroke="black" />
<text x="-290" y="270" font-size="25" fill="black">RL11S</text>
<path d="M-161,282.5 L-161,250" stroke="#1e90ff" />
<path d="M-157,282.5 L-157,250" stroke="#1e90ff" />
<path d="M-154,282.5 L-154,250" stroke="#1e90ff" />
<path d="M-151,282.5 L-151,250" stroke="#1e90ff" />
<path d="M-150,282.5 L-150,250" stroke="#1e90ff" />
<path d="M-142,282.5 L-142,250" stroke="#1e90ff" />
<path d="M-136,282.5 L-136,250" stroke="#1e90ff" />
<path d="M-135,282.5 L-135,250" stroke="#1e90ff" />
<path d="M-130,282.5 L-130,250" stroke="#1e90ff" />
<path d="M-128,282.5 L-128,250" stroke="#1e90ff" />
<path d="M-123,282.5 L-123,250" stroke="#1e90ff" />
<path d="M-115,282.5 L-115,250" stroke="#1e90ff" />
<path d="M-113,282.5 L-113,250" stroke="#1e90ff" />
<path d="M-108,282.5 L-108,250" stroke="#1e90ff" />
<path d="M-106,282.5 L-106,250" stroke="#1e90ff" />
<path d="M-81,282.5 L-81,250" stroke="#1e90ff" />
<path d="M-78,282.5 L-78,250" stroke="#1e90ff" />
<path d="M-77,282.5 L-77,250" stroke="#1e90ff" />
<path d="M-75,282.5 L-75,250" stroke="#1e90ff" />
<path d="M-71,282.5 L-71,250" stroke="#1e90ff" />
<path d="M-67,282.5 L-67,250" stroke="#1e90ff" />
<path d="M-65,282.5 L-65,250" stroke="#1e90ff" />
<path d="M-63,282.5 L-63,250" stroke="#1e90ff" />
<path d="M-62,282.5 L-62,250" stroke="#1e90ff" />
<path d="M-61,282.5 L-61,250" stroke="#1e90ff" />
<path d="M-60,282.5 L-60,250" stroke="#1e90ff" />
<path d="M-58,282.5 L-58,250" stroke="#1e90ff" />
<path d="M-57,282.5 L-57,250" stroke="#1e90ff" />
<path d="M-56,282.5 L-56,250" stroke="#1e90ff" />
<path d="M-54,282.5 L-54,250" stroke="#1e90ff" />
<path d="M-53,282.5 L-53,250" stroke="#1e90ff" />
<path d="M-52,282.5 L-52,250" stroke="#1e90ff" />
<path d="M-48,282.5 L-48,250" stroke="#1e90ff" />
<path d="M-47,282.5 L-47,250" stroke="#1e90ff" />
<path d="M-46,282.5 L-46,250" stroke="#1e90ff" />
<path d="M-44,282.5 L-44,250" stroke="#1e90ff" />
<path d="M-42,282.5 L-42,250" stroke="#1e90ff" />
<path d="M-41,282.5 L-41,250" stroke="#1e90ff" />
<path d="M-37,282.5 L-37,250" stroke="#1e90ff" />
<path d="M-34,282.5 L-34,250" stroke="#1e90ff" />
<path d="M-33,282.5 L-33,250" stroke="#1e90ff" />
<path d="M-32,282.5 L-32,250" stroke="#1e90ff" />
<path d="M-30,282.5 L-30,250" stroke="#1e90ff" />
<path d="M-29,282.5 L-29,250" stroke="#1e90ff" />
<path d="M-28,282.5 L-28,250" stroke="#1e90ff" />
<path d="M-27,282.5 L-27,250" stroke="#1e90ff" />
<path d="M-24,282.5 L-24,250" stroke="#1e90ff" />
<path d="M-23,282.5 L-23,250" stroke="#1e90ff" />
<path d="M-20,282.5 L-20,250" stroke="#1e90ff" />
<path d="M-11,282.5 L-11,250" stroke="#1e90ff" />
<path d="M-10,282.5 L-10,250" stroke="#1e90ff" />
<path d="M-9,282.5 L-9,250" stroke="#1e90ff" />
<path d="M-8,282.5 L-8,250" stroke="#1e90ff" />
<path d="M-7,282.5 L-7,250" stroke="#1e90ff" />
<path d="M-5,282.5 L-5,250" stroke="#1e90ff" />
<path d="M-4,282.5 L-4,250" stroke="#1e90ff" />
<path d="M1,282.5 L1,250" stroke="#1e90ff" />
<path d="M3,282.5 L3,250" stroke="#1e90ff" />
<path d="M4,282.5 L4,250" stroke="#1e90ff" />
<path d="M8,282.5 L8,250" stroke="#1e90ff" />
<path d="M15,282.5 L15,250" stroke="#1e90ff" />
<path d="M17,282.5 L17,250" stroke="#1e90ff" />
<path d="M19,282.5 L19,250" stroke="#1e90ff" />
<path d="M20,282.5 L20,250" stroke="#1e90ff" />
<path d="M24,282.5 L24,250" stroke="#1e90ff" />
<path d="M25,282.5 L25,250" stroke="#1e90ff" />
<path d="M27,282.5 L27,250" stroke="#1e90ff" />
<path d="M28,282.5 L28,250" stroke="#1e90ff" />
<path d="M30,282.5 L30,250" stroke="#1e90ff" />
<path d="M31,282.5 L31,250" stroke="#1e90ff" />
<path d="M32,282.5 L32,250" stroke="#1e90ff" />
<path d="M33,282.5 L33,250" stroke="#1e90ff" />
<path d="M34,282.5 L34,250" stroke="#1e90ff" />
<path d="M35,282.5 L35,250" stroke="#1e90ff" />
<path d="M38,282.5 L38,250" stroke="#1e90ff" />
<path d="M39,282.5 L39,250" stroke="#1e90ff" />
<path d="M40,282.5 L40,250" stroke="#1e90ff" />
<path d="M41,282.5 L41,250" stroke="#1e90ff" />
<path d="M42,282.5 L42,250" stroke="#1e90ff" />
<path d="M43,282.5 L43,250" stroke="#1e90ff" />
<path d="M45,282.5 L45,250" stroke="#1e90ff" />
<path d="M46,282.5 L46,250" stroke="#1e90ff" />
<path d="M47,282.5 L47,250" stroke="#1e90ff" />
<path d="M48,282.5 L48,250" stroke="#1e90ff" />
<path d="M51,282.5 L51,250" stroke="#1e90ff" />
<path d="M54,282.5 L54,250" stroke="#1e90ff" />
<path d="M55,282.5 L55,250" stroke="#1e90ff" />
<path d="M56,282.5 L56,250" stroke="#1e90ff" />
<path d="M57,282.5 L57,250" stroke="#1e90ff" />
<path d="M58,282.5 L58,250" stroke="#1e90ff" />
<path d="M59,282.5 L59,250" stroke="#1e90ff" />
<path d="M62,282.5 L62,250" stroke="#1e90ff" />
<path d="M63,282.5 L63,250" stroke="#1e90ff" />
<path d="M65,282.5 L65,250" stroke="#1e90ff" />
<path d="M66,282.5 L66,250" stroke="#1e90ff" />
<path d="M67,282.5 L67,250" stroke="#1e90ff" />
<path d="M70,282.5 L70,250" stroke="#1e90ff" />
<path d="M71,282.5 L71,250" stroke="#1e90ff" />
<path d="M72,282.5 L72,250" stroke="#1e90ff" />
<path d="M73,282.5 L73,250" stroke="#1e90ff" />
<path d="M74,282.5 L74,250" stroke="#1e90ff" />
<path d="M75,282.5 L75,250" stroke="#1e90ff" />
<path d="M78,282.5 L78,250" stroke="#1e90ff" />
<path d="M79,282.5 L79,250" stroke="#1e90ff" />
<path d="M82,282.5 L82,250" stroke="#1e90ff" />
<path d="M83,282.5 L83,250" stroke="#1e90ff" />
<path d="M86,282.5 L86,250" stroke="#1e90ff" />
<path d="M90,282.5 L90,250" stroke="#1e90ff" />
<path d="M91,282.5 L91,250" stroke="#1e90ff" />
<path d="M93,282.5 L93,250" stroke="#1e90ff" />
<path d="M94,282.5 L94,250" stroke="#1e90ff" />
<path d="M97,282.5 L97,250" stroke="#1e90ff" />
<path d="M98,282.5 L98,250" stroke="#1e90ff" />
<path d="M102,282.5 L102,250" stroke="#1e90ff" />
<path d="M103,282.5 L103,250" stroke="#1e90ff" />
<path d="M105,282.5 L105,250" stroke="#1e90ff" />
<path d="M106,282.5 L106,250" stroke="#1e90ff" />
<path d="M107,282.5 L107,250" stroke="#1e90ff" />
<path d="M108,282.5 L108,250" stroke="#1e90ff" />
<path d="M110,282.5 L110,250" stroke="#1e90ff" />
<path d="M112,282.5 L112,250" stroke="#1e90ff" />
<path d="M113,282.5 L113,250" stroke="#1e90ff" />
<path d="M114,282.5 L114,250" stroke="#1e90ff" />
<path d="M115,282.5 L115,250" stroke="#1e90ff" />
<path d="M117,282.5 L117,250" stroke="#1e90ff" />
<path d="M118,282.5 L118,250" stroke="#1e90ff" />
<path d="M120,282.5 L120,250" stroke="#1e90ff" />
<path d="M122,282.5 L122,250" stroke="#1e90ff" />
<path d="M123,282.5 L123,250" stroke="#1e90ff" />
<path d="M124,282.5 L124,250" stroke="#1e90ff" />
<path d="M131,282.5 L131,250" stroke="#1e90ff" />
<path d="M133,282.5 L133,250" stroke="#1e90ff" />
<path d="M135,282.5 L135,250" stroke="#1e90ff" />
<path d="M136,282.5 L136,250" stroke="#1e90ff" />
<path d="M140,282.5 L140,250" stroke="#1e90ff" />
<path d="M-163,250 L-163,242.5" stroke="#dc143c" />
<path d="M-159,250 L-159,242.5" stroke="#dc143c" />
<path d="M-153,250 L-153,242.5" stroke="#dc143c" />
<path d="M-144,250 L-144,242.5" stroke="#dc143c" />
<path d="M-117,250 L-117,242.5" stroke="#dc143c" />
<path d="M-110,250 L-110,242.5" stroke="#dc143c" />
<path d="M-91,250 L-91,242.5" stroke="#dc143c" />
<path d="M-83,250 L-83,242.5" stroke="#dc143c" />
<path d="M-73,250 L-73,242.5" stroke="#dc143c" />
<path d="M-13,250 L-13,242.5" stroke="#dc143c" />
<path d="M138,250 L138,242.5" stroke="#dc143c" />
<rect x="-200" y="250" width="404" height="25" fill="white" stroke="black" />
<rect x="-200" y="250" width="25.0" height="25" fill="#dc143c" stroke="black" />
<rect x="-177.0" y="250" width="97.0" height="25" fill="#ffd700" stroke="black" />
<rect x="155.0" y="250" width="22.0" height="25" fill="#1e90ff" stroke="black" />
<text x="-290" y="320" font-size="25" fill="black">RL11T</text>
<path d="M-172,332.5 L-172,300" stroke="#1e90ff" />
<path d="M-171,332.5 L-171,300" stroke="#1e90ff" />
<path d="M-170,332.5 L-170,300" stroke="#1e90ff" />
<path d="M-168,332.5 L-168,300" stroke="#1e90ff" />
<path d="M-167,332.5 L-167,300" stroke="#1e90ff" />
<path d="M-166,332.5 L-166,300" stroke="#1e90ff" />
<path d="M-162,332.5 L-162,300" stroke="#1e90ff" />
<path d="M-161,332.5 L-161,300" stroke="#1e90ff" />
<path d="M-160,332.5 L-160,300" stroke="#1e90ff" />
<path d="M-159,332.5 L-159,300" stroke="#1e90ff" />
<path d="M-158,332.5 L-158,300" stroke="#1e90ff" />
<path d="M-156,332.5 L-156,300" stroke="#1e90ff" />
<path d="M-154,332.5 L-154,300" stroke="#1e90ff" />
<path d="M-153,332.5 L-153,300" stroke="#1e90ff" />
<path d="M-152,332.5 L-152,300" stroke="#1e90ff" />
<path d="M-151,332.5 L-151,300" stroke="#1e90ff" />
<path d="M-150,332.5 L-150,300" stroke="#1e90ff" />
<path d="M-147,332.5 L-147,300" stroke="#1e90ff" />
<path d="M-144,332.5 L-144,300" stroke="#1e90ff" />
<path d="M-143,332.5 L-143,300" stroke="#1e90ff" />
<path d="M-142,332.5 L-142,300" stroke="#1e90ff" />
<path d="M-140,332.5 L-140,300" stroke="#1e90ff" />
<path d="M-138,332.5 L-138,300" stroke="#1e90ff" />
<path d="M-137,332.5 L-137,300" stroke="#1e90ff" />
<path d="M-135,332.5 L-135,300" stroke="#1e90ff" />
<path d="M-134,332.5 L-134,300" stroke="#1e90ff" />
<path d="M-132,332.5 L-132,300" stroke="#1e90ff" />
<path d="M-131,332.5 L-131,300" stroke="#1e90ff" />
<path d="M-130,332.5 L-130,300" stroke="#1e90ff" />
<path d="M-127,332.5 L-127,300" stroke="#1e90ff" />
<path d="M-126,332.5 L-126,300" stroke="#1e90ff" />
<path d="M-125,332.5 L-125,300" stroke="#1e90ff" />
<path d="M-123,332.5 L-123,300" stroke="#1e90ff" />
<path d="M-121,332.5 L-121,300" stroke="#1e90ff" />
<path d="M-120,332.5 L-120,300" stroke="#1e90ff" />
<path d="M-118,332.5 L-118,300" stroke="#1e90ff" />
<path d="M-116,332.5 L-116,300" stroke="#1e90ff" />
<path d="M-115,332.5 L-115,300" stroke="#1e90ff" />
<path d="M-112,332.5 L-112,300" stroke="#1e90ff" />
<path d="M-111,332.5 L-111,300" stroke="#1e90ff" />
<path d="M-109,332.5 L-109,300" stroke="#1e90ff" />
<path d="M-108,332.5 L-108,300" stroke="#1e90ff" />
<path d="M-107,332.5 L-107,300" stroke="#1e90ff" />
<path d="M-104,332.5 L-104,300" stroke="#1e90ff" />
<path d="M-103,332.5 L-103,300" stroke="#1e90ff" />
<path d="M-102,332.5 L-102,300" stroke="#1e90ff" />
<path d="M-100,332.5 L-100,300" stroke="#1e90ff" />
<path d="M-98,332.5 L-98,300" stroke="#1e90ff" />
<path d="M-97,332.5 L-97,300" stroke="#1e90ff" />
<path d="M-95,332.5 L-95,300" stroke="#1e90ff" />
<path d="M-94,332.5 L-94,300" stroke="#1e90ff" />
<path d="M-91,332.5 L-91,300" stroke="#1e90ff" />
<path d="M-89,332.5 L-89,300" stroke="#1e90ff" />
<path d="M-87,332.5 L-87,300" stroke="#1e90ff" />
<path d="M-85,332.5 L-85,300" stroke="#1e90ff" />
<path d="M-84,332.5 L-84,300" stroke="#1e90ff" />
<path d="M-83,332.5 L-83,300" stroke="#1e90ff" />
<path d="M-82,332.5 L-82,300" stroke="#1e90ff" />
<path d="M-81,332.5 L-81,300" stroke="#1e90ff" />
<path d="M-80,332.5 L-80,300" stroke="#1e90ff" />
<path d="M-78,332.5 L-78,300" stroke="#1e90ff" />
<path d="M-77,332.5 L-77,300" stroke="#1e90ff" />
<path d="M-76,332.5 L-76,300" stroke="#1e90ff" />
<path d="M-73,332.5 L-73,300" stroke="#1e90ff" />
<path d="M-71,332.5 L-71,300" stroke="#1e90ff" />
<path d="M-70,332.5 L-70,300" stroke="#1e90ff" />
<path d="M-68,332.5 L-68,300" stroke="#1e90ff" />
<path d="M-65,332.5 L-65,300" stroke="#1e90ff" />
<path d="M-64,332.5 L-64,300" stroke="#1e90ff" />
<path d="M-63,332.5 L-63,300" stroke="#1e90ff" />
<path d="M-62,332.5 L-62,300" stroke="#1e90ff" />
<path d="M-58,332.5 L-58,300" stroke="#1e90ff" />
<path d="M-57,332.5 L-57,300" stroke="#1e90ff" />
<path d="M-54,332.5 L-54,300" stroke="#1e90ff" />
<path d="M-52,332.5 L-52,300" stroke="#1e90ff" />
<path d="M-51,332.5 L-51,300" stroke="#1e90ff" />
<path d="M-48,332.5 L-48,300" stroke="#1e90ff" />
<path d="M-45,332.5 L-45,300" stroke="#1e90ff" />
<path d="M-44,332.5 L-44,300" stroke="#1e90ff" />
<path d="M-39,332.5 L-39,300" stroke="#1e90ff" />
<path d="M-35,332.5 L-35,300" stroke="#1e90ff" />
<path d="M-34,332.5 L-34,300" stroke="#1e90ff" />
<path d="M-33,332.5 L-33,300" stroke="#1e90ff" />
<path d="M-29,332.5 L-29,300" stroke="#1e90ff" />
<path d="M-27,332.5 L-27,300" stroke="#1e90ff" />
<path d="M-25,332.5 L-25,300" stroke="#1e90ff" />
<path d="M-23,332.5 L-23,300" stroke="#1e90ff" />
<path d="M-22,332.5 L-22,300" stroke="#1e90ff" />
<path d="M-18,332.5 L-18,300" stroke="#1e90ff" />
<path d="M-17,332.5 L-17,300" stroke="#1e90ff" />
<path d="M-16,332.5 L-16,300" stroke="#1e90ff" />
<path d="M-15,332.5 L-15,300" stroke="#1e90ff" />
<path d="M-13,332.5 L-13,300" stroke="#1e90ff" />
<path d="M-12,332.5 L-12,300" stroke="#1e90ff" />
<path d="M-11,332.5 L-11,300" stroke="#1e90ff" />
<path d="M-10,332.5 L-10,300" stroke="#1e90ff" />
<path d="M3,332.5 L3,300" stroke="#1e90ff" />
<path d="M7,332.5 L7,300" stroke="#1e90ff" />
<path d="M9,332.5 L9,300" stroke="#1e90ff" />
<path d="M13,332.5 L13,300" stroke="#1e90ff" />
<path d="M16,332.5 L16,300" stroke="#1e90ff" />
<path d="M19,332.5 L19,300" stroke="#1e90ff" />
<path d="M23,332.5 L23,300" stroke="#1e90ff" />
<path d="M43,332.5 L43,300" stroke="#1e90ff" />
<path d="M44,332.5 L44,300" stroke="#1e90ff" />
<path d="M45,332.5 L45,300" stroke="#1e90ff" />
<path d="M46,332.5 L46,300" stroke="#1e90ff" />
<path d="M86,332.5 L86,300" stroke="#1e90ff" />
<path d="M104,332.5 L104,300" stroke="#1e90ff" />
<path d="M106,332.5 L106,300" stroke="#1e90ff" />
<path d="M114,332.5 L114,300" stroke="#1e90ff" />
<path d="M116,332.5 L116,300" stroke="#1e90ff" />
<path d="M117,332.5 L117,300" stroke="#1e90ff" />
<path d="M118,332.5 L118,300" stroke="#1e90ff" />
<path d="M119,332.5 L119,300" stroke="#1e90ff" />
<path d="M122,332.5 L122,300" stroke="#1e90ff" />
<path d="M123,332.5 L123,300" stroke="#1e90ff" />
<path d="M124,332.5 L124,300" stroke="#1e90ff" />
<path d="M-173,300 L-173,292.5" stroke="#dc143c" />
<path d="M-164,300 L-164,292.5" stroke="#dc143c" />
<path d="M-136,300 L-136,292.5" stroke="#dc143c" />
<path d="M-106,300 L-106,292.5" stroke="#dc143c" />
<path d="M-96,300 L-96,292.5" stroke="#dc143c" />
<path d="M-93,300 L-93,292.5" stroke="#dc143c" />
<path d="M-75,300 L-75,292.5" stroke="#dc143c" />
<path d="M-72,300 L-72,292.5" stroke="#dc143c" />
<path d="M-67,300 L-67,292.5" stroke="#dc143c" />
<path d="M-50,300 L-50,292.5" stroke="#dc143c" />
<path d="M-41,300 L-41,292.5" stroke="#dc143c" />
<path d="M-36,300 L-36,292.5" stroke="#dc143c" />
<path d="M-24,300 L-24,292.5" stroke="#dc143c" />
<path d="M-20,300 L-20,292.5" stroke="#dc143c" />
<path d="M1,300 L1,292.5" stroke="#dc143c" />
<path d="M14,300 L14,292.5" stroke="#dc143c" />
<path d="M30,300 L30,292.5" stroke="#dc143c" />
<path d="M69,300 L69,292.5" stroke="#dc143c" />
<path d="M73,300 L73,292.5" stroke="#dc143c" />
<path d="M101,300 L101,292.5" stroke="#dc143c" />
<rect x="-200" y="300" width="400" height="25" fill="white" stroke="black" />
<rect x="-200" y="300" width="25.0" height="25" fill="#dc143c" stroke="black" />
<rect x="-17.0" y="300" width="114.0" height="25" fill="#ffd700" stroke="black" />
<rect x="137.0" y="300" width="22.0" height="25" fill="#1e90ff" stroke="black" />
</svg>