<?xml version="1.0" encoding="UTF-8"?>
<svg xmlns="http://www.w3.org/2000/svg" xmlns:xlink="http://www.w3.org/1999/xlink"
     width="800" height="1400" viewBox="-400.0 -700.0 800 1400">
<defs>
</defs>
<text x="-290" y="-650" font-size="25" fill="black">human_betaherpesvirus_5</text>
<text x="-290" y="-580" font-size="25" fill="black">RL5A</text>
<path d="M-193,-600 L-193,-607.5" stroke="#dc143c" />
<path d="M-187,-600 L-187,-607.5" stroke="#dc143c" />
<path d="M-157,-600 L-157,-607.5" stroke="#dc143c" />
<path d="M-134,-600 L-134,-607.5" stroke="#dc143c" />
<rect x="-200" y="-600" width="95" height="25" fill="white" stroke="black" />
<rect x="-197.0" y="-600" width="91.0" height="25" fill="#ffd700" stroke="black" />
<text x="-290" y="-530" font-size="25" fill="black">RL6</text>
<path d="M-182,-517.5 L-182,-550" stroke="#1e90ff" />
<path d="M-181,-517.5 L-181,-550" stroke="#1e90ff" />
<path d="M-174,-517.5 L-174,-550" stroke="#1e90ff" />
<path d="M-178,-550 L-178,-557.5" stroke="#dc143c" />
<path d="M-150,-550 L-150,-557.5" stroke="#dc143c" />
<path d="M-144,-550 L-144,-557.5" stroke="#dc143c" />
<path d="M-138,-550 L-138,-557.5" stroke="#dc143c" />
<rect x="-200" y="-550" width="111" height="25" fill="white" stroke="black" />
<rect x="-191.0" y="-550" width="101.0" height="25" fill="#ffd700" stroke="black" />
<text x="-290" y="-480" font-size="25" fill="black">RL11</text>
<path d="M-179,-467.5 L-179,-500" stroke="#1e90ff" />
<path d="M-175,-467.5 L-175,-500" stroke="#1e90ff" />
<path d="M-174,-467.5 L-174,-500" stroke="#1e90ff" />
<path d="M-168,-467.5 L-168,-500" stroke="#1e90ff" />
<path d="M-141,-467.5 L-141,-500" stroke="#1e90ff" />
<path d="M-39,-467.5 L-39,-500" stroke="#1e90ff" />
<path d="M-143,-500 L-143,-507.5" stroke="#dc143c" />
<path d="M-95,-500 L-95,-507.5" stroke="#dc143c" />
<path d="M-90,-500 L-90,-507.5" stroke="#dc143c" />
<rect x="-200" y="-500" width="234" height="25" fill="white" stroke="black" />
<rect x="-200" y="-500" width="28.0" height="25" fill="#dc143c" stroke="black" />
<rect x="-170.0" y="-500" width="106.0" height="25" fill="#ffd700" stroke="black" />
<rect x="-20.0" y="-500" width="22.0" height="25" fill="#1e90ff" stroke="black" />
<text x="-290" y="-430" font-size="25" fill="black">RL12</text>
<path d="M-161,-417.5 L-161,-450" stroke="#1e90ff" />
<path d="M-159,-417.5 L-159,-450" stroke="#1e90ff" />
<path d="M-158,-417.5 L-158,-450" stroke="#1e90ff" />
<path d="M-157,-417.5 L-157,-450" stroke="#1e90ff" />
<path d="M-155,-417.5 L-155,-450" stroke="#1e90ff" />
<path d="M-154,-417.5 L-154,-450" stroke="#1e90ff" />
<path d="M-152,-417.5 L-152,-450" stroke="#1e90ff" />
<path d="M-150,-417.5 L-150,-450" stroke="#1e90ff" />
<path d="M-149,-417.5 L-149,-450" stroke="#1e90ff" />
<path d="M-146,-417.5 L-146,-450" stroke="#1e90ff" />
<path d="M-145,-417.5 L-145,-450" stroke="#1e90ff" />
<path d="M-140,-417.5 L-140,-450" stroke="#1e90ff" />
<path d="M-139,-417.5 L-139,-450" stroke="#1e90ff" />
<path d="M-136,-417.5 L-136,-450" stroke="#1e90ff" />
<path d="M-135,-417.5 L-135,-450" stroke="#1e90ff" />
<path d="M-131,-417.5 L-131,-450" stroke="#1e90ff" />
<path d="M-130,-417.5 L-130,-450" stroke="#1e90ff" />
<path d="M-128,-417.5 L-128,-450" stroke="#1e90ff" />
<path d="M-125,-417.5 L-125,-450" stroke="#1e90ff" />
<path d="M-124,-417.5 L-124,-450" stroke="#1e90ff" />
<path d="M-123,-417.5 L-123,-450" stroke="#1e90ff" />
<path d="M-122,-417.5 L-122,-450" stroke="#1e90ff" />
<path d="M-120,-417.5 L-120,-450" stroke="#1e90ff" />
<path d="M-118,-417.5 L-118,-450" stroke="#1e90ff" />
<path d="M-117,-417.5 L-117,-450" stroke="#1e90ff" />
<path d="M-116,-417.5 L-116,-450" stroke="#1e90ff" />
<path d="M-115,-417.5 L-115,-450" stroke="#1e90ff" />
<path d="M-113,-417.5 L-113,-450" stroke="#1e90ff" />
<path d="M-109,-417.5 L-109,-450" stroke="#1e90ff" />
<path d="M-108,-417.5 L-108,-450" stroke="#1e90ff" />
<path d="M-106,-417.5 L-106,-450" stroke="#1e90ff" />
<path d="M-105,-417.5 L-105,-450" stroke="#1e90ff" />
<path d="M-102,-417.5 L-102,-450" stroke="#1e90ff" />
<path d="M-101,-417.5 L-101,-450" stroke="#1e90ff" />
<path d="M-100,-417.5 L-100,-450" stroke="#1e90ff" />
<path d="M-98,-417.5 L-98,-450" stroke="#1e90ff" />
<path d="M-97,-417.5 L-97,-450" stroke="#1e90ff" />
<path d="M-96,-417.5 L-96,-450" stroke="#1e90ff" />
<path d="M-94,-417.5 L-94,-450" stroke="#1e90ff" />
<path d="M-92,-417.5 L-92,-450" stroke="#1e90ff" />
<path d="M-91,-417.5 L-91,-450" stroke="#1e90ff" />
<path d="M-85,-417.5 L-85,-450" stroke="#1e90ff" />
<path d="M-84,-417.5 L-84,-450" stroke="#1e90ff" />
<path d="M-82,-417.5 L-82,-450" stroke="#1e90ff" />
<path d="M-80,-417.5 L-80,-450" stroke="#1e90ff" />
<path d="M-76,-417.5 L-76,-450" stroke="#1e90ff" />
<path d="M-72,-417.5 L-72,-450" stroke="#1e90ff" />
<path d="M-69,-417.5 L-69,-450" stroke="#1e90ff" />
<path d="M-68,-417.5 L-68,-450" stroke="#1e90ff" />
<path d="M-67,-417.5 L-67,-450" stroke="#1e90ff" />
<path d="M-63,-417.5 L-63,-450" stroke="#1e90ff" />
<path d="M-62,-417.5 L-62,-450" stroke="#1e90ff" />
<path d="M-61,-417.5 L-61,-450" stroke="#1e90ff" />
<path d="M-56,-417.5 L-56,-450" stroke="#1e90ff" />
<path d="M-54,-417.5 L-54,-450" stroke="#1e90ff" />
<path d="M-53,-417.5 L-53,-450" stroke="#1e90ff" />
<path d="M-49,-417.5 L-49,-450" stroke="#1e90ff" />
<path d="M-48,-417.5 L-48,-450" stroke="#1e90ff" />
<path d="M-44,-417.5 L-44,-450" stroke="#1e90ff" />
<path d="M-43,-417.5 L-43,-450" stroke="#1e90ff" />
<path d="M-41,-417.5 L-41,-450" stroke="#1e90ff" />
<path d="M-38,-417.5 L-38,-450" stroke="#1e90ff" />
<path d="M-5,-417.5 L-5,-450" stroke="#1e90ff" />
<path d="M124,-417.5 L124,-450" stroke="#1e90ff" />
<path d="M133,-417.5 L133,-450" stroke="#1e90ff" />
<path d="M135,-417.5 L135,-450" stroke="#1e90ff" />
<path d="M149,-417.5 L149,-450" stroke="#1e90ff" />
<path d="M157,-417.5 L157,-450" stroke="#1e90ff" />
<path d="M-190,-450 L-190,-457.5" stroke="#dc143c" />
<path d="M-168,-450 L-168,-457.5" stroke="#dc143c" />
<path d="M-162,-450 L-162,-457.5" stroke="#dc143c" />
<path d="M-99,-450 L-99,-457.5" stroke="#dc143c" />
<path d="M-74,-450 L-74,-457.5" stroke="#dc143c" />
<path d="M-64,-450 L-64,-457.5" stroke="#dc143c" />
<path d="M-45,-450 L-45,-457.5" stroke="#dc143c" />
<path d="M-33,-450 L-33,-457.5" stroke="#dc143c" />
<path d="M-27,-450 L-27,-457.5" stroke="#dc143c" />
<path d="M4,-450 L4,-457.5" stroke="#dc143c" />
<path d="M10,-450 L10,-457.5" stroke="#dc143c" />
<path d="M25,-450 L25,-457.5" stroke="#dc143c" />
<path d="M73,-450 L73,-457.5" stroke="#dc143c" />
<path d="M121,-450 L121,-457.5" stroke="#dc143c" />
<rect x="-200" y="-450" width="414" height="25" fill="white" stroke="black" />
<rect x="-16.0" y="-450" width="129.0" height="25" fill="#ffd700" stroke="black" />
<rect x="167.0" y="-450" width="17.0" height="25" fill="#1e90ff" stroke="black" />
<text x="-290" y="-380" font-size="25" fill="black">RL13</text>
<path d="M-163,-367.5 L-163,-400" stroke="#1e90ff" />
<path d="M-157,-367.5 L-157,-400" stroke="#1e90ff" />
<path d="M-156,-367.5 L-156,-400" stroke="#1e90ff" />
<path d="M-155,-367.5 L-155,-400" stroke="#1e90ff" />
<path d="M-151,-367.5 L-151,-400" stroke="#1e90ff" />
<path d="M-149,-367.5 L-149,-400" stroke="#1e90ff" />
<path d="M-148,-367.5 L-148,-400" stroke="#1e90ff" />
<path d="M-147,-367.5 L-147,-400" stroke="#1e90ff" />
<path d="M-146,-367.5 L-146,-400" stroke="#1e90ff" />
<path d="M-144,-367.5 L-144,-400" stroke="#1e90ff" />
<path d="M-141,-367.5 L-141,-400" stroke="#1e90ff" />
<path d="M-140,-367.5 L-140,-400" stroke="#1e90ff" />
<path d="M-139,-367.5 L-139,-400" stroke="#1e90ff" />
<path d="M-138,-367.5 L-138,-400" stroke="#1e90ff" />
<path d="M-135,-367.5 L-135,-400" stroke="#1e90ff" />
<path d="M-134,-367.5 L-134,-400" stroke="#1e90ff" />
<path d="M-133,-367.5 L-133,-400" stroke="#1e90ff" />
<path d="M-105,-367.5 L-105,-400" stroke="#1e90ff" />
<path d="M-101,-367.5 L-101,-400" stroke="#1e90ff" />
<path d="M13,-367.5 L13,-400" stroke="#1e90ff" />
<path d="M16,-367.5 L16,-400" stroke="#1e90ff" />
<path d="M22,-367.5 L22,-400" stroke="#1e90ff" />
<path d="M25,-367.5 L25,-400" stroke="#1e90ff" />
<path d="M27,-367.5 L27,-400" stroke="#1e90ff" />
<path d="M28,-367.5 L28,-400" stroke="#1e90ff" />
<path d="M79,-367.5 L79,-400" stroke="#1e90ff" />
<path d="M-179,-400 L-179,-407.5" stroke="#dc143c" />
<path d="M-168,-400 L-168,-407.5" stroke="#dc143c" />
<path d="M-92,-400 L-92,-407.5" stroke="#dc143c" />
<path d="M-80,-400 L-80,-407.5" stroke="#dc143c" />
<path d="M-22,-400 L-22,-407.5" stroke="#dc143c" />
<path d="M7,-400 L7,-407.5" stroke="#dc143c" />
<path d="M14,-400 L14,-407.5" stroke="#dc143c" />
<rect x="-200" y="-400" width="293" height="25" fill="white" stroke="black" />
<rect x="-200" y="-400" width="19.0" height="25" fill="#dc143c" stroke="black" />
<rect x="-99.0" y="-400" width="102.0" height="25" fill="#ffd700" stroke="black" />
<rect x="47.0" y="-400" width="22.0" height="25" fill="#1e90ff" stroke="black" />
<text x="-290" y="-330" font-size="25" fill="black">UL1</text>
<path d="M-139,-350 L-139,-357.5" stroke="#dc143c" />
<path d="M-104,-350 L-104,-357.5" stroke="#dc143c" />
<path d="M-84,-350 L-84,-357.5" stroke="#dc143c" />
<path d="M-80,-350 L-80,-357.5" stroke="#dc143c" />
<path d="M-63,-350 L-63,-357.5" stroke="#dc143c" />
<path d="M-47,-350 L-47,-357.5" stroke="#dc143c" />
<path d="M-43,-350 L-43,-357.5" stroke="#dc143c" />
<path d="M-1,-350 L-1,-357.5" stroke="#dc143c" />
<path d="M-140,-350 L-140,-357.5" stroke="#dc143c" />
<path d="M-96,-350 L-96,-357.5" stroke="#dc143c" />
<path d="M-87,-350 L-87,-357.5" stroke="#dc143c" />
<path d="M-18,-350 L-18,-357.5" stroke="#dc143c" />
<path d="M-158,-350 L-158,-357.5" stroke="#dc143c" />
<path d="M-118,-350 L-118,-357.5" stroke="#dc143c" />
<path d="M-107,-350 L-107,-357.5" stroke="#dc143c" />
<path d="M-100,-350 L-100,-357.5" stroke="#dc143c" />
<path d="M-64,-350 L-64,-357.5" stroke="#dc143c" />
<path d="M-58,-350 L-58,-357.5" stroke="#dc143c" />
<rect x="-200" y="-350" width="218" height="25" fill="white" stroke="black" />
<rect x="-200" y="-350" width="27.0" height="25" fill="#dc143c" stroke="black" />
<rect x="-168.0" y="-350" width="133.0" height="25" fill="#ffd700" stroke="black" />
<rect x="-22.0" y="-350" width="22.0" height="25" fill="#1e90ff" stroke="black" />
<text x="-290" y="-280" font-size="25" fill="black">UL4</text>
<path d="M-154,-300 L-154,-307.5" stroke="#dc143c" />
<path d="M-149,-300 L-149,-307.5" stroke="#dc143c" />
<path d="M-141,-300 L-141,-307.5" stroke="#dc143c" />
<path d="M-133,-300 L-133,-307.5" stroke="#dc143c" />
<path d="M-95,-300 L-95,-307.5" stroke="#dc143c" />
<path d="M-91,-300 L-91,-307.5" stroke="#dc143c" />
<path d="M-81,-300 L-81,-307.5" stroke="#dc143c" />
<path d="M-55,-300 L-55,-307.5" stroke="#dc143c" />
<rect x="-200" y="-300" width="149" height="25" fill="white" stroke="black" />
<rect x="-200" y="-300" width="25.0" height="25" fill="#dc143c" stroke="black" />
<rect x="-150.0" y="-300" width="98.0" height="25" fill="#ffd700" stroke="black" />
<text x="-290" y="-230" font-size="25" fill="black">UL5</text>
<path d="M-133,-217.5 L-133,-250" stroke="#1e90ff" />
<path d="M-132,-217.5 L-132,-250" stroke="#1e90ff" />
<path d="M-131,-217.5 L-131,-250" stroke="#1e90ff" />
<path d="M-129,-217.5 L-129,-250" stroke="#1e90ff" />
<path d="M-128,-217.5 L-128,-250" stroke="#1e90ff" />
<path d="M-126,-217.5 L-126,-250" stroke="#1e90ff" />
<path d="M-124,-217.5 L-124,-250" stroke="#1e90ff" />
<rect x="-200" y="-250" width="166" height="25" fill="white" stroke="black" />
<rect x="-88.0" y="-250" width="22.0" height="25" fill="#1e90ff" stroke="black" />
<text x="-290" y="-180" font-size="25" fill="black">UL6</text>
<path d="M-131,-167.5 L-131,-200" stroke="#1e90ff" />
<path d="M-130,-167.5 L-130,-200" stroke="#1e90ff" />
<path d="M-123,-167.5 L-123,-200" stroke="#1e90ff" />
<path d="M-122,-167.5 L-122,-200" stroke="#1e90ff" />
<path d="M-120,-167.5 L-120,-200" stroke="#1e90ff" />
<path d="M-118,-167.5 L-118,-200" stroke="#1e90ff" />
<path d="M-19,-167.5 L-19,-200" stroke="#1e90ff" />
<path d="M-18,-167.5 L-18,-200" stroke="#1e90ff" />
<path d="M-9,-167.5 L-9,-200" stroke="#1e90ff" />
<path d="M-4,-167.5 L-4,-200" stroke="#1e90ff" />
<path d="M-2,-167.5 L-2,-200" stroke="#1e90ff" />
<path d="M8,-167.5 L8,-200" stroke="#1e90ff" />
<path d="M9,-167.5 L9,-200" stroke="#1e90ff" />
<path d="M-125,-200 L-125,-207.5" stroke="#dc143c" />
<path d="M-102,-200 L-102,-207.5" stroke="#dc143c" />
<path d="M-93,-200 L-93,-207.5" stroke="#dc143c" />
<path d="M-57,-200 L-57,-207.5" stroke="#dc143c" />
<path d="M-42,-200 L-42,-207.5" stroke="#dc143c" />
<path d="M-30,-200 L-30,-207.5" stroke="#dc143c" />
<path d="M7,-200 L7,-207.5" stroke="#dc143c" />
<path d="M24,-200 L24,-207.5" stroke="#dc143c" />
<path d="M30,-200 L30,-207.5" stroke="#dc143c" />
<rect x="-200" y="-200" width="280" height="25" fill="white" stroke="black" />
<rect x="-123.0" y="-200" width="96.0" height="25" fill="#ffd700" stroke="black" />
<rect x="37.0" y="-200" width="22.0" height="25" fill="#1e90ff" stroke="black" />
<text x="-290" y="-130" font-size="25" fill="black">UL7</text>
<path d="M-58,-117.5 L-58,-150" stroke="#1e90ff" />
<path d="M-57,-117.5 L-57,-150" stroke="#1e90ff" />
<path d="M-54,-117.5 L-54,-150" stroke="#1e90ff" />
<path d="M-51,-117.5 L-51,-150" stroke="#1e90ff" />
<path d="M-50,-117.5 L-50,-150" stroke="#1e90ff" />
<path d="M-47,-117.5 L-47,-150" stroke="#1e90ff" />
<path d="M-46,-117.5 L-46,-150" stroke="#1e90ff" />
<path d="M-45,-117.5 L-45,-150" stroke="#1e90ff" />
<path d="M-44,-117.5 L-44,-150" stroke="#1e90ff" />
<path d="M-43,-117.5 L-43,-150" stroke="#1e90ff" />
<path d="M-41,-117.5 L-41,-150" stroke="#1e90ff" />
<path d="M-37,-117.5 L-37,-150" stroke="#1e90ff" />
<path d="M-34,-117.5 L-34,-150" stroke="#1e90ff" />
<path d="M-30,-117.5 L-30,-150" stroke="#1e90ff" />
<path d="M-18,-117.5 L-18,-150" stroke="#1e90ff" />
<path d="M-150,-150 L-150,-157.5" stroke="#dc143c" />
<path d="M-144,-150 L-144,-157.5" stroke="#dc143c" />
<path d="M-140,-150 L-140,-157.5" stroke="#dc143c" />
<path d="M-95,-150 L-95,-157.5" stroke="#dc143c" />
<path d="M-91,-150 L-91,-157.5" stroke="#dc143c" />
<path d="M-68,-150 L-68,-157.5" stroke="#dc143c" />
<path d="M-53,-150 L-53,-157.5" stroke="#dc143c" />
<path d="M-36,-150 L-36,-157.5" stroke="#dc143c" />
<path d="M-32,-150 L-32,-157.5" stroke="#dc143c" />
<rect x="-200" y="-150" width="222" height="25" fill="white" stroke="black" />
<rect x="-200" y="-150" width="38.0" height="25" fill="#dc143c" stroke="black" />
<rect x="-165.0" y="-150" width="100.0" height="25" fill="#ffd700" stroke="black" />
<rect x="-9.0" y="-150" width="22.0" height="25" fill="#1e90ff" stroke="black" />
<text x="-290" y="-80" font-size="25" fill="black">UL8</text>
<path d="M-176,-67.5 L-176,-100" stroke="#1e90ff" />
<path d="M-171,-67.5 L-171,-100" stroke="#1e90ff" />
<path d="M-162,-67.5 L-162,-100" stroke="#1e90ff" />
<path d="M-156,-67.5 L-156,-100" stroke="#1e90ff" />
<path d="M-148,-67.5 L-148,-100" stroke="#1e90ff" />
<path d="M-145,-67.5 L-145,-100" stroke="#1e90ff" />
<path d="M-144,-67.5 L-144,-100" stroke="#1e90ff" />
<path d="M-177,-100 L-177,-107.5" stroke="#dc143c" />
<path d="M-172,-100 L-172,-107.5" stroke="#dc143c" />
<path d="M-150,-100 L-150,-107.5" stroke="#dc143c" />
<rect x="-200" y="-100" width="122" height="25" fill="white" stroke="black" />
<rect x="-126.0" y="-100" width="22.0" height="25" fill="#1e90ff" stroke="black" />
<text x="-290" y="-30" font-size="25" fill="black">UL9</text>
<path d="M-160,-50 L-160,-57.5" stroke="#dc143c" />
<path d="M-153,-50 L-153,-57.5" stroke="#dc143c" />
<path d="M-106,-50 L-106,-57.5" stroke="#dc143c" />
<path d="M-99,-50 L-99,-57.5" stroke="#dc143c" />
<path d="M-69,-50 L-69,-57.5" stroke="#dc143c" />
<path d="M-31,-50 L-31,-57.5" stroke="#dc143c" />
<rect x="-200" y="-50" width="233" height="25" fill="white" stroke="black" />
<rect x="-200" y="-50" width="20.0" height="25" fill="#dc143c" stroke="black" />
<rect x="-169.0" y="-50" width="103.0" height="25" fill="#ffd700" stroke="black" />
<rect x="-8.0" y="-50" width="22.0" height="25" fill="#1e90ff" stroke="black" />
<text x="-290" y="20" font-size="25" fill="black">UL10</text>
<path d="M-123,32.5 L-123,0" stroke="#1e90ff" />
<path d="M-112,32.5 L-112,0" stroke="#1e90ff" />
<path d="M-109,32.5 L-109,0" stroke="#1e90ff" />
<path d="M-108,32.5 L-108,0" stroke="#1e90ff" />
<path d="M-54,32.5 L-54,0" stroke="#1e90ff" />
<path d="M-53,32.5 L-53,0" stroke="#1e90ff" />
<path d="M-46,32.5 L-46,0" stroke="#1e90ff" />
<path d="M-45,32.5 L-45,0" stroke="#1e90ff" />
<path d="M-39,32.5 L-39,0" stroke="#1e90ff" />
<path d="M-38,32.5 L-38,0" stroke="#1e90ff" />
<path d="M-33,32.5 L-33,0" stroke="#1e90ff" />
<path d="M-28,32.5 L-28,0" stroke="#1e90ff" />
<path d="M-27,32.5 L-27,0" stroke="#1e90ff" />
<path d="M-24,32.5 L-24,0" stroke="#1e90ff" />
<path d="M-23,32.5 L-23,0" stroke="#1e90ff" />
<path d="M-16,32.5 L-16,0" stroke="#1e90ff" />
<path d="M-140,0 L-140,-7.5" stroke="#dc143c" />
<path d="M-96,0 L-96,-7.5" stroke="#dc143c" />
<path d="M-87,0 L-87,-7.5" stroke="#dc143c" />
<path d="M-18,0 L-18,-7.5" stroke="#dc143c" />
<rect x="-200" y="0" width="254" height="25" fill="white" stroke="black" />
<rect x="-200" y="0" width="31.0" height="25" fill="#dc143c" stroke="black" />
<rect x="-168.0" y="0" width="109.0" height="25" fill="#ffd700" stroke="black" />
<rect x="10.0" y="0" width="17.0" height="25" fill="#1e90ff" stroke="black" />
<text x="-290" y="70" font-size="25" fill="black">UL11</text>
<path d="M-53,82.5 L-53,50" stroke="#1e90ff" />
<path d="M-52,82.5 L-52,50" stroke="#1e90ff" />
<path d="M-51,82.5 L-51,50" stroke="#1e90ff" />
<path d="M-50,82.5 L-50,50" stroke="#1e90ff" />
<path d="M-46,82.5 L-46,50" stroke="#1e90ff" />
<path d="M-45,82.5 L-45,50" stroke="#1e90ff" />
<path d="M-44,82.5 L-44,50" stroke="#1e90ff" />
<path d="M-43,82.5 L-43,50" stroke="#1e90ff" />
<path d="M-41,82.5 L-41,50" stroke="#1e90ff" />
<path d="M-40,82.5 L-40,50" stroke="#1e90ff" />
<path d="M-39,82.5 L-39,50" stroke="#1e90ff" />
<path d="M-38,82.5 L-38,50" stroke="#1e90ff" />
<path d="M-37,82.5 L-37,50" stroke="#1e90ff" />
<path d="M-36,82.5 L-36,50" stroke="#1e90ff" />
<path d="M-33,82.5 L-33,50" stroke="#1e90ff" />
<path d="M-32,82.5 L-32,50" stroke="#1e90ff" />
<path d="M-31,82.5 L-31,50" stroke="#1e90ff" />
<path d="M-30,82.5 L-30,50" stroke="#1e90ff" />
<path d="M-28,82.5 L-28,50" stroke="#1e90ff" />
<path d="M-27,82.5 L-27,50" stroke="#1e90ff" />
<path d="M-26,82.5 L-26,50" stroke="#1e90ff" />
<path d="M-25,82.5 L-25,50" stroke="#1e90ff" />
<path d="M-21,82.5 L-21,50" stroke="#1e90ff" />
<path d="M-20,82.5 L-20,50" stroke="#1e90ff" />
<path d="M-18,82.5 L-18,50" stroke="#1e90ff" />
<path d="M-17,82.5 L-17,50" stroke="#1e90ff" />
<path d="M-16,82.5 L-16,50" stroke="#1e90ff" />
<path d="M-10,82.5 L-10,50" stroke="#1e90ff" />
<path d="M-6,82.5 L-6,50" stroke="#1e90ff" />
<path d="M-5,82.5 L-5,50" stroke="#1e90ff" />
<path d="M-4,82.5 L-4,50" stroke="#1e90ff" />
<path d="M-1,82.5 L-1,50" stroke="#1e90ff" />
<path d="M19,82.5 L19,50" stroke="#1e90ff" />
<path d="M-158,50 L-158,42.5" stroke="#dc143c" />
<path d="M-118,50 L-118,42.5" stroke="#dc143c" />
<path d="M-107,50 L-107,42.5" stroke="#dc143c" />
<path d="M-100,50 L-100,42.5" stroke="#dc143c" />
<path d="M-64,50 L-64,42.5" stroke="#dc143c" />
<path d="M-58,50 L-58,42.5" stroke="#dc143c" />
<rect x="-200" y="50" width="272" height="25" fill="white" stroke="black" />
<rect x="-200" y="50" width="31.0" height="25" fill="#dc143c" stroke="black" />
<rect x="-167.0" y="50" width="106.0" height="25" fill="#ffd700" stroke="black" />
<rect x="25.0" y="50" width="22.0" height="25" fill="#1e90ff" stroke="black" />
</svg>