<?xml version="1.0" encoding="UTF-8"?>
<svg xmlns="http://www.w3.org/2000/svg" xmlns:xlink="http://www.w3.org/1999/xlink"
     width="800" height="1400" viewBox="-400.0 -700.0 800 1400">
<defs>
</defs>
<text x="-290" y="-650" font-size="25" fill="black">japanese_macacine_betaherpesvirus</text>
<text x="-290" y="-580" font-size="25" fill="black">RL11A</text>
<path d="M-62,-567.5 L-62,-600" stroke="#1e90ff" />
<path d="M-56,-567.5 L-56,-600" stroke="#1e90ff" />
<path d="M-54,-567.5 L-54,-600" stroke="#1e90ff" />
<path d="M-49,-567.5 L-49,-600" stroke="#1e90ff" />
<path d="M-46,-567.5 L-46,-600" stroke="#1e90ff" />
<path d="M-44,-567.5 L-44,-600" stroke="#1e90ff" />
<path d="M-40,-567.5 L-40,-600" stroke="#1e90ff" />
<path d="M-171,-600 L-171,-607.5" stroke="#dc143c" />
<path d="M-163,-600 L-163,-607.5" stroke="#dc143c" />
<path d="M-152,-600 L-152,-607.5" stroke="#dc143c" />
<path d="M-146,-600 L-146,-607.5" stroke="#dc143c" />
<path d="M-133,-600 L-133,-607.5" stroke="#dc143c" />
<path d="M-129,-600 L-129,-607.5" stroke="#dc143c" />
<path d="M-98,-600 L-98,-607.5" stroke="#dc143c" />
<path d="M-74,-600 L-74,-607.5" stroke="#dc143c" />
<path d="M-66,-600 L-66,-607.5" stroke="#dc143c" />
<rect x="-200" y="-600" width="273" height="25" fill="white" stroke="black" />
<rect x="-200" y="-600" width="21.0" height="25" fill="#dc143c" stroke="black" />
<rect x="-171.0" y="-600" width="108.0" height="25" fill="#ffd700" stroke="black" />
<rect x="-15.0" y="-600" width="22.0" height="25" fill="#1e90ff" stroke="black" />
<text x="-290" y="-530" font-size="25" fill="black">RL11B</text>
<path d="M-54,-517.5 L-54,-550" stroke="#1e90ff" />
<path d="M-53,-517.5 L-53,-550" stroke="#1e90ff" />
<path d="M-177,-550 L-177,-557.5" stroke="#dc143c" />
<path d="M-161,-550 L-161,-557.5" stroke="#dc143c" />
<path d="M-94,-550 L-94,-557.5" stroke="#dc143c" />
<path d="M-77,-550 L-77,-557.5" stroke="#dc143c" />
<rect x="-200" y="-550" width="159" height="25" fill="white" stroke="black" />
<rect x="-200" y="-550" width="17.0" height="25" fill="#dc143c" stroke="black" />
<rect x="-179.0" y="-550" width="114.0" height="25" fill="#ffd700" stroke="black" />
<text x="-290" y="-480" font-size="25" fill="black">RL11C</text>
<path d="M-173,-500 L-173,-507.5" stroke="#dc143c" />
<path d="M-142,-500 L-142,-507.5" stroke="#dc143c" />
<path d="M-118,-500 L-118,-507.5" stroke="#dc143c" />
<path d="M-102,-500 L-102,-507.5" stroke="#dc143c" />
<path d="M-98,-500 L-98,-507.5" stroke="#dc143c" />
<path d="M-69,-500 L-69,-507.5" stroke="#dc143c" />
<rect x="-200" y="-500" width="193" height="25" fill="white" stroke="black" />
<rect x="-178.0" y="-500" width="117.0" height="25" fill="#ffd700" stroke="black" />
<rect x="-44.0" y="-500" width="22.0" height="25" fill="#1e90ff" stroke="black" />
<text x="-290" y="-430" font-size="25" fill="black">RL11D1</text>
<path d="M-167,-450 L-167,-457.5" stroke="#dc143c" />
<path d="M-161,-450 L-161,-457.5" stroke="#dc143c" />
<path d="M-153,-450 L-153,-457.5" stroke="#dc143c" />
<path d="M-102,-450 L-102,-457.5" stroke="#dc143c" />
<path d="M-70,-450 L-70,-457.5" stroke="#dc143c" />
<path d="M-31,-450 L-31,-457.5" stroke="#dc143c" />
<rect x="-200" y="-450" width="217" height="25" fill="white" stroke="black" />
<rect x="-200" y="-450" width="28.0" height="25" fill="#dc143c" stroke="black" />
<rect x="-173.0" y="-450" width="110.0" height="25" fill="#ffd700" stroke="black" />
<rect x="-30.0" y="-450" width="19.0" height="25" fill="#1e90ff" stroke="black" />
<text x="-290" y="-380" font-size="25" fill="black">RL11D2</text>
<path d="M-61,-367.5 L-61,-400" stroke="#1e90ff" />
<path d="M-57,-367.5 L-57,-400" stroke="#1e90ff" />
<path d="M-177,-400 L-177,-407.5" stroke="#dc143c" />
<path d="M-169,-400 L-169,-407.5" stroke="#dc143c" />
<path d="M-161,-400 L-161,-407.5" stroke="#dc143c" />
<path d="M-112,-400 L-112,-407.5" stroke="#dc143c" />
<path d="M-80,-400 L-80,-407.5" stroke="#dc143c" />
<rect x="-200" y="-400" width="201" height="25" fill="white" stroke="black" />
<rect x="-200" y="-400" width="18.0" height="25" fill="#dc143c" stroke="black" />
<rect x="-181.0" y="-400" width="108.0" height="25" fill="#ffd700" stroke="black" />
<rect x="-32.0" y="-400" width="22.0" height="25" fill="#1e90ff" stroke="black" />
<text x="-290" y="-330" font-size="25" fill="black">RL11F</text>
<path d="M-51,-317.5 L-51,-350" stroke="#1e90ff" />
<path d="M-47,-317.5 L-47,-350" stroke="#1e90ff" />
<path d="M-46,-317.5 L-46,-350" stroke="#1e90ff" />
<path d="M-42,-317.5 L-42,-350" stroke="#1e90ff" />
<path d="M-41,-317.5 L-41,-350" stroke="#1e90ff" />
<path d="M-39,-317.5 L-39,-350" stroke="#1e90ff" />
<path d="M-38,-317.5 L-38,-350" stroke="#1e90ff" />
<path d="M-37,-317.5 L-37,-350" stroke="#1e90ff" />
<path d="M-36,-317.5 L-36,-350" stroke="#1e90ff" />
<path d="M-32,-317.5 L-32,-350" stroke="#1e90ff" />
<path d="M-174,-350 L-174,-357.5" stroke="#dc143c" />
<path d="M-158,-350 L-158,-357.5" stroke="#dc143c" />
<path d="M-143,-350 L-143,-357.5" stroke="#dc143c" />
<path d="M-135,-350 L-135,-357.5" stroke="#dc143c" />
<path d="M-122,-350 L-122,-357.5" stroke="#dc143c" />
<path d="M-115,-350 L-115,-357.5" stroke="#dc143c" />
<path d="M-106,-350 L-106,-357.5" stroke="#dc143c" />
<path d="M-99,-350 L-99,-357.5" stroke="#dc143c" />
<path d="M-92,-350 L-92,-357.5" stroke="#dc143c" />
<path d="M-89,-350 L-89,-357.5" stroke="#dc143c" />
<path d="M-76,-350 L-76,-357.5" stroke="#dc143c" />
<rect x="-200" y="-350" width="228" height="25" fill="white" stroke="black" />
<rect x="-200" y="-350" width="19.0" height="25" fill="#dc143c" stroke="black" />
<rect x="-183.0" y="-350" width="128.0" height="25" fill="#ffd700" stroke="black" />
<rect x="-16.0" y="-350" width="22.0" height="25" fill="#1e90ff" stroke="black" />
<text x="-290" y="-280" font-size="25" fill="black">RL11G</text>
<path d="M-57,-267.5 L-57,-300" stroke="#1e90ff" />
<path d="M-26,-267.5 L-26,-300" stroke="#1e90ff" />
<path d="M-25,-267.5 L-25,-300" stroke="#1e90ff" />
<path d="M-24,-267.5 L-24,-300" stroke="#1e90ff" />
<path d="M-23,-267.5 L-23,-300" stroke="#1e90ff" />
<path d="M-20,-267.5 L-20,-300" stroke="#1e90ff" />
<path d="M-19,-267.5 L-19,-300" stroke="#1e90ff" />
<path d="M-18,-267.5 L-18,-300" stroke="#1e90ff" />
<path d="M-17,-267.5 L-17,-300" stroke="#1e90ff" />
<path d="M-16,-267.5 L-16,-300" stroke="#1e90ff" />
<path d="M-15,-267.5 L-15,-300" stroke="#1e90ff" />
<path d="M-14,-267.5 L-14,-300" stroke="#1e90ff" />
<path d="M-13,-267.5 L-13,-300" stroke="#1e90ff" />
<path d="M-12,-267.5 L-12,-300" stroke="#1e90ff" />
<path d="M-9,-267.5 L-9,-300" stroke="#1e90ff" />
<path d="M-8,-267.5 L-8,-300" stroke="#1e90ff" />
<path d="M-7,-267.5 L-7,-300" stroke="#1e90ff" />
<path d="M-6,-267.5 L-6,-300" stroke="#1e90ff" />
<path d="M-3,-267.5 L-3,-300" stroke="#1e90ff" />
<path d="M-2,-267.5 L-2,-300" stroke="#1e90ff" />
<path d="M3,-267.5 L3,-300" stroke="#1e90ff" />
<path d="M4,-267.5 L4,-300" stroke="#1e90ff" />
<path d="M6,-267.5 L6,-300" stroke="#1e90ff" />
<path d="M10,-267.5 L10,-300" stroke="#1e90ff" />
<path d="M11,-267.5 L11,-300" stroke="#1e90ff" />
<path d="M12,-267.5 L12,-300" stroke="#1e90ff" />
<path d="M13,-267.5 L13,-300" stroke="#1e90ff" />
<path d="M14,-267.5 L14,-300" stroke="#1e90ff" />
<path d="M15,-267.5 L15,-300" stroke="#1e90ff" />
<path d="M16,-267.5 L16,-300" stroke="#1e90ff" />
<path d="M19,-267.5 L19,-300" stroke="#1e90ff" />
<path d="M20,-267.5 L20,-300" stroke="#1e90ff" />
<path d="M21,-267.5 L21,-300" stroke="#1e90ff" />
<path d="M22,-267.5 L22,-300" stroke="#1e90ff" />
<path d="M23,-267.5 L23,-300" stroke="#1e90ff" />
<path d="M26,-267.5 L26,-300" stroke="#1e90ff" />
<path d="M-159,-300 L-159,-307.5" stroke="#dc143c" />
<path d="M-148,-300 L-148,-307.5" stroke="#dc143c" />
<path d="M-137,-300 L-137,-307.5" stroke="#dc143c" />
<path d="M-95,-300 L-95,-307.5" stroke="#dc143c" />
<path d="M-87,-300 L-87,-307.5" stroke="#dc143c" />
<path d="M-46,-300 L-46,-307.5" stroke="#dc143c" />
<path d="M-33,-300 L-33,-307.5" stroke="#dc143c" />
<rect x="-200" y="-300" width="323" height="25" fill="white" stroke="black" />
<rect x="-200" y="-300" width="25.0" height="25" fill="#dc143c" stroke="black" />
<rect x="-167.0" y="-300" width="105.0" height="25" fill="#ffd700" stroke="black" />
<rect x="40.0" y="-300" width="22.0" height="25" fill="#1e90ff" stroke="black" />
<text x="-290" y="-230" font-size="25" fill="black">RL11H</text>
<path d="M-195,-217.5 L-195,-250" stroke="#1e90ff" />
<path d="M-191,-217.5 L-191,-250" stroke="#1e90ff" />
<path d="M-190,-217.5 L-190,-250" stroke="#1e90ff" />
<path d="M-186,-217.5 L-186,-250" stroke="#1e90ff" />
<path d="M-185,-217.5 L-185,-250" stroke="#1e90ff" />
<path d="M-183,-217.5 L-183,-250" stroke="#1e90ff" />
<path d="M-181,-217.5 L-181,-250" stroke="#1e90ff" />
<path d="M-141,-217.5 L-141,-250" stroke="#1e90ff" />
<path d="M-137,-217.5 L-137,-250" stroke="#1e90ff" />
<path d="M-136,-217.5 L-136,-250" stroke="#1e90ff" />
<path d="M-133,-217.5 L-133,-250" stroke="#1e90ff" />
<path d="M-132,-217.5 L-132,-250" stroke="#1e90ff" />
<path d="M-129,-217.5 L-129,-250" stroke="#1e90ff" />
<path d="M-128,-217.5 L-128,-250" stroke="#1e90ff" />
<path d="M-125,-217.5 L-125,-250" stroke="#1e90ff" />
<path d="M-124,-217.5 L-124,-250" stroke="#1e90ff" />
<path d="M-122,-217.5 L-122,-250" stroke="#1e90ff" />
<path d="M-121,-217.5 L-121,-250" stroke="#1e90ff" />
<path d="M-117,-217.5 L-117,-250" stroke="#1e90ff" />
<path d="M-116,-217.5 L-116,-250" stroke="#1e90ff" />
<path d="M-115,-217.5 L-115,-250" stroke="#1e90ff" />
<path d="M-113,-217.5 L-113,-250" stroke="#1e90ff" />
<path d="M-112,-217.5 L-112,-250" stroke="#1e90ff" />
<path d="M-111,-217.5 L-111,-250" stroke="#1e90ff" />
<path d="M-106,-217.5 L-106,-250" stroke="#1e90ff" />
<path d="M-105,-217.5 L-105,-250" stroke="#1e90ff" />
<path d="M-104,-217.5 L-104,-250" stroke="#1e90ff" />
<path d="M-101,-217.5 L-101,-250" stroke="#1e90ff" />
<path d="M-100,-217.5 L-100,-250" stroke="#1e90ff" />
<path d="M-99,-217.5 L-99,-250" stroke="#1e90ff" />
<path d="M-95,-217.5 L-95,-250" stroke="#1e90ff" />
<path d="M-94,-217.5 L-94,-250" stroke="#1e90ff" />
<path d="M-93,-217.5 L-93,-250" stroke="#1e90ff" />
<path d="M-91,-217.5 L-91,-250" stroke="#1e90ff" />
<path d="M-89,-217.5 L-89,-250" stroke="#1e90ff" />
<path d="M-88,-217.5 L-88,-250" stroke="#1e90ff" />
<path d="M-86,-217.5 L-86,-250" stroke="#1e90ff" />
<path d="M-85,-217.5 L-85,-250" stroke="#1e90ff" />
<path d="M-81,-217.5 L-81,-250" stroke="#1e90ff" />
<path d="M-76,-217.5 L-76,-250" stroke="#1e90ff" />
<path d="M-75,-217.5 L-75,-250" stroke="#1e90ff" />
<path d="M-73,-217.5 L-73,-250" stroke="#1e90ff" />
<path d="M-72,-217.5 L-72,-250" stroke="#1e90ff" />
<path d="M-70,-217.5 L-70,-250" stroke="#1e90ff" />
<path d="M-69,-217.5 L-69,-250" stroke="#1e90ff" />
<path d="M-68,-217.5 L-68,-250" stroke="#1e90ff" />
<path d="M-66,-217.5 L-66,-250" stroke="#1e90ff" />
<path d="M-63,-217.5 L-63,-250" stroke="#1e90ff" />
<path d="M-62,-217.5 L-62,-250" stroke="#1e90ff" />
<path d="M-61,-217.5 L-61,-250" stroke="#1e90ff" />
<path d="M-55,-217.5 L-55,-250" stroke="#1e90ff" />
<path d="M-53,-217.5 L-53,-250" stroke="#1e90ff" />
<path d="M-52,-217.5 L-52,-250" stroke="#1e90ff" />
<path d="M-51,-217.5 L-51,-250" stroke="#1e90ff" />
<path d="M-50,-217.5 L-50,-250" stroke="#1e90ff" />
<path d="M-49,-217.5 L-49,-250" stroke="#1e90ff" />
<path d="M-47,-217.5 L-47,-250" stroke="#1e90ff" />
<path d="M-46,-217.5 L-46,-250" stroke="#1e90ff" />
<path d="M-45,-217.5 L-45,-250" stroke="#1e90ff" />
<path d="M-39,-217.5 L-39,-250" stroke="#1e90ff" />
<path d="M85,-217.5 L85,-250" stroke="#1e90ff" />
<path d="M91,-217.5 L91,-250" stroke="#1e90ff" />
<path d="M92,-217.5 L92,-250" stroke="#1e90ff" />
<path d="M108,-217.5 L108,-250" stroke="#1e90ff" />
<path d="M114,-217.5 L114,-250" stroke="#1e90ff" />
<path d="M115,-217.5 L115,-250" stroke="#1e90ff" />
<path d="M-188,-250 L-188,-257.5" stroke="#dc143c" />
<path d="M-147,-250 L-147,-257.5" stroke="#dc143c" />
<path d="M-139,-250 L-139,-257.5" stroke="#dc143c" />
<path d="M-123,-250 L-123,-257.5" stroke="#dc143c" />
<path d="M-118,-250 L-118,-257.5" stroke="#dc143c" />
<path d="M-90,-250 L-90,-257.5" stroke="#dc143c" />
<path d="M-77,-250 L-77,-257.5" stroke="#dc143c" />
<path d="M-57,-250 L-57,-257.5" stroke="#dc143c" />
<path d="M-41,-250 L-41,-257.5" stroke="#dc143c" />
<path d="M-6,-250 L-6,-257.5" stroke="#dc143c" />
<path d="M-2,-250 L-2,-257.5" stroke="#dc143c" />
<path d="M27,-250 L27,-257.5" stroke="#dc143c" />
<path d="M34,-250 L34,-257.5" stroke="#dc143c" />
<path d="M77,-250 L77,-257.5" stroke="#dc143c" />
<path d="M84,-250 L84,-257.5" stroke="#dc143c" />
<rect x="-200" y="-250" width="393" height="25" fill="white" stroke="black" />
<rect x="-200" y="-250" width="50.0" height="25" fill="#dc143c" stroke="black" />
<rect x="-15.0" y="-250" width="93.0" height="25" fill="#ffd700" stroke="black" />
<rect x="143.0" y="-250" width="22.0" height="25" fill="#1e90ff" stroke="black" />
<text x="-290" y="-180" font-size="25" fill="black">RL11I</text>
<path d="M-172,-167.5 L-172,-200" stroke="#1e90ff" />
<path d="M-171,-167.5 L-171,-200" stroke="#1e90ff" />
<path d="M-169,-167.5 L-169,-200" stroke="#1e90ff" />
<path d="M-168,-167.5 L-168,-200" stroke="#1e90ff" />
<path d="M-167,-167.5 L-167,-200" stroke="#1e90ff" />
<path d="M-164,-167.5 L-164,-200" stroke="#1e90ff" />
<path d="M-161,-167.5 L-161,-200" stroke="#1e90ff" />
<path d="M-160,-167.5 L-160,-200" stroke="#1e90ff" />
<path d="M-157,-167.5 L-157,-200" stroke="#1e90ff" />
<path d="M-155,-167.5 L-155,-200" stroke="#1e90ff" />
<path d="M-154,-167.5 L-154,-200" stroke="#1e90ff" />
<path d="M-153,-167.5 L-153,-200" stroke="#1e90ff" />
<path d="M-150,-167.5 L-150,-200" stroke="#1e90ff" />
<path d="M-149,-167.5 L-149,-200" stroke="#1e90ff" />
<path d="M-145,-167.5 L-145,-200" stroke="#1e90ff" />
<path d="M-144,-167.5 L-144,-200" stroke="#1e90ff" />
<path d="M-141,-167.5 L-141,-200" stroke="#1e90ff" />
<path d="M-139,-167.5 L-139,-200" stroke="#1e90ff" />
<path d="M-137,-167.5 L-137,-200" stroke="#1e90ff" />
<path d="M-134,-167.5 L-134,-200" stroke="#1e90ff" />
<path d="M-129,-167.5 L-129,-200" stroke="#1e90ff" />
<path d="M-128,-167.5 L-128,-200" stroke="#1e90ff" />
<path d="M-127,-167.5 L-127,-200" stroke="#1e90ff" />
<path d="M-124,-167.5 L-124,-200" stroke="#1e90ff" />
<path d="M-122,-167.5 L-122,-200" stroke="#1e90ff" />
<path d="M-121,-167.5 L-121,-200" stroke="#1e90ff" />
<path d="M-117,-167.5 L-117,-200" stroke="#1e90ff" />
<path d="M-114,-167.5 L-114,-200" stroke="#1e90ff" />
<path d="M-113,-167.5 L-113,-200" stroke="#1e90ff" />
<path d="M19,-167.5 L19,-200" stroke="#1e90ff" />
<path d="M25,-167.5 L25,-200" stroke="#1e90ff" />
<path d="M31,-167.5 L31,-200" stroke="#1e90ff" />
<path d="M35,-167.5 L35,-200" stroke="#1e90ff" />
<path d="M40,-167.5 L40,-200" stroke="#1e90ff" />
<path d="M41,-167.5 L41,-200" stroke="#1e90ff" />
<path d="M42,-167.5 L42,-200" stroke="#1e90ff" />
<path d="M45,-167.5 L45,-200" stroke="#1e90ff" />
<path d="M-170,-200 L-170,-207.5" stroke="#dc143c" />
<path d="M-163,-200 L-163,-207.5" stroke="#dc143c" />
<path d="M-130,-200 L-130,-207.5" stroke="#dc143c" />
<path d="M-81,-200 L-81,-207.5" stroke="#dc143c" />
<path d="M-77,-200 L-77,-207.5" stroke="#dc143c" />
<path d="M-46,-200 L-46,-207.5" stroke="#dc143c" />
<path d="M-39,-200 L-39,-207.5" stroke="#dc143c" />
<path d="M-30,-200 L-30,-207.5" stroke="#dc143c" />
<path d="M-5,-200 L-5,-207.5" stroke="#dc143c" />
<path d="M2,-200 L2,-207.5" stroke="#dc143c" />
<path d="M11,-200 L11,-207.5" stroke="#dc143c" />
<rect x="-200" y="-200" width="319" height="25" fill="white" stroke="black" />
<rect x="-200" y="-200" width="22.0" height="25" fill="#dc143c" stroke="black" />
<rect x="-90.0" y="-200" width="95.0" height="25" fill="#ffd700" stroke="black" />
<rect x="71.0" y="-200" width="22.0" height="25" fill="#1e90ff" stroke="black" />
<text x="-290" y="-130" font-size="25" fill="black">RL11J</text>
<path d="M-161,-117.5 L-161,-150" stroke="#1e90ff" />
<path d="M-157,-117.5 L-157,-150" stroke="#1e90ff" />
<path d="M-58,-117.5 L-58,-150" stroke="#1e90ff" />
<path d="M-57,-117.5 L-57,-150" stroke="#1e90ff" />
<path d="M-52,-117.5 L-52,-150" stroke="#1e90ff" />
<path d="M-50,-117.5 L-50,-150" stroke="#1e90ff" />
<path d="M-154,-150 L-154,-157.5" stroke="#dc143c" />
<path d="M-145,-150 L-145,-157.5" stroke="#dc143c" />
<path d="M-83,-150 L-83,-157.5" stroke="#dc143c" />
<path d="M-63,-150 L-63,-157.5" stroke="#dc143c" />
<path d="M-49,-150 L-49,-157.5" stroke="#dc143c" />
<rect x="-200" y="-150" width="199" height="25" fill="white" stroke="black" />
<rect x="-200" y="-150" width="16.0" height="25" fill="#dc143c" stroke="black" />
<rect x="-175.0" y="-150" width="95.0" height="25" fill="#ffd700" stroke="black" />
<rect x="-38.0" y="-150" width="22.0" height="25" fill="#1e90ff" stroke="black" />
<text x="-290" y="-80" font-size="25" fill="black">RL11K</text>
<path d="M-162,-100 L-162,-107.5" stroke="#dc143c" />
<path d="M-154,-100 L-154,-107.5" stroke="#dc143c" />
<path d="M-106,-100 L-106,-107.5" stroke="#dc143c" />
<path d="M-74,-100 L-74,-107.5" stroke="#dc143c" />
<path d="M-65,-100 L-65,-107.5" stroke="#dc143c" />
<rect x="-200" y="-100" width="224" height="25" fill="white" stroke="black" />
<rect x="-200" y="-100" width="19.0" height="25" fill="#dc143c" stroke="black" />
<rect x="-175.0" y="-100" width="104.0" height="25" fill="#ffd700" stroke="black" />
<rect x="-13.0" y="-100" width="19.0" height="25" fill="#1e90ff" stroke="black" />
<text x="-290" y="-30" font-size="25" fill="black">RL11L</text>
<path d="M-49,-17.5 L-49,-50" stroke="#1e90ff" />
<path d="M-48,-17.5 L-48,-50" stroke="#1e90ff" />
<path d="M-47,-17.5 L-47,-50" stroke="#1e90ff" />
<path d="M-45,-17.5 L-45,-50" stroke="#1e90ff" />
<path d="M-42,-17.5 L-42,-50" stroke="#1e90ff" />
<path d="M-41,-17.5 L-41,-50" stroke="#1e90ff" />
<path d="M-40,-17.5 L-40,-50" stroke="#1e90ff" />
<path d="M-33,-17.5 L-33,-50" stroke="#1e90ff" />
<path d="M-173,-50 L-173,-57.5" stroke="#dc143c" />
<path d="M-163,-50 L-163,-57.5" stroke="#dc143c" />
<path d="M-154,-50 L-154,-57.5" stroke="#dc143c" />
<path d="M-145,-50 L-145,-57.5" stroke="#dc143c" />
<path d="M-105,-50 L-105,-57.5" stroke="#dc143c" />
<path d="M-98,-50 L-98,-57.5" stroke="#dc143c" />
<path d="M-71,-50 L-71,-57.5" stroke="#dc143c" />
<path d="M-35,-50 L-35,-57.5" stroke="#dc143c" />
<path d="M-30,-50 L-30,-57.5" stroke="#dc143c" />
<rect x="-200" y="-50" width="230" height="25" fill="white" stroke="black" />
<rect x="-200" y="-50" width="18.0" height="25" fill="#dc143c" stroke="black" />
<rect x="-163.0" y="-50" width="95.0" height="25" fill="#ffd700" stroke="black" />
<rect x="-17.0" y="-50" width="19.0" height="25" fill="#1e90ff" stroke="black" />
<text x="-290" y="20" font-size="25" fill="black">RL11M</text>
<path d="M-61,32.5 L-61,0" stroke="#1e90ff" />
<path d="M-60,32.5 L-60,0" stroke="#1e90ff" />
<path d="M-59,32.5 L-59,0" stroke="#1e90ff" />
<path d="M-55,32.5 L-55,0" stroke="#1e90ff" />
<path d="M-54,32.5 L-54,0" stroke="#1e90ff" />
<path d="M-53,32.5 L-53,0" stroke="#1e90ff" />
<path d="M-50,32.5 L-50,0" stroke="#1e90ff" />
<path d="M-49,32.5 L-49,0" stroke="#1e90ff" />
<path d="M-45,32.5 L-45,0" stroke="#1e90ff" />
<path d="M-44,32.5 L-44,0" stroke="#1e90ff" />
<path d="M-40,32.5 L-40,0" stroke="#1e90ff" />
<path d="M-39,32.5 L-39,0" stroke="#1e90ff" />
<path d="M-173,0 L-173,-7.5" stroke="#dc143c" />
<path d="M-161,0 L-161,-7.5" stroke="#dc143c" />
<path d="M-155,0 L-155,-7.5" stroke="#dc143c" />
<path d="M-106,0 L-106,-7.5" stroke="#dc143c" />
<path d="M-99,0 L-99,-7.5" stroke="#dc143c" />
<path d="M-91,0 L-91,-7.5" stroke="#dc143c" />
<path d="M-10,0 L-10,-7.5" stroke="#dc143c" />
<rect x="-200" y="0" width="229" height="25" fill="white" stroke="black" />
<rect x="-200" y="0" width="30.0" height="25" fill="#dc143c" stroke="black" />
<rect x="-164.0" y="0" width="94.0" height="25" fill="#ffd700" stroke="black" />
<rect x="3.0" y="0" width="19.0" height="25" fill="#1e90ff" stroke="black" />
<text x="-290" y="70" font-size="25" fill="black">RL11N</text>
<path d="M-130,82.5 L-130,50" stroke="#1e90ff" />
<path d="M-128,82.5 L-128,50" stroke="#1e90ff" />
<path d="M-161,50 L-161,42.5" stroke="#dc143c" />
<path d="M-158,50 L-158,42.5" stroke="#dc143c" />
<rect x="-200" y="50" width="127" height="25" fill="white" stroke="black" />
<rect x="-112.0" y="50" width="22.0" height="25" fill="#1e90ff" stroke="black" />
<text x="-290" y="120" font-size="25" fill="black">RL11O</text>
<path d="M-162,132.5 L-162,100" stroke="#1e90ff" />
<path d="M-160,132.5 L-160,100" stroke="#1e90ff" />
<path d="M-151,132.5 L-151,100" stroke="#1e90ff" />
<path d="M-150,132.5 L-150,100" stroke="#1e90ff" />
<path d="M-61,132.5 L-61,100" stroke="#1e90ff" />
<path d="M-59,132.5 L-59,100" stroke="#1e90ff" />
<path d="M-57,132.5 L-57,100" stroke="#1e90ff" />
<path d="M-56,132.5 L-56,100" stroke="#1e90ff" />
<path d="M-54,132.5 L-54,100" stroke="#1e90ff" />
<path d="M-51,132.5 L-51,100" stroke="#1e90ff" />
<path d="M-50,132.5 L-50,100" stroke="#1e90ff" />
<path d="M-49,132.5 L-49,100" stroke="#1e90ff" />
<path d="M-44,132.5 L-44,100" stroke="#1e90ff" />
<path d="M-43,132.5 L-43,100" stroke="#1e90ff" />
<path d="M-41,132.5 L-41,100" stroke="#1e90ff" />
<path d="M-37,132.5 L-37,100" stroke="#1e90ff" />
<path d="M-36,132.5 L-36,100" stroke="#1e90ff" />
<path d="M-170,100 L-170,92.5" stroke="#dc143c" />
<path d="M-156,100 L-156,92.5" stroke="#dc143c" />
<path d="M-136,100 L-136,92.5" stroke="#dc143c" />
<path d="M-105,100 L-105,92.5" stroke="#dc143c" />
<path d="M-96,100 L-96,92.5" stroke="#dc143c" />
<path d="M-71,100 L-71,92.5" stroke="#dc143c" />
<path d="M20,100 L20,92.5" stroke="#dc143c" />
<rect x="-200" y="100" width="223" height="25" fill="white" stroke="black" />
<rect x="-200" y="100" width="28.0" height="25" fill="#dc143c" stroke="black" />
<rect x="-168.0" y="100" width="100.0" height="25" fill="#ffd700" stroke="black" />
<rect x="-18.0" y="100" width="22.0" height="25" fill="#1e90ff" stroke="black" />
<text x="-290" y="170" font-size="25" fill="black">RL11P</text>
<path d="M-46,182.5 L-46,150" stroke="#1e90ff" />
<path d="M-45,182.5 L-45,150" stroke="#1e90ff" />
<path d="M-39,182.5 L-39,150" stroke="#1e90ff" />
<path d="M-35,182.5 L-35,150" stroke="#1e90ff" />
<path d="M-28,182.5 L-28,150" stroke="#1e90ff" />
<path d="M-27,182.5 L-27,150" stroke="#1e90ff" />
<path d="M-25,182.5 L-25,150" stroke="#1e90ff" />
<path d="M-17,182.5 L-17,150" stroke="#1e90ff" />
<path d="M-16,182.5 L-16,150" stroke="#1e90ff" />
<path d="M-9,182.5 L-9,150" stroke="#1e90ff" />
<path d="M-8,182.5 L-8,150" stroke="#1e90ff" />
<path d="M-7,182.5 L-7,150" stroke="#1e90ff" />
<path d="M-4,182.5 L-4,150" stroke="#1e90ff" />
<path d="M-3,182.5 L-3,150" stroke="#1e90ff" />
<path d="M-2,182.5 L-2,150" stroke="#1e90ff" />
<path d="M-148,150 L-148,142.5" stroke="#dc143c" />
<path d="M-112,150 L-112,142.5" stroke="#dc143c" />
<path d="M-102,150 L-102,142.5" stroke="#dc143c" />
<path d="M-95,150 L-95,142.5" stroke="#dc143c" />
<path d="M-71,150 L-71,142.5" stroke="#dc143c" />
<path d="M10,150 L10,142.5" stroke="#dc143c" />
<rect x="-200" y="150" width="259" height="25" fill="white" stroke="black" />
<rect x="-200" y="150" width="22.0" height="25" fill="#dc143c" stroke="black" />
<rect x="-164.0" y="150" width="96.0" height="25" fill="#ffd700" stroke="black" />
<rect x="26.0" y="150" width="22.0" height="25" fill="#1e90ff" stroke="black" />
<text x="-290" y="220" font-size="25" fill="black">RL11Q</text>
<path d="M-59,232.5 L-59,200" stroke="#1e90ff" />
<path d="M-53,232.5 L-53,200" stroke="#1e90ff" />
<path d="M-52,232.5 L-52,200" stroke="#1e90ff" />
<path d="M-49,232.5 L-49,200" stroke="#1e90ff" />
<path d="M-48,232.5 L-48,200" stroke="#1e90ff" />
<path d="M-45,232.5 L-45,200" stroke="#1e90ff" />
<path d="M-43,232.5 L-43,200" stroke="#1e90ff" />
<path d="M-174,200 L-174,192.5" stroke="#dc143c" />
<path d="M-133,200 L-133,192.5" stroke="#dc143c" />
<path d="M-121,200 L-121,192.5" stroke="#dc143c" />
<path d="M-74,200 L-74,192.5" stroke="#dc143c" />
<rect x="-200" y="200" width="205" height="25" fill="white" stroke="black" />
<rect x="-200" y="200" width="22.0" height="25" fill="#dc143c" stroke="black" />
<rect x="-174.0" y="200" width="103.0" height="25" fill="#ffd700" stroke="black" />
<rect x="-24.0" y="200" width="22.0" height="25" fill="#1e90ff" stroke="black" />
<text x="-290" y="270" font-size="25" fill="black">RL11R</text>
<path d="M-187,250 L-187,242.5" stroke="#dc143c" />
<path d="M-164,250 L-164,242.5" stroke="#dc143c" />
<path d="M-154,250 L-154,242.5" stroke="#dc143c" />
<path d="M-115,250 L-115,242.5" stroke="#dc143c" />
<path d="M-110,250 L-110,242.5" stroke="#dc143c" />
<rect x="-200" y="250" width="206" height="25" fill="white" stroke="black" />
<rect x="-200" y="250" width="25.0" height="25" fill="#dc143c" stroke="black" />
<rect x="-170.0" y="250" width="97.0" height="25" fill="#ffd700" stroke="black" />
<rect x="-46.0" y="250" width="19.0" height="25" fill="#1e90ff" stroke="black" />
<text x="-290" y="320" font-size="25" fill="black">RL11S</text>
<path d="M-162,332.5 L-162,300" stroke="#1e90ff" />
<path d="M-160,332.5 L-160,300" stroke="#1e90ff" />
<path d="M-159,332.5 L-159,300" stroke="#1e90ff" />
<path d="M-154,332.5 L-154,300" stroke="#1e90ff" />
<path d="M-150,332.5 L-150,300" stroke="#1e90ff" />
<path d="M-146,332.5 L-146,300" stroke="#1e90ff" />
<path d="M-129,332.5 L-129,300" stroke="#1e90ff" />
<path d="M-127,332.5 L-127,300" stroke="#1e90ff" />
<path d="M-123,332.5 L-123,300" stroke="#1e90ff" />
<path d="M-121,332.5 L-121,300" stroke="#1e90ff" />
<path d="M-106,332.5 L-106,300" stroke="#1e90ff" />
<path d="M-101,332.5 L-101,300" stroke="#1e90ff" />
<path d="M-100,332.5 L-100,300" stroke="#1e90ff" />
<path d="M-98,332.5 L-98,300" stroke="#1e90ff" />
<path d="M-80,332.5 L-80,300" stroke="#1e90ff" />
<path d="M-74,332.5 L-74,300" stroke="#1e90ff" />
<path d="M-70,332.5 L-70,300" stroke="#1e90ff" />
<path d="M-69,332.5 L-69,300" stroke="#1e90ff" />
<path d="M-68,332.5 L-68,300" stroke="#1e90ff" />
<path d="M-67,332.5 L-67,300" stroke="#1e90ff" />
<path d="M-65,332.5 L-65,300" stroke="#1e90ff" />
<path d="M-63,332.5 L-63,300" stroke="#1e90ff" />
<path d="M-62,332.5 L-62,300" stroke="#1e90ff" />
<path d="M-56,332.5 L-56,300" stroke="#1e90ff" />
<path d="M-54,332.5 L-54,300" stroke="#1e90ff" />
<path d="M-53,332.5 L-53,300" stroke="#1e90ff" />
<path d="M-51,332.5 L-51,300" stroke="#1e90ff" />
<path d="M-49,332.5 L-49,300" stroke="#1e90ff" />
<path d="M-48,332.5 L-48,300" stroke="#1e90ff" />
<path d="M-46,332.5 L-46,300" stroke="#1e90ff" />
<path d="M-44,332.5 L-44,300" stroke="#1e90ff" />
<path d="M-41,332.5 L-41,300" stroke="#1e90ff" />
<path d="M-40,332.5 L-40,300" stroke="#1e90ff" />
<path d="M-39,332.5 L-39,300" stroke="#1e90ff" />
<path d="M-37,332.5 L-37,300" stroke="#1e90ff" />
<path d="M-33,332.5 L-33,300" stroke="#1e90ff" />
<path d="M-32,332.5 L-32,300" stroke="#1e90ff" />
<path d="M-31,332.5 L-31,300" stroke="#1e90ff" />
<path d="M-30,332.5 L-30,300" stroke="#1e90ff" />
<path d="M-29,332.5 L-29,300" stroke="#1e90ff" />
<path d="M-27,332.5 L-27,300" stroke="#1e90ff" />
<path d="M-25,332.5 L-25,300" stroke="#1e90ff" />
<path d="M-23,332.5 L-23,300" stroke="#1e90ff" />
<path d="M-19,332.5 L-19,300" stroke="#1e90ff" />
<path d="M-18,332.5 L-18,300" stroke="#1e90ff" />
<path d="M-17,332.5 L-17,300" stroke="#1e90ff" />
<path d="M-14,332.5 L-14,300" stroke="#1e90ff" />
<path d="M-13,332.5 L-13,300" stroke="#1e90ff" />
<path d="M-11,332.5 L-11,300" stroke="#1e90ff" />
<path d="M-10,332.5 L-10,300" stroke="#1e90ff" />
<path d="M-7,332.5 L-7,300" stroke="#1e90ff" />
<path d="M-6,332.5 L-6,300" stroke="#1e90ff" />
<path d="M-5,332.5 L-5,300" stroke="#1e90ff" />
<path d="M-2,332.5 L-2,300" stroke="#1e90ff" />
<path d="M-1,332.5 L-1,300" stroke="#1e90ff" />
<path d="M0,332.5 L0,300" stroke="#1e90ff" />
<path d="M3,332.5 L3,300" stroke="#1e90ff" />
<path d="M4,332.5 L4,300" stroke="#1e90ff" />
<path d="M6,332.5 L6,300" stroke="#1e90ff" />
<path d="M9,332.5 L9,300" stroke="#1e90ff" />
<path d="M10,332.5 L10,300" stroke="#1e90ff" />
<path d="M15,332.5 L15,300" stroke="#1e90ff" />
<path d="M25,332.5 L25,300" stroke="#1e90ff" />
<path d="M26,332.5 L26,300" stroke="#1e90ff" />
<path d="M30,332.5 L30,300" stroke="#1e90ff" />
<path d="M31,332.5 L31,300" stroke="#1e90ff" />
<path d="M35,332.5 L35,300" stroke="#1e90ff" />
<path d="M36,332.5 L36,300" stroke="#1e90ff" />
<path d="M41,332.5 L41,300" stroke="#1e90ff" />
<path d="M42,332.5 L42,300" stroke="#1e90ff" />
<path d="M44,332.5 L44,300" stroke="#1e90ff" />
<path d="M45,332.5 L45,300" stroke="#1e90ff" />
<path d="M46,332.5 L46,300" stroke="#1e90ff" />
<path d="M50,332.5 L50,300" stroke="#1e90ff" />
<path d="M52,332.5 L52,300" stroke="#1e90ff" />
<path d="M54,332.5 L54,300" stroke="#1e90ff" />
<path d="M56,332.5 L56,300" stroke="#1e90ff" />
<path d="M57,332.5 L57,300" stroke="#1e90ff" />
<path d="M58,332.5 L58,300" stroke="#1e90ff" />
<path d="M60,332.5 L60,300" stroke="#1e90ff" />
<path d="M61,332.5 L61,300" stroke="#1e90ff" />
<path d="M62,332.5 L62,300" stroke="#1e90ff" />
<path d="M65,332.5 L65,300" stroke="#1e90ff" />
<path d="M68,332.5 L68,300" stroke="#1e90ff" />
<path d="M69,332.5 L69,300" stroke="#1e90ff" />
<path d="M72,332.5 L72,300" stroke="#1e90ff" />
<path d="M73,332.5 L73,300" stroke="#1e90ff" />
<path d="M78,332.5 L78,300" stroke="#1e90ff" />
<path d="M79,332.5 L79,300" stroke="#1e90ff" />
<path d="M81,332.5 L81,300" stroke="#1e90ff" />
<path d="M85,332.5 L85,300" stroke="#1e90ff" />
<path d="M86,332.5 L86,300" stroke="#1e90ff" />
<path d="M88,332.5 L88,300" stroke="#1e90ff" />
<path d="M89,332.5 L89,300" stroke="#1e90ff" />
<path d="M90,332.5 L90,300" stroke="#1e90ff" />
<path d="M95,332.5 L95,300" stroke="#1e90ff" />
<path d="M96,332.5 L96,300" stroke="#1e90ff" />
<path d="M103,332.5 L103,300" stroke="#1e90ff" />
<path d="M105,332.5 L105,300" stroke="#1e90ff" />
<path d="M106,332.5 L106,300" stroke="#1e90ff" />
<path d="M107,332.5 L107,300" stroke="#1e90ff" />
<path d="M110,332.5 L110,300" stroke="#1e90ff" />
<path d="M111,332.5 L111,300" stroke="#1e90ff" />
<path d="M114,332.5 L114,300" stroke="#1e90ff" />
<path d="M115,332.5 L115,300" stroke="#1e90ff" />
<path d="M117,332.5 L117,300" stroke="#1e90ff" />
<path d="M119,332.5 L119,300" stroke="#1e90ff" />
<path d="M120,332.5 L120,300" stroke="#1e90ff" />
<path d="M127,332.5 L127,300" stroke="#1e90ff" />
<path d="M128,332.5 L128,300" stroke="#1e90ff" />
<path d="M129,332.5 L129,300" stroke="#1e90ff" />
<path d="M132,332.5 L132,300" stroke="#1e90ff" />
<path d="M133,332.5 L133,300" stroke="#1e90ff" />
<path d="M138,332.5 L138,300" stroke="#1e90ff" />
<path d="M141,332.5 L141,300" stroke="#1e90ff" />
<path d="M142,332.5 L142,300" stroke="#1e90ff" />
<path d="M143,332.5 L143,300" stroke="#1e90ff" />
<path d="M147,332.5 L147,300" stroke="#1e90ff" />
<path d="M148,332.5 L148,300" stroke="#1e90ff" />
<path d="M151,332.5 L151,300" stroke="#1e90ff" />
<path d="M152,332.5 L152,300" stroke="#1e90ff" />
<path d="M153,332.5 L153,300" stroke="#1e90ff" />
<path d="M155,332.5 L155,300" stroke="#1e90ff" />
<path d="M156,332.5 L156,300" stroke="#1e90ff" />
<path d="M160,332.5 L160,300" stroke="#1e90ff" />
<path d="M161,332.5 L161,300" stroke="#1e90ff" />
<path d="M164,332.5 L164,300" stroke="#1e90ff" />
<path d="M165,332.5 L165,300" stroke="#1e90ff" />
<path d="M166,332.5 L166,300" stroke="#1e90ff" />
<path d="M167,332.5 L167,300" stroke="#1e90ff" />
<path d="M169,332.5 L169,300" stroke="#1e90ff" />
<path d="M170,332.5 L170,300" stroke="#1e90ff" />
<path d="M171,332.5 L171,300" stroke="#1e90ff" />
<path d="M174,332.5 L174,300" stroke="#1e90ff" />
<path d="M175,332.5 L175,300" stroke="#1e90ff" />
<path d="M179,332.5 L179,300" stroke="#1e90ff" />
<path d="M180,332.5 L180,300" stroke="#1e90ff" />
<path d="M181,332.5 L181,300" stroke="#1e90ff" />
<path d="M182,332.5 L182,300" stroke="#1e90ff" />
<path d="M183,332.5 L183,300" stroke="#1e90ff" />
<path d="M184,332.5 L184,300" stroke="#1e90ff" />
<path d="M186,332.5 L186,300" stroke="#1e90ff" />
<path d="M192,332.5 L192,300" stroke="#1e90ff" />
<path d="M194,332.5 L194,300" stroke="#1e90ff" />
<path d="M195,332.5 L195,300" stroke="#1e90ff" />
<path d="M196,332.5 L196,300" stroke="#1e90ff" />
<path d="M197,332.5 L197,300" stroke="#1e90ff" />
<path d="M200,332.5 L200,300" stroke="#1e90ff" />
<path d="M201,332.5 L201,300" stroke="#1e90ff" />
<path d="M202,332.5 L202,300" stroke="#1e90ff" />
<path d="M207,332.5 L207,300" stroke="#1e90ff" />
<path d="M209,332.5 L209,300" stroke="#1e90ff" />
<path d="M211,332.5 L211,300" stroke="#1e90ff" />
<path d="M212,332.5 L212,300" stroke="#1e90ff" />
<path d="M213,332.5 L213,300" stroke="#1e90ff" />
<path d="M218,332.5 L218,300" stroke="#1e90ff" />
<path d="M-152,300 L-152,292.5" stroke="#dc143c" />
<path d="M-148,300 L-148,292.5" stroke="#dc143c" />
<path d="M-137,300 L-137,292.5" stroke="#dc143c" />
<path d="M-110,300 L-110,292.5" stroke="#dc143c" />
<path d="M-103,300 L-103,292.5" stroke="#dc143c" />
<path d="M-76,300 L-76,292.5" stroke="#dc143c" />
<path d="M-64,300 L-64,292.5" stroke="#dc143c" />
<path d="M-21,300 L-21,292.5" stroke="#dc143c" />
<path d="M-12,300 L-12,292.5" stroke="#dc143c" />
<path d="M71,300 L71,292.5" stroke="#dc143c" />
<path d="M216,300 L216,292.5" stroke="#dc143c" />
<rect x="-200" y="300" width="482" height="25" fill="white" stroke="black" />
<rect x="-200" y="300" width="33.0" height="25" fill="#dc143c" stroke="black" />
<rect x="-170.0" y="300" width="97.0" height="25" fill="#ffd700" stroke="black" />
<rect x="233.0" y="300" width="22.0" height="25" fill="#1e90ff" stroke="black" />
<text x="-290" y="370" font-size="25" fill="black">RL11T</text>
<path d="M-173,382.5 L-173,350" stroke="#1e90ff" />
<path d="M-169,382.5 L-169,350" stroke="#1e90ff" />
<path d="M-168,382.5 L-168,350" stroke="#1e90ff" />
<path d="M-166,382.5 L-166,350" stroke="#1e90ff" />
<path d="M-165,382.5 L-165,350" stroke="#1e90ff" />
<path d="M-164,382.5 L-164,350" stroke="#1e90ff" />
<path d="M-163,382.5 L-163,350" stroke="#1e90ff" />
<path d="M-160,382.5 L-160,350" stroke="#1e90ff" />
<path d="M-159,382.5 L-159,350" stroke="#1e90ff" />
<path d="M-158,382.5 L-158,350" stroke="#1e90ff" />
<path d="M-154,382.5 L-154,350" stroke="#1e90ff" />
<path d="M-153,382.5 L-153,350" stroke="#1e90ff" />
<path d="M-150,382.5 L-150,350" stroke="#1e90ff" />
<path d="M-149,382.5 L-149,350" stroke="#1e90ff" />
<path d="M-147,382.5 L-147,350" stroke="#1e90ff" />
<path d="M-146,382.5 L-146,350" stroke="#1e90ff" />
<path d="M-143,382.5 L-143,350" stroke="#1e90ff" />
<path d="M-142,382.5 L-142,350" stroke="#1e90ff" />
<path d="M-140,382.5 L-140,350" stroke="#1e90ff" />
<path d="M-138,382.5 L-138,350" stroke="#1e90ff" />
<path d="M-137,382.5 L-137,350" stroke="#1e90ff" />
<path d="M-133,382.5 L-133,350" stroke="#1e90ff" />
<path d="M-131,382.5 L-131,350" stroke="#1e90ff" />
<path d="M-130,382.5 L-130,350" stroke="#1e90ff" />
<path d="M-128,382.5 L-128,350" stroke="#1e90ff" />
<path d="M-124,382.5 L-124,350" stroke="#1e90ff" />
<path d="M-123,382.5 L-123,350" stroke="#1e90ff" />
<path d="M-122,382.5 L-122,350" stroke="#1e90ff" />
<path d="M-121,382.5 L-121,350" stroke="#1e90ff" />
<path d="M-119,382.5 L-119,350" stroke="#1e90ff" />
<path d="M-118,382.5 L-118,350" stroke="#1e90ff" />
<path d="M-117,382.5 L-117,350" stroke="#1e90ff" />
<path d="M-116,382.5 L-116,350" stroke="#1e90ff" />
<path d="M-115,382.5 L-115,350" stroke="#1e90ff" />
<path d="M-114,382.5 L-114,350" stroke="#1e90ff" />
<path d="M-113,382.5 L-113,350" stroke="#1e90ff" />
<path d="M-111,382.5 L-111,350" stroke="#1e90ff" />
<path d="M-108,382.5 L-108,350" stroke="#1e90ff" />
<path d="M-106,382.5 L-106,350" stroke="#1e90ff" />
<path d="M-104,382.5 L-104,350" stroke="#1e90ff" />
<path d="M-103,382.5 L-103,350" stroke="#1e90ff" />
<path d="M-102,382.5 L-102,350" stroke="#1e90ff" />
<path d="M-101,382.5 L-101,350" stroke="#1e90ff" />
<path d="M-100,382.5 L-100,350" stroke="#1e90ff" />
<path d="M-97,382.5 L-97,350" stroke="#1e90ff" />
<path d="M-93,382.5 L-93,350" stroke="#1e90ff" />
<path d="M-92,382.5 L-92,350" stroke="#1e90ff" />
<path d="M-91,382.5 L-91,350" stroke="#1e90ff" />
<path d="M-90,382.5 L-90,350" stroke="#1e90ff" />
<path d="M-88,382.5 L-88,350" stroke="#1e90ff" />
<path d="M-86,382.5 L-86,350" stroke="#1e90ff" />
<path d="M-85,382.5 L-85,350" stroke="#1e90ff" />
<path d="M-82,382.5 L-82,350" stroke="#1e90ff" />
<path d="M-81,382.5 L-81,350" stroke="#1e90ff" />
<path d="M-78,382.5 L-78,350" stroke="#1e90ff" />
<path d="M-75,382.5 L-75,350" stroke="#1e90ff" />
<path d="M-71,382.5 L-71,350" stroke="#1e90ff" />
<path d="M-70,382.5 L-70,350" stroke="#1e90ff" />
<path d="M-68,382.5 L-68,350" stroke="#1e90ff" />
<path d="M-67,382.5 L-67,350" stroke="#1e90ff" />
<path d="M-64,382.5 L-64,350" stroke="#1e90ff" />
<path d="M-63,382.5 L-63,350" stroke="#1e90ff" />
<path d="M-60,382.5 L-60,350" stroke="#1e90ff" />
<path d="M-59,382.5 L-59,350" stroke="#1e90ff" />
<path d="M-58,382.5 L-58,350" stroke="#1e90ff" />
<path d="M-55,382.5 L-55,350" stroke="#1e90ff" />
<path d="M-54,382.5 L-54,350" stroke="#1e90ff" />
<path d="M-53,382.5 L-53,350" stroke="#1e90ff" />
<path d="M-49,382.5 L-49,350" stroke="#1e90ff" />
<path d="M-48,382.5 L-48,350" stroke="#1e90ff" />
<path d="M-45,382.5 L-45,350" stroke="#1e90ff" />
<path d="M-44,382.5 L-44,350" stroke="#1e90ff" />
<path d="M-41,382.5 L-41,350" stroke="#1e90ff" />
<path d="M-40,382.5 L-40,350" stroke="#1e90ff" />
<path d="M-39,382.5 L-39,350" stroke="#1e90ff" />
<path d="M-38,382.5 L-38,350" stroke="#1e90ff" />
<path d="M-36,382.5 L-36,350" stroke="#1e90ff" />
<path d="M-35,382.5 L-35,350" stroke="#1e90ff" />
<path d="M-34,382.5 L-34,350" stroke="#1e90ff" />
<path d="M-27,382.5 L-27,350" stroke="#1e90ff" />
<path d="M20,382.5 L20,350" stroke="#1e90ff" />
<path d="M21,382.5 L21,350" stroke="#1e90ff" />
<path d="M23,382.5 L23,350" stroke="#1e90ff" />
<path d="M80,382.5 L80,350" stroke="#1e90ff" />
<path d="M84,382.5 L84,350" stroke="#1e90ff" />
<path d="M92,382.5 L92,350" stroke="#1e90ff" />
<path d="M93,382.5 L93,350" stroke="#1e90ff" />
<path d="M94,382.5 L94,350" stroke="#1e90ff" />
<path d="M98,382.5 L98,350" stroke="#1e90ff" />
<path d="M99,382.5 L99,350" stroke="#1e90ff" />
<path d="M100,382.5 L100,350" stroke="#1e90ff" />
<path d="M101,382.5 L101,350" stroke="#1e90ff" />
<path d="M102,382.5 L102,350" stroke="#1e90ff" />
<path d="M-172,350 L-172,342.5" stroke="#dc143c" />
<path d="M-162,350 L-162,342.5" stroke="#dc143c" />
<path d="M-148,350 L-148,342.5" stroke="#dc143c" />
<path d="M-135,350 L-135,342.5" stroke="#dc143c" />
<path d="M-125,350 L-125,342.5" stroke="#dc143c" />
<path d="M-99,350 L-99,342.5" stroke="#dc143c" />
<path d="M-80,350 L-80,342.5" stroke="#dc143c" />
<path d="M-72,350 L-72,342.5" stroke="#dc143c" />
<path d="M-57,350 L-57,342.5" stroke="#dc143c" />
<path d="M-50,350 L-50,342.5" stroke="#dc143c" />
<path d="M-46,350 L-46,342.5" stroke="#dc143c" />
<path d="M-42,350 L-42,342.5" stroke="#dc143c" />
<path d="M-22,350 L-22,342.5" stroke="#dc143c" />
<path d="M-14,350 L-14,342.5" stroke="#dc143c" />
<path d="M-9,350 L-9,342.5" stroke="#dc143c" />
<path d="M7,350 L7,342.5" stroke="#dc143c" />
<path d="M36,350 L36,342.5" stroke="#dc143c" />
<path d="M46,350 L46,342.5" stroke="#dc143c" />
<path d="M50,350 L50,342.5" stroke="#dc143c" />
<path d="M77,350 L77,342.5" stroke="#dc143c" />
<rect x="-200" y="350" width="377" height="25" fill="white" stroke="black" />
<rect x="-200" y="350" width="27.0" height="25" fill="#dc143c" stroke="black" />
<rect x="-40.0" y="350" width="113.0" height="25" fill="#ffd700" stroke="black" />
<rect x="112.0" y="350" width="22.0" height="25" fill="#1e90ff" stroke="black" />
</svg>