<?xml version="1.0" encoding="UTF-8"?>
<svg xmlns="http://www.w3.org/2000/svg" xmlns:xlink="http://www.w3.org/1999/xlink"
     width="800" height="1400" viewBox="-400.0 -700.0 800 1400">
<defs>
</defs>
<text x="-290" y="-650" font-size="25" fill="black">macacine_betaherpesvirus_3</text>
<text x="-290" y="-580" font-size="25" fill="black">RL11A</text>
<path d="M-54,-567.5 L-54,-600" stroke="#1e90ff" />
<path d="M-49,-567.5 L-49,-600" stroke="#1e90ff" />
<path d="M-46,-567.5 L-46,-600" stroke="#1e90ff" />
<path d="M-44,-567.5 L-44,-600" stroke="#1e90ff" />
<path d="M-40,-567.5 L-40,-600" stroke="#1e90ff" />
<path d="M-171,-600 L-171,-607.5" stroke="#dc143c" />
<path d="M-163,-600 L-163,-607.5" stroke="#dc143c" />
<path d="M-152,-600 L-152,-607.5" stroke="#dc143c" />
<path d="M-146,-600 L-146,-607.5" stroke="#dc143c" />
<path d="M-133,-600 L-133,-607.5" stroke="#dc143c" />
<path d="M-129,-600 L-129,-607.5" stroke="#dc143c" />
<path d="M-98,-600 L-98,-607.5" stroke="#dc143c" />
<path d="M-66,-600 L-66,-607.5" stroke="#dc143c" />
<rect x="-200" y="-600" width="273" height="25" fill="white" stroke="black" />
<rect x="-200" y="-600" width="21.0" height="25" fill="#dc143c" stroke="black" />
<rect x="-171.0" y="-600" width="108.0" height="25" fill="#ffd700" stroke="black" />
<rect x="-15.0" y="-600" width="22.0" height="25" fill="#1e90ff" stroke="black" />
<text x="-290" y="-530" font-size="25" fill="black">RL11B</text>
<path d="M-184,-517.5 L-184,-550" stroke="#1e90ff" />
<path d="M-51,-517.5 L-51,-550" stroke="#1e90ff" />
<path d="M-183,-550 L-183,-557.5" stroke="#dc143c" />
<path d="M-168,-550 L-168,-557.5" stroke="#dc143c" />
<rect x="-200" y="-550" width="162" height="25" fill="white" stroke="black" />
<rect x="-200" y="-550" width="18.0" height="25" fill="#dc143c" stroke="black" />
<rect x="-178.0" y="-550" width="115.0" height="25" fill="#ffd700" stroke="black" />
<text x="-290" y="-480" font-size="25" fill="black">RL11C</text>
<path d="M-173,-500 L-173,-507.5" stroke="#dc143c" />
<path d="M-142,-500 L-142,-507.5" stroke="#dc143c" />
<path d="M-118,-500 L-118,-507.5" stroke="#dc143c" />
<path d="M-102,-500 L-102,-507.5" stroke="#dc143c" />
<path d="M-98,-500 L-98,-507.5" stroke="#dc143c" />
<path d="M-69,-500 L-69,-507.5" stroke="#dc143c" />
<rect x="-200" y="-500" width="193" height="25" fill="white" stroke="black" />
<rect x="-178.0" y="-500" width="117.0" height="25" fill="#ffd700" stroke="black" />
<rect x="-44.0" y="-500" width="22.0" height="25" fill="#1e90ff" stroke="black" />
<text x="-290" y="-430" font-size="25" fill="black">RL11D1</text>
<path d="M-57,-417.5 L-57,-450" stroke="#1e90ff" />
<path d="M-166,-450 L-166,-457.5" stroke="#dc143c" />
<path d="M-160,-450 L-160,-457.5" stroke="#dc143c" />
<path d="M-152,-450 L-152,-457.5" stroke="#dc143c" />
<path d="M-100,-450 L-100,-457.5" stroke="#dc143c" />
<path d="M-73,-450 L-73,-457.5" stroke="#dc143c" />
<rect x="-200" y="-450" width="171" height="25" fill="white" stroke="black" />
<rect x="-200" y="-450" width="23.0" height="25" fill="#dc143c" stroke="black" />
<rect x="-172.0" y="-450" width="111.0" height="25" fill="#ffd700" stroke="black" />
<text x="-290" y="-380" font-size="25" fill="black">RL11D2</text>
<path d="M-71,-367.5 L-71,-400" stroke="#1e90ff" />
<path d="M-177,-400 L-177,-407.5" stroke="#dc143c" />
<path d="M-169,-400 L-169,-407.5" stroke="#dc143c" />
<path d="M-161,-400 L-161,-407.5" stroke="#dc143c" />
<path d="M-112,-400 L-112,-407.5" stroke="#dc143c" />
<path d="M-80,-400 L-80,-407.5" stroke="#dc143c" />
<rect x="-200" y="-400" width="140" height="25" fill="white" stroke="black" />
<rect x="-200" y="-400" width="18.0" height="25" fill="#dc143c" stroke="black" />
<rect x="-181.0" y="-400" width="108.0" height="25" fill="#ffd700" stroke="black" />
<text x="-290" y="-330" font-size="25" fill="black">RL11F</text>
<path d="M-36,-317.5 L-36,-350" stroke="#1e90ff" />
<path d="M-34,-317.5 L-34,-350" stroke="#1e90ff" />
<path d="M-175,-350 L-175,-357.5" stroke="#dc143c" />
<path d="M-159,-350 L-159,-357.5" stroke="#dc143c" />
<path d="M-144,-350 L-144,-357.5" stroke="#dc143c" />
<path d="M-136,-350 L-136,-357.5" stroke="#dc143c" />
<path d="M-123,-350 L-123,-357.5" stroke="#dc143c" />
<path d="M-119,-350 L-119,-357.5" stroke="#dc143c" />
<path d="M-116,-350 L-116,-357.5" stroke="#dc143c" />
<path d="M-107,-350 L-107,-357.5" stroke="#dc143c" />
<path d="M-100,-350 L-100,-357.5" stroke="#dc143c" />
<path d="M-93,-350 L-93,-357.5" stroke="#dc143c" />
<path d="M-90,-350 L-90,-357.5" stroke="#dc143c" />
<path d="M-77,-350 L-77,-357.5" stroke="#dc143c" />
<rect x="-200" y="-350" width="231" height="25" fill="white" stroke="black" />
<rect x="-200" y="-350" width="18.0" height="25" fill="#dc143c" stroke="black" />
<rect x="-184.0" y="-350" width="129.0" height="25" fill="#ffd700" stroke="black" />
<rect x="-12.0" y="-350" width="22.0" height="25" fill="#1e90ff" stroke="black" />
<text x="-290" y="-280" font-size="25" fill="black">RL11G</text>
<path d="M-27,-267.5 L-27,-300" stroke="#1e90ff" />
<path d="M-26,-267.5 L-26,-300" stroke="#1e90ff" />
<path d="M-25,-267.5 L-25,-300" stroke="#1e90ff" />
<path d="M-24,-267.5 L-24,-300" stroke="#1e90ff" />
<path d="M-22,-267.5 L-22,-300" stroke="#1e90ff" />
<path d="M-21,-267.5 L-21,-300" stroke="#1e90ff" />
<path d="M-20,-267.5 L-20,-300" stroke="#1e90ff" />
<path d="M-19,-267.5 L-19,-300" stroke="#1e90ff" />
<path d="M-18,-267.5 L-18,-300" stroke="#1e90ff" />
<path d="M-17,-267.5 L-17,-300" stroke="#1e90ff" />
<path d="M-16,-267.5 L-16,-300" stroke="#1e90ff" />
<path d="M-14,-267.5 L-14,-300" stroke="#1e90ff" />
<path d="M-13,-267.5 L-13,-300" stroke="#1e90ff" />
<path d="M-10,-267.5 L-10,-300" stroke="#1e90ff" />
<path d="M-9,-267.5 L-9,-300" stroke="#1e90ff" />
<path d="M-8,-267.5 L-8,-300" stroke="#1e90ff" />
<path d="M-7,-267.5 L-7,-300" stroke="#1e90ff" />
<path d="M-4,-267.5 L-4,-300" stroke="#1e90ff" />
<path d="M-3,-267.5 L-3,-300" stroke="#1e90ff" />
<path d="M2,-267.5 L2,-300" stroke="#1e90ff" />
<path d="M3,-267.5 L3,-300" stroke="#1e90ff" />
<path d="M5,-267.5 L5,-300" stroke="#1e90ff" />
<path d="M9,-267.5 L9,-300" stroke="#1e90ff" />
<path d="M10,-267.5 L10,-300" stroke="#1e90ff" />
<path d="M11,-267.5 L11,-300" stroke="#1e90ff" />
<path d="M12,-267.5 L12,-300" stroke="#1e90ff" />
<path d="M13,-267.5 L13,-300" stroke="#1e90ff" />
<path d="M14,-267.5 L14,-300" stroke="#1e90ff" />
<path d="M15,-267.5 L15,-300" stroke="#1e90ff" />
<path d="M18,-267.5 L18,-300" stroke="#1e90ff" />
<path d="M19,-267.5 L19,-300" stroke="#1e90ff" />
<path d="M20,-267.5 L20,-300" stroke="#1e90ff" />
<path d="M21,-267.5 L21,-300" stroke="#1e90ff" />
<path d="M22,-267.5 L22,-300" stroke="#1e90ff" />
<path d="M-167,-300 L-167,-307.5" stroke="#dc143c" />
<path d="M-159,-300 L-159,-307.5" stroke="#dc143c" />
<path d="M-148,-300 L-148,-307.5" stroke="#dc143c" />
<path d="M-137,-300 L-137,-307.5" stroke="#dc143c" />
<path d="M-96,-300 L-96,-307.5" stroke="#dc143c" />
<path d="M-47,-300 L-47,-307.5" stroke="#dc143c" />
<path d="M-34,-300 L-34,-307.5" stroke="#dc143c" />
<rect x="-200" y="-300" width="323" height="25" fill="white" stroke="black" />
<rect x="-200" y="-300" width="25.0" height="25" fill="#dc143c" stroke="black" />
<rect x="-167.0" y="-300" width="104.0" height="25" fill="#ffd700" stroke="black" />
<rect x="39.0" y="-300" width="22.0" height="25" fill="#1e90ff" stroke="black" />
<text x="-290" y="-230" font-size="25" fill="black">RL11H</text>
<path d="M-165,-217.5 L-165,-250" stroke="#1e90ff" />
<path d="M-164,-217.5 L-164,-250" stroke="#1e90ff" />
<path d="M-161,-217.5 L-161,-250" stroke="#1e90ff" />
<path d="M-160,-217.5 L-160,-250" stroke="#1e90ff" />
<path d="M-158,-217.5 L-158,-250" stroke="#1e90ff" />
<path d="M-157,-217.5 L-157,-250" stroke="#1e90ff" />
<path d="M-156,-217.5 L-156,-250" stroke="#1e90ff" />
<path d="M-153,-217.5 L-153,-250" stroke="#1e90ff" />
<path d="M-152,-217.5 L-152,-250" stroke="#1e90ff" />
<path d="M-150,-217.5 L-150,-250" stroke="#1e90ff" />
<path d="M-145,-217.5 L-145,-250" stroke="#1e90ff" />
<path d="M-144,-217.5 L-144,-250" stroke="#1e90ff" />
<path d="M-143,-217.5 L-143,-250" stroke="#1e90ff" />
<path d="M-140,-217.5 L-140,-250" stroke="#1e90ff" />
<path d="M-139,-217.5 L-139,-250" stroke="#1e90ff" />
<path d="M-136,-217.5 L-136,-250" stroke="#1e90ff" />
<path d="M-134,-217.5 L-134,-250" stroke="#1e90ff" />
<path d="M-133,-217.5 L-133,-250" stroke="#1e90ff" />
<path d="M-132,-217.5 L-132,-250" stroke="#1e90ff" />
<path d="M-128,-217.5 L-128,-250" stroke="#1e90ff" />
<path d="M-127,-217.5 L-127,-250" stroke="#1e90ff" />
<path d="M-126,-217.5 L-126,-250" stroke="#1e90ff" />
<path d="M-123,-217.5 L-123,-250" stroke="#1e90ff" />
<path d="M-119,-217.5 L-119,-250" stroke="#1e90ff" />
<path d="M-118,-217.5 L-118,-250" stroke="#1e90ff" />
<path d="M-91,-217.5 L-91,-250" stroke="#1e90ff" />
<path d="M-87,-217.5 L-87,-250" stroke="#1e90ff" />
<path d="M-83,-217.5 L-83,-250" stroke="#1e90ff" />
<path d="M-81,-217.5 L-81,-250" stroke="#1e90ff" />
<path d="M-80,-217.5 L-80,-250" stroke="#1e90ff" />
<path d="M-79,-217.5 L-79,-250" stroke="#1e90ff" />
<path d="M-78,-217.5 L-78,-250" stroke="#1e90ff" />
<path d="M-77,-217.5 L-77,-250" stroke="#1e90ff" />
<path d="M-76,-217.5 L-76,-250" stroke="#1e90ff" />
<path d="M-74,-217.5 L-74,-250" stroke="#1e90ff" />
<path d="M-73,-217.5 L-73,-250" stroke="#1e90ff" />
<path d="M-72,-217.5 L-72,-250" stroke="#1e90ff" />
<path d="M58,-217.5 L58,-250" stroke="#1e90ff" />
<path d="M64,-217.5 L64,-250" stroke="#1e90ff" />
<path d="M65,-217.5 L65,-250" stroke="#1e90ff" />
<path d="M81,-217.5 L81,-250" stroke="#1e90ff" />
<path d="M-176,-250 L-176,-257.5" stroke="#dc143c" />
<path d="M-173,-250 L-173,-257.5" stroke="#dc143c" />
<path d="M-167,-250 L-167,-257.5" stroke="#dc143c" />
<path d="M-151,-250 L-151,-257.5" stroke="#dc143c" />
<path d="M-146,-250 L-146,-257.5" stroke="#dc143c" />
<path d="M-129,-250 L-129,-257.5" stroke="#dc143c" />
<path d="M-111,-250 L-111,-257.5" stroke="#dc143c" />
<path d="M-93,-250 L-93,-257.5" stroke="#dc143c" />
<path d="M-89,-250 L-89,-257.5" stroke="#dc143c" />
<path d="M-85,-250 L-85,-257.5" stroke="#dc143c" />
<path d="M-68,-250 L-68,-257.5" stroke="#dc143c" />
<path d="M-33,-250 L-33,-257.5" stroke="#dc143c" />
<path d="M-29,-250 L-29,-257.5" stroke="#dc143c" />
<path d="M0,-250 L0,-257.5" stroke="#dc143c" />
<path d="M7,-250 L7,-257.5" stroke="#dc143c" />
<path d="M50,-250 L50,-257.5" stroke="#dc143c" />
<path d="M57,-250 L57,-257.5" stroke="#dc143c" />
<rect x="-200" y="-250" width="366" height="25" fill="white" stroke="black" />
<rect x="-200" y="-250" width="21.0" height="25" fill="#dc143c" stroke="black" />
<rect x="-42.0" y="-250" width="93.0" height="25" fill="#ffd700" stroke="black" />
<rect x="116.0" y="-250" width="22.0" height="25" fill="#1e90ff" stroke="black" />
<text x="-290" y="-180" font-size="25" fill="black">RL11I</text>
<path d="M-159,-167.5 L-159,-200" stroke="#1e90ff" />
<path d="M-157,-167.5 L-157,-200" stroke="#1e90ff" />
<path d="M-154,-167.5 L-154,-200" stroke="#1e90ff" />
<path d="M-153,-167.5 L-153,-200" stroke="#1e90ff" />
<path d="M-149,-167.5 L-149,-200" stroke="#1e90ff" />
<path d="M-148,-167.5 L-148,-200" stroke="#1e90ff" />
<path d="M-145,-167.5 L-145,-200" stroke="#1e90ff" />
<path d="M-143,-167.5 L-143,-200" stroke="#1e90ff" />
<path d="M-138,-167.5 L-138,-200" stroke="#1e90ff" />
<path d="M-137,-167.5 L-137,-200" stroke="#1e90ff" />
<path d="M-132,-167.5 L-132,-200" stroke="#1e90ff" />
<path d="M-131,-167.5 L-131,-200" stroke="#1e90ff" />
<path d="M-126,-167.5 L-126,-200" stroke="#1e90ff" />
<path d="M-125,-167.5 L-125,-200" stroke="#1e90ff" />
<path d="M32,-167.5 L32,-200" stroke="#1e90ff" />
<path d="M-160,-200 L-160,-207.5" stroke="#dc143c" />
<path d="M-139,-200 L-139,-207.5" stroke="#dc143c" />
<path d="M-134,-200 L-134,-207.5" stroke="#dc143c" />
<path d="M-85,-200 L-85,-207.5" stroke="#dc143c" />
<path d="M-81,-200 L-81,-207.5" stroke="#dc143c" />
<path d="M-75,-200 L-75,-207.5" stroke="#dc143c" />
<path d="M-50,-200 L-50,-207.5" stroke="#dc143c" />
<path d="M-29,-200 L-29,-207.5" stroke="#dc143c" />
<path d="M-9,-200 L-9,-207.5" stroke="#dc143c" />
<path d="M-2,-200 L-2,-207.5" stroke="#dc143c" />
<path d="M7,-200 L7,-207.5" stroke="#dc143c" />
<rect x="-200" y="-200" width="311" height="25" fill="white" stroke="black" />
<rect x="-200" y="-200" width="22.0" height="25" fill="#dc143c" stroke="black" />
<rect x="-94.0" y="-200" width="95.0" height="25" fill="#ffd700" stroke="black" />
<rect x="61.0" y="-200" width="22.0" height="25" fill="#1e90ff" stroke="black" />
<text x="-290" y="-130" font-size="25" fill="black">RL11J</text>
<path d="M-156,-150 L-156,-157.5" stroke="#dc143c" />
<path d="M-124,-150 L-124,-157.5" stroke="#dc143c" />
<path d="M-85,-150 L-85,-157.5" stroke="#dc143c" />
<path d="M-69,-150 L-69,-157.5" stroke="#dc143c" />
<path d="M-65,-150 L-65,-157.5" stroke="#dc143c" />
<path d="M-51,-150 L-51,-157.5" stroke="#dc143c" />
<path d="M-45,-150 L-45,-157.5" stroke="#dc143c" />
<rect x="-200" y="-150" width="197" height="25" fill="white" stroke="black" />
<rect x="-200" y="-150" width="14.0" height="25" fill="#dc143c" stroke="black" />
<rect x="-177.0" y="-150" width="95.0" height="25" fill="#ffd700" stroke="black" />
<rect x="-42.0" y="-150" width="22.0" height="25" fill="#1e90ff" stroke="black" />
<text x="-290" y="-80" font-size="25" fill="black">RL11K</text>
<path d="M-36,-67.5 L-36,-100" stroke="#1e90ff" />
<path d="M-35,-67.5 L-35,-100" stroke="#1e90ff" />
<path d="M-29,-67.5 L-29,-100" stroke="#1e90ff" />
<path d="M-28,-67.5 L-28,-100" stroke="#1e90ff" />
<path d="M-162,-100 L-162,-107.5" stroke="#dc143c" />
<path d="M-154,-100 L-154,-107.5" stroke="#dc143c" />
<path d="M-106,-100 L-106,-107.5" stroke="#dc143c" />
<path d="M-74,-100 L-74,-107.5" stroke="#dc143c" />
<path d="M-65,-100 L-65,-107.5" stroke="#dc143c" />
<rect x="-200" y="-100" width="225" height="25" fill="white" stroke="black" />
<rect x="-200" y="-100" width="19.0" height="25" fill="#dc143c" stroke="black" />
<rect x="-175.0" y="-100" width="104.0" height="25" fill="#ffd700" stroke="black" />
<rect x="-16.0" y="-100" width="22.0" height="25" fill="#1e90ff" stroke="black" />
<text x="-290" y="-30" font-size="25" fill="black">RL11L</text>
<path d="M-49,-17.5 L-49,-50" stroke="#1e90ff" />
<path d="M-48,-17.5 L-48,-50" stroke="#1e90ff" />
<path d="M-44,-17.5 L-44,-50" stroke="#1e90ff" />
<path d="M-41,-17.5 L-41,-50" stroke="#1e90ff" />
<path d="M-37,-17.5 L-37,-50" stroke="#1e90ff" />
<path d="M-159,-50 L-159,-57.5" stroke="#dc143c" />
<path d="M-150,-50 L-150,-57.5" stroke="#dc143c" />
<path d="M-130,-50 L-130,-57.5" stroke="#dc143c" />
<path d="M-102,-50 L-102,-57.5" stroke="#dc143c" />
<path d="M-95,-50 L-95,-57.5" stroke="#dc143c" />
<path d="M-65,-50 L-65,-57.5" stroke="#dc143c" />
<path d="M-31,-50 L-31,-57.5" stroke="#dc143c" />
<path d="M-26,-50 L-26,-57.5" stroke="#dc143c" />
<rect x="-200" y="-50" width="235" height="25" fill="white" stroke="black" />
<rect x="-200" y="-50" width="23.0" height="25" fill="#dc143c" stroke="black" />
<rect x="-159.0" y="-50" width="97.0" height="25" fill="#ffd700" stroke="black" />
<rect x="-13.0" y="-50" width="19.0" height="25" fill="#1e90ff" stroke="black" />
<text x="-290" y="20" font-size="25" fill="black">RL11M</text>
<path d="M-159,32.5 L-159,0" stroke="#1e90ff" />
<path d="M-152,32.5 L-152,0" stroke="#1e90ff" />
<path d="M-60,32.5 L-60,0" stroke="#1e90ff" />
<path d="M-59,32.5 L-59,0" stroke="#1e90ff" />
<path d="M-58,32.5 L-58,0" stroke="#1e90ff" />
<path d="M-54,32.5 L-54,0" stroke="#1e90ff" />
<path d="M-53,32.5 L-53,0" stroke="#1e90ff" />
<path d="M-52,32.5 L-52,0" stroke="#1e90ff" />
<path d="M-49,32.5 L-49,0" stroke="#1e90ff" />
<path d="M-48,32.5 L-48,0" stroke="#1e90ff" />
<path d="M-47,32.5 L-47,0" stroke="#1e90ff" />
<path d="M-46,32.5 L-46,0" stroke="#1e90ff" />
<path d="M-44,32.5 L-44,0" stroke="#1e90ff" />
<path d="M-42,32.5 L-42,0" stroke="#1e90ff" />
<path d="M-41,32.5 L-41,0" stroke="#1e90ff" />
<path d="M-40,32.5 L-40,0" stroke="#1e90ff" />
<path d="M-39,32.5 L-39,0" stroke="#1e90ff" />
<path d="M-38,32.5 L-38,0" stroke="#1e90ff" />
<path d="M-36,32.5 L-36,0" stroke="#1e90ff" />
<path d="M-35,32.5 L-35,0" stroke="#1e90ff" />
<path d="M-34,32.5 L-34,0" stroke="#1e90ff" />
<path d="M-33,32.5 L-33,0" stroke="#1e90ff" />
<path d="M-31,32.5 L-31,0" stroke="#1e90ff" />
<path d="M-30,32.5 L-30,0" stroke="#1e90ff" />
<path d="M-28,32.5 L-28,0" stroke="#1e90ff" />
<path d="M-27,32.5 L-27,0" stroke="#1e90ff" />
<path d="M-25,32.5 L-25,0" stroke="#1e90ff" />
<path d="M-160,0 L-160,-7.5" stroke="#dc143c" />
<path d="M-154,0 L-154,-7.5" stroke="#dc143c" />
<path d="M-105,0 L-105,-7.5" stroke="#dc143c" />
<path d="M-98,0 L-98,-7.5" stroke="#dc143c" />
<path d="M-90,0 L-90,-7.5" stroke="#dc143c" />
<path d="M-8,0 L-8,-7.5" stroke="#dc143c" />
<rect x="-200" y="0" width="231" height="25" fill="white" stroke="black" />
<rect x="-200" y="0" width="30.0" height="25" fill="#dc143c" stroke="black" />
<rect x="-163.0" y="0" width="94.0" height="25" fill="#ffd700" stroke="black" />
<rect x="5.0" y="0" width="19.0" height="25" fill="#1e90ff" stroke="black" />
<text x="-290" y="70" font-size="25" fill="black">RL11N</text>
<path d="M-148,82.5 L-148,50" stroke="#1e90ff" />
<path d="M-144,82.5 L-144,50" stroke="#1e90ff" />
<path d="M-126,82.5 L-126,50" stroke="#1e90ff" />
<path d="M-159,50 L-159,42.5" stroke="#dc143c" />
<path d="M-156,50 L-156,42.5" stroke="#dc143c" />
<path d="M-125,50 L-125,42.5" stroke="#dc143c" />
<rect x="-200" y="50" width="129" height="25" fill="white" stroke="black" />
<rect x="-110.0" y="50" width="22.0" height="25" fill="#1e90ff" stroke="black" />
<text x="-290" y="120" font-size="25" fill="black">RL11O</text>
<path d="M-154,100 L-154,92.5" stroke="#dc143c" />
<path d="M-133,100 L-133,92.5" stroke="#dc143c" />
<path d="M-112,100 L-112,92.5" stroke="#dc143c" />
<path d="M-101,100 L-101,92.5" stroke="#dc143c" />
<path d="M-93,100 L-93,92.5" stroke="#dc143c" />
<path d="M-76,100 L-76,92.5" stroke="#dc143c" />
<path d="M-68,100 L-68,92.5" stroke="#dc143c" />
<path d="M-194,100 L-194,92.5" stroke="#dc143c" />
<path d="M-134,100 L-134,92.5" stroke="#dc143c" />
<path d="M-102,100 L-102,92.5" stroke="#dc143c" />
<path d="M-90,100 L-90,92.5" stroke="#dc143c" />
<path d="M-65,100 L-65,92.5" stroke="#dc143c" />
<path d="M33,100 L33,92.5" stroke="#dc143c" />
<rect x="-200" y="100" width="224" height="25" fill="white" stroke="black" />
<rect x="-166.0" y="100" width="101.0" height="25" fill="#ffd700" stroke="black" />
<rect x="-17.0" y="100" width="22.0" height="25" fill="#1e90ff" stroke="black" />
<text x="-290" y="170" font-size="25" fill="black">RL11O2</text>
<path d="M-50,182.5 L-50,150" stroke="#1e90ff" />
<path d="M-47,182.5 L-47,150" stroke="#1e90ff" />
<path d="M-46,182.5 L-46,150" stroke="#1e90ff" />
<path d="M-45,182.5 L-45,150" stroke="#1e90ff" />
<path d="M-44,182.5 L-44,150" stroke="#1e90ff" />
<path d="M-43,182.5 L-43,150" stroke="#1e90ff" />
<path d="M-42,182.5 L-42,150" stroke="#1e90ff" />
<path d="M-39,182.5 L-39,150" stroke="#1e90ff" />
<path d="M-33,182.5 L-33,150" stroke="#1e90ff" />
<path d="M-17,182.5 L-17,150" stroke="#1e90ff" />
<path d="M-12,182.5 L-12,150" stroke="#1e90ff" />
<path d="M-194,150 L-194,142.5" stroke="#dc143c" />
<path d="M-134,150 L-134,142.5" stroke="#dc143c" />
<path d="M-102,150 L-102,142.5" stroke="#dc143c" />
<path d="M-90,150 L-90,142.5" stroke="#dc143c" />
<path d="M-65,150 L-65,142.5" stroke="#dc143c" />
<path d="M33,150 L33,142.5" stroke="#dc143c" />
<rect x="-200" y="150" width="282" height="25" fill="white" stroke="black" />
<rect x="-200" y="150" width="30.0" height="25" fill="#dc143c" stroke="black" />
<rect x="-166.0" y="150" width="104.0" height="25" fill="#ffd700" stroke="black" />
<rect x="34.0" y="150" width="22.0" height="25" fill="#1e90ff" stroke="black" />
<text x="-290" y="220" font-size="25" fill="black">RL11Q</text>
<path d="M-55,232.5 L-55,200" stroke="#1e90ff" />
<path d="M-51,232.5 L-51,200" stroke="#1e90ff" />
<path d="M-47,232.5 L-47,200" stroke="#1e90ff" />
<path d="M-136,200 L-136,192.5" stroke="#dc143c" />
<path d="M-124,200 L-124,192.5" stroke="#dc143c" />
<path d="M-77,200 L-77,192.5" stroke="#dc143c" />
<path d="M-50,200 L-50,192.5" stroke="#dc143c" />
<rect x="-200" y="200" width="201" height="25" fill="white" stroke="black" />
<rect x="-200" y="200" width="20.0" height="25" fill="#dc143c" stroke="black" />
<rect x="-176.0" y="200" width="102.0" height="25" fill="#ffd700" stroke="black" />
<rect x="-28.0" y="200" width="22.0" height="25" fill="#1e90ff" stroke="black" />
<text x="-290" y="270" font-size="25" fill="black">RL11R</text>
<path d="M-164,250 L-164,242.5" stroke="#dc143c" />
<path d="M-154,250 L-154,242.5" stroke="#dc143c" />
<path d="M-115,250 L-115,242.5" stroke="#dc143c" />
<path d="M-101,250 L-101,242.5" stroke="#dc143c" />
<rect x="-200" y="250" width="207" height="25" fill="white" stroke="black" />
<rect x="-200" y="250" width="28.0" height="25" fill="#dc143c" stroke="black" />
<rect x="-170.0" y="250" width="97.0" height="25" fill="#ffd700" stroke="black" />
<rect x="-45.0" y="250" width="19.0" height="25" fill="#1e90ff" stroke="black" />
<text x="-290" y="320" font-size="25" fill="black">RL11S</text>
<path d="M-170,332.5 L-170,300" stroke="#1e90ff" />
<path d="M-169,332.5 L-169,300" stroke="#1e90ff" />
<path d="M-168,332.5 L-168,300" stroke="#1e90ff" />
<path d="M-166,332.5 L-166,300" stroke="#1e90ff" />
<path d="M-159,332.5 L-159,300" stroke="#1e90ff" />
<path d="M-154,332.5 L-154,300" stroke="#1e90ff" />
<path d="M-150,332.5 L-150,300" stroke="#1e90ff" />
<path d="M-146,332.5 L-146,300" stroke="#1e90ff" />
<path d="M-129,332.5 L-129,300" stroke="#1e90ff" />
<path d="M-123,332.5 L-123,300" stroke="#1e90ff" />
<path d="M-121,332.5 L-121,300" stroke="#1e90ff" />
<path d="M-106,332.5 L-106,300" stroke="#1e90ff" />
<path d="M-101,332.5 L-101,300" stroke="#1e90ff" />
<path d="M-100,332.5 L-100,300" stroke="#1e90ff" />
<path d="M-98,332.5 L-98,300" stroke="#1e90ff" />
<path d="M-80,332.5 L-80,300" stroke="#1e90ff" />
<path d="M-74,332.5 L-74,300" stroke="#1e90ff" />
<path d="M-70,332.5 L-70,300" stroke="#1e90ff" />
<path d="M-65,332.5 L-65,300" stroke="#1e90ff" />
<path d="M-63,332.5 L-63,300" stroke="#1e90ff" />
<path d="M-62,332.5 L-62,300" stroke="#1e90ff" />
<path d="M-59,332.5 L-59,300" stroke="#1e90ff" />
<path d="M-57,332.5 L-57,300" stroke="#1e90ff" />
<path d="M-56,332.5 L-56,300" stroke="#1e90ff" />
<path d="M-55,332.5 L-55,300" stroke="#1e90ff" />
<path d="M-53,332.5 L-53,300" stroke="#1e90ff" />
<path d="M-52,332.5 L-52,300" stroke="#1e90ff" />
<path d="M-49,332.5 L-49,300" stroke="#1e90ff" />
<path d="M-46,332.5 L-46,300" stroke="#1e90ff" />
<path d="M-44,332.5 L-44,300" stroke="#1e90ff" />
<path d="M-41,332.5 L-41,300" stroke="#1e90ff" />
<path d="M-40,332.5 L-40,300" stroke="#1e90ff" />
<path d="M-39,332.5 L-39,300" stroke="#1e90ff" />
<path d="M-37,332.5 L-37,300" stroke="#1e90ff" />
<path d="M-33,332.5 L-33,300" stroke="#1e90ff" />
<path d="M-32,332.5 L-32,300" stroke="#1e90ff" />
<path d="M-31,332.5 L-31,300" stroke="#1e90ff" />
<path d="M-30,332.5 L-30,300" stroke="#1e90ff" />
<path d="M-26,332.5 L-26,300" stroke="#1e90ff" />
<path d="M-22,332.5 L-22,300" stroke="#1e90ff" />
<path d="M-19,332.5 L-19,300" stroke="#1e90ff" />
<path d="M-18,332.5 L-18,300" stroke="#1e90ff" />
<path d="M-14,332.5 L-14,300" stroke="#1e90ff" />
<path d="M-13,332.5 L-13,300" stroke="#1e90ff" />
<path d="M-11,332.5 L-11,300" stroke="#1e90ff" />
<path d="M-10,332.5 L-10,300" stroke="#1e90ff" />
<path d="M-7,332.5 L-7,300" stroke="#1e90ff" />
<path d="M-6,332.5 L-6,300" stroke="#1e90ff" />
<path d="M-5,332.5 L-5,300" stroke="#1e90ff" />
<path d="M-3,332.5 L-3,300" stroke="#1e90ff" />
<path d="M-2,332.5 L-2,300" stroke="#1e90ff" />
<path d="M2,332.5 L2,300" stroke="#1e90ff" />
<path d="M3,332.5 L3,300" stroke="#1e90ff" />
<path d="M8,332.5 L8,300" stroke="#1e90ff" />
<path d="M9,332.5 L9,300" stroke="#1e90ff" />
<path d="M14,332.5 L14,300" stroke="#1e90ff" />
<path d="M17,332.5 L17,300" stroke="#1e90ff" />
<path d="M24,332.5 L24,300" stroke="#1e90ff" />
<path d="M25,332.5 L25,300" stroke="#1e90ff" />
<path d="M29,332.5 L29,300" stroke="#1e90ff" />
<path d="M30,332.5 L30,300" stroke="#1e90ff" />
<path d="M34,332.5 L34,300" stroke="#1e90ff" />
<path d="M35,332.5 L35,300" stroke="#1e90ff" />
<path d="M40,332.5 L40,300" stroke="#1e90ff" />
<path d="M41,332.5 L41,300" stroke="#1e90ff" />
<path d="M43,332.5 L43,300" stroke="#1e90ff" />
<path d="M44,332.5 L44,300" stroke="#1e90ff" />
<path d="M45,332.5 L45,300" stroke="#1e90ff" />
<path d="M48,332.5 L48,300" stroke="#1e90ff" />
<path d="M49,332.5 L49,300" stroke="#1e90ff" />
<path d="M53,332.5 L53,300" stroke="#1e90ff" />
<path d="M54,332.5 L54,300" stroke="#1e90ff" />
<path d="M55,332.5 L55,300" stroke="#1e90ff" />
<path d="M56,332.5 L56,300" stroke="#1e90ff" />
<path d="M57,332.5 L57,300" stroke="#1e90ff" />
<path d="M59,332.5 L59,300" stroke="#1e90ff" />
<path d="M60,332.5 L60,300" stroke="#1e90ff" />
<path d="M61,332.5 L61,300" stroke="#1e90ff" />
<path d="M64,332.5 L64,300" stroke="#1e90ff" />
<path d="M67,332.5 L67,300" stroke="#1e90ff" />
<path d="M68,332.5 L68,300" stroke="#1e90ff" />
<path d="M70,332.5 L70,300" stroke="#1e90ff" />
<path d="M71,332.5 L71,300" stroke="#1e90ff" />
<path d="M72,332.5 L72,300" stroke="#1e90ff" />
<path d="M77,332.5 L77,300" stroke="#1e90ff" />
<path d="M78,332.5 L78,300" stroke="#1e90ff" />
<path d="M84,332.5 L84,300" stroke="#1e90ff" />
<path d="M85,332.5 L85,300" stroke="#1e90ff" />
<path d="M87,332.5 L87,300" stroke="#1e90ff" />
<path d="M88,332.5 L88,300" stroke="#1e90ff" />
<path d="M89,332.5 L89,300" stroke="#1e90ff" />
<path d="M92,332.5 L92,300" stroke="#1e90ff" />
<path d="M94,332.5 L94,300" stroke="#1e90ff" />
<path d="M97,332.5 L97,300" stroke="#1e90ff" />
<path d="M99,332.5 L99,300" stroke="#1e90ff" />
<path d="M101,332.5 L101,300" stroke="#1e90ff" />
<path d="M108,332.5 L108,300" stroke="#1e90ff" />
<path d="M109,332.5 L109,300" stroke="#1e90ff" />
<path d="M110,332.5 L110,300" stroke="#1e90ff" />
<path d="M113,332.5 L113,300" stroke="#1e90ff" />
<path d="M114,332.5 L114,300" stroke="#1e90ff" />
<path d="M118,332.5 L118,300" stroke="#1e90ff" />
<path d="M119,332.5 L119,300" stroke="#1e90ff" />
<path d="M122,332.5 L122,300" stroke="#1e90ff" />
<path d="M124,332.5 L124,300" stroke="#1e90ff" />
<path d="M128,332.5 L128,300" stroke="#1e90ff" />
<path d="M129,332.5 L129,300" stroke="#1e90ff" />
<path d="M132,332.5 L132,300" stroke="#1e90ff" />
<path d="M133,332.5 L133,300" stroke="#1e90ff" />
<path d="M134,332.5 L134,300" stroke="#1e90ff" />
<path d="M136,332.5 L136,300" stroke="#1e90ff" />
<path d="M137,332.5 L137,300" stroke="#1e90ff" />
<path d="M141,332.5 L141,300" stroke="#1e90ff" />
<path d="M142,332.5 L142,300" stroke="#1e90ff" />
<path d="M145,332.5 L145,300" stroke="#1e90ff" />
<path d="M147,332.5 L147,300" stroke="#1e90ff" />
<path d="M148,332.5 L148,300" stroke="#1e90ff" />
<path d="M150,332.5 L150,300" stroke="#1e90ff" />
<path d="M151,332.5 L151,300" stroke="#1e90ff" />
<path d="M152,332.5 L152,300" stroke="#1e90ff" />
<path d="M155,332.5 L155,300" stroke="#1e90ff" />
<path d="M156,332.5 L156,300" stroke="#1e90ff" />
<path d="M160,332.5 L160,300" stroke="#1e90ff" />
<path d="M161,332.5 L161,300" stroke="#1e90ff" />
<path d="M162,332.5 L162,300" stroke="#1e90ff" />
<path d="M163,332.5 L163,300" stroke="#1e90ff" />
<path d="M164,332.5 L164,300" stroke="#1e90ff" />
<path d="M165,332.5 L165,300" stroke="#1e90ff" />
<path d="M166,332.5 L166,300" stroke="#1e90ff" />
<path d="M167,332.5 L167,300" stroke="#1e90ff" />
<path d="M172,332.5 L172,300" stroke="#1e90ff" />
<path d="M174,332.5 L174,300" stroke="#1e90ff" />
<path d="M175,332.5 L175,300" stroke="#1e90ff" />
<path d="M176,332.5 L176,300" stroke="#1e90ff" />
<path d="M179,332.5 L179,300" stroke="#1e90ff" />
<path d="M180,332.5 L180,300" stroke="#1e90ff" />
<path d="M181,332.5 L181,300" stroke="#1e90ff" />
<path d="M186,332.5 L186,300" stroke="#1e90ff" />
<path d="M188,332.5 L188,300" stroke="#1e90ff" />
<path d="M190,332.5 L190,300" stroke="#1e90ff" />
<path d="M191,332.5 L191,300" stroke="#1e90ff" />
<path d="M193,332.5 L193,300" stroke="#1e90ff" />
<path d="M197,332.5 L197,300" stroke="#1e90ff" />
<path d="M199,332.5 L199,300" stroke="#1e90ff" />
<path d="M-156,300 L-156,292.5" stroke="#dc143c" />
<path d="M-152,300 L-152,292.5" stroke="#dc143c" />
<path d="M-148,300 L-148,292.5" stroke="#dc143c" />
<path d="M-137,300 L-137,292.5" stroke="#dc143c" />
<path d="M-110,300 L-110,292.5" stroke="#dc143c" />
<path d="M-103,300 L-103,292.5" stroke="#dc143c" />
<path d="M-76,300 L-76,292.5" stroke="#dc143c" />
<path d="M-51,300 L-51,292.5" stroke="#dc143c" />
<path d="M-21,300 L-21,292.5" stroke="#dc143c" />
<path d="M-12,300 L-12,292.5" stroke="#dc143c" />
<path d="M117,300 L117,292.5" stroke="#dc143c" />
<path d="M195,300 L195,292.5" stroke="#dc143c" />
<rect x="-200" y="300" width="461" height="25" fill="white" stroke="black" />
<rect x="-200" y="300" width="30.0" height="25" fill="#dc143c" stroke="black" />
<rect x="-170.0" y="300" width="97.0" height="25" fill="#ffd700" stroke="black" />
<rect x="212.0" y="300" width="22.0" height="25" fill="#1e90ff" stroke="black" />
<text x="-290" y="370" font-size="25" fill="black">RL11T</text>
<path d="M-173,382.5 L-173,350" stroke="#1e90ff" />
<path d="M-170,382.5 L-170,350" stroke="#1e90ff" />
<path d="M-169,382.5 L-169,350" stroke="#1e90ff" />
<path d="M-168,382.5 L-168,350" stroke="#1e90ff" />
<path d="M-165,382.5 L-165,350" stroke="#1e90ff" />
<path d="M-164,382.5 L-164,350" stroke="#1e90ff" />
<path d="M-163,382.5 L-163,350" stroke="#1e90ff" />
<path d="M-160,382.5 L-160,350" stroke="#1e90ff" />
<path d="M-158,382.5 L-158,350" stroke="#1e90ff" />
<path d="M-157,382.5 L-157,350" stroke="#1e90ff" />
<path d="M-156,382.5 L-156,350" stroke="#1e90ff" />
<path d="M-154,382.5 L-154,350" stroke="#1e90ff" />
<path d="M-153,382.5 L-153,350" stroke="#1e90ff" />
<path d="M-151,382.5 L-151,350" stroke="#1e90ff" />
<path d="M-150,382.5 L-150,350" stroke="#1e90ff" />
<path d="M-149,382.5 L-149,350" stroke="#1e90ff" />
<path d="M-147,382.5 L-147,350" stroke="#1e90ff" />
<path d="M-144,382.5 L-144,350" stroke="#1e90ff" />
<path d="M-143,382.5 L-143,350" stroke="#1e90ff" />
<path d="M-140,382.5 L-140,350" stroke="#1e90ff" />
<path d="M-139,382.5 L-139,350" stroke="#1e90ff" />
<path d="M-136,382.5 L-136,350" stroke="#1e90ff" />
<path d="M-134,382.5 L-134,350" stroke="#1e90ff" />
<path d="M-133,382.5 L-133,350" stroke="#1e90ff" />
<path d="M-132,382.5 L-132,350" stroke="#1e90ff" />
<path d="M-131,382.5 L-131,350" stroke="#1e90ff" />
<path d="M-127,382.5 L-127,350" stroke="#1e90ff" />
<path d="M-126,382.5 L-126,350" stroke="#1e90ff" />
<path d="M-125,382.5 L-125,350" stroke="#1e90ff" />
<path d="M-123,382.5 L-123,350" stroke="#1e90ff" />
<path d="M-122,382.5 L-122,350" stroke="#1e90ff" />
<path d="M-121,382.5 L-121,350" stroke="#1e90ff" />
<path d="M-120,382.5 L-120,350" stroke="#1e90ff" />
<path d="M-118,382.5 L-118,350" stroke="#1e90ff" />
<path d="M-116,382.5 L-116,350" stroke="#1e90ff" />
<path d="M-115,382.5 L-115,350" stroke="#1e90ff" />
<path d="M-113,382.5 L-113,350" stroke="#1e90ff" />
<path d="M-112,382.5 L-112,350" stroke="#1e90ff" />
<path d="M-109,382.5 L-109,350" stroke="#1e90ff" />
<path d="M-108,382.5 L-108,350" stroke="#1e90ff" />
<path d="M-107,382.5 L-107,350" stroke="#1e90ff" />
<path d="M-103,382.5 L-103,350" stroke="#1e90ff" />
<path d="M-102,382.5 L-102,350" stroke="#1e90ff" />
<path d="M-98,382.5 L-98,350" stroke="#1e90ff" />
<path d="M-97,382.5 L-97,350" stroke="#1e90ff" />
<path d="M-96,382.5 L-96,350" stroke="#1e90ff" />
<path d="M-95,382.5 L-95,350" stroke="#1e90ff" />
<path d="M-92,382.5 L-92,350" stroke="#1e90ff" />
<path d="M-89,382.5 L-89,350" stroke="#1e90ff" />
<path d="M-88,382.5 L-88,350" stroke="#1e90ff" />
<path d="M-85,382.5 L-85,350" stroke="#1e90ff" />
<path d="M-84,382.5 L-84,350" stroke="#1e90ff" />
<path d="M-82,382.5 L-82,350" stroke="#1e90ff" />
<path d="M-81,382.5 L-81,350" stroke="#1e90ff" />
<path d="M-80,382.5 L-80,350" stroke="#1e90ff" />
<path d="M-79,382.5 L-79,350" stroke="#1e90ff" />
<path d="M-78,382.5 L-78,350" stroke="#1e90ff" />
<path d="M-77,382.5 L-77,350" stroke="#1e90ff" />
<path d="M-73,382.5 L-73,350" stroke="#1e90ff" />
<path d="M-71,382.5 L-71,350" stroke="#1e90ff" />
<path d="M-70,382.5 L-70,350" stroke="#1e90ff" />
<path d="M-68,382.5 L-68,350" stroke="#1e90ff" />
<path d="M-67,382.5 L-67,350" stroke="#1e90ff" />
<path d="M-64,382.5 L-64,350" stroke="#1e90ff" />
<path d="M-62,382.5 L-62,350" stroke="#1e90ff" />
<path d="M-61,382.5 L-61,350" stroke="#1e90ff" />
<path d="M-59,382.5 L-59,350" stroke="#1e90ff" />
<path d="M-58,382.5 L-58,350" stroke="#1e90ff" />
<path d="M-56,382.5 L-56,350" stroke="#1e90ff" />
<path d="M-54,382.5 L-54,350" stroke="#1e90ff" />
<path d="M-51,382.5 L-51,350" stroke="#1e90ff" />
<path d="M-50,382.5 L-50,350" stroke="#1e90ff" />
<path d="M-47,382.5 L-47,350" stroke="#1e90ff" />
<path d="M-45,382.5 L-45,350" stroke="#1e90ff" />
<path d="M-44,382.5 L-44,350" stroke="#1e90ff" />
<path d="M-43,382.5 L-43,350" stroke="#1e90ff" />
<path d="M-41,382.5 L-41,350" stroke="#1e90ff" />
<path d="M-40,382.5 L-40,350" stroke="#1e90ff" />
<path d="M-39,382.5 L-39,350" stroke="#1e90ff" />
<path d="M-38,382.5 L-38,350" stroke="#1e90ff" />
<path d="M-34,382.5 L-34,350" stroke="#1e90ff" />
<path d="M18,382.5 L18,350" stroke="#1e90ff" />
<path d="M19,382.5 L19,350" stroke="#1e90ff" />
<path d="M80,382.5 L80,350" stroke="#1e90ff" />
<path d="M90,382.5 L90,350" stroke="#1e90ff" />
<path d="M91,382.5 L91,350" stroke="#1e90ff" />
<path d="M92,382.5 L92,350" stroke="#1e90ff" />
<path d="M93,382.5 L93,350" stroke="#1e90ff" />
<path d="M96,382.5 L96,350" stroke="#1e90ff" />
<path d="M97,382.5 L97,350" stroke="#1e90ff" />
<path d="M98,382.5 L98,350" stroke="#1e90ff" />
<path d="M99,382.5 L99,350" stroke="#1e90ff" />
<path d="M-172,350 L-172,342.5" stroke="#dc143c" />
<path d="M-162,350 L-162,342.5" stroke="#dc143c" />
<path d="M-117,350 L-117,342.5" stroke="#dc143c" />
<path d="M-105,350 L-105,342.5" stroke="#dc143c" />
<path d="M-99,350 L-99,342.5" stroke="#dc143c" />
<path d="M-90,350 L-90,342.5" stroke="#dc143c" />
<path d="M-75,350 L-75,342.5" stroke="#dc143c" />
<path d="M-66,350 L-66,342.5" stroke="#dc143c" />
<path d="M-53,350 L-53,342.5" stroke="#dc143c" />
<path d="M-17,350 L-17,342.5" stroke="#dc143c" />
<path d="M-13,350 L-13,342.5" stroke="#dc143c" />
<path d="M3,350 L3,342.5" stroke="#dc143c" />
<path d="M7,350 L7,342.5" stroke="#dc143c" />
<path d="M33,350 L33,342.5" stroke="#dc143c" />
<path d="M43,350 L43,342.5" stroke="#dc143c" />
<path d="M47,350 L47,342.5" stroke="#dc143c" />
<path d="M75,350 L75,342.5" stroke="#dc143c" />
<rect x="-200" y="350" width="375" height="25" fill="white" stroke="black" />
<rect x="-200" y="350" width="27.0" height="25" fill="#dc143c" stroke="black" />
<rect x="-43.0" y="350" width="114.0" height="25" fill="#ffd700" stroke="black" />
<rect x="110.0" y="350" width="22.0" height="25" fill="#1e90ff" stroke="black" />
</svg>