<?xml version="1.0" encoding="UTF-8"?>
<svg xmlns="http://www.w3.org/2000/svg" xmlns:xlink="http://www.w3.org/1999/xlink"
     width="800" height="1400" viewBox="-400.0 -700.0 800 1400">
<defs>
</defs>
<text x="-290" y="-650" font-size="25" fill="black">mandrilline_betaherpesvirus_1</text>
<text x="-290" y="-580" font-size="25" fill="black">RL11T</text>
<path d="M-176,-567.5 L-176,-600" stroke="#1e90ff" />
<path d="M-174,-567.5 L-174,-600" stroke="#1e90ff" />
<path d="M-172,-567.5 L-172,-600" stroke="#1e90ff" />
<path d="M-171,-567.5 L-171,-600" stroke="#1e90ff" />
<path d="M-170,-567.5 L-170,-600" stroke="#1e90ff" />
<path d="M-169,-567.5 L-169,-600" stroke="#1e90ff" />
<path d="M-168,-567.5 L-168,-600" stroke="#1e90ff" />
<path d="M-167,-567.5 L-167,-600" stroke="#1e90ff" />
<path d="M-165,-567.5 L-165,-600" stroke="#1e90ff" />
<path d="M-164,-567.5 L-164,-600" stroke="#1e90ff" />
<path d="M-163,-567.5 L-163,-600" stroke="#1e90ff" />
<path d="M-162,-567.5 L-162,-600" stroke="#1e90ff" />
<path d="M-161,-567.5 L-161,-600" stroke="#1e90ff" />
<path d="M-160,-567.5 L-160,-600" stroke="#1e90ff" />
<path d="M-156,-567.5 L-156,-600" stroke="#1e90ff" />
<path d="M-155,-567.5 L-155,-600" stroke="#1e90ff" />
<path d="M-152,-567.5 L-152,-600" stroke="#1e90ff" />
<path d="M-151,-567.5 L-151,-600" stroke="#1e90ff" />
<path d="M-150,-567.5 L-150,-600" stroke="#1e90ff" />
<path d="M-149,-567.5 L-149,-600" stroke="#1e90ff" />
<path d="M-148,-567.5 L-148,-600" stroke="#1e90ff" />
<path d="M-147,-567.5 L-147,-600" stroke="#1e90ff" />
<path d="M-145,-567.5 L-145,-600" stroke="#1e90ff" />
<path d="M-144,-567.5 L-144,-600" stroke="#1e90ff" />
<path d="M-142,-567.5 L-142,-600" stroke="#1e90ff" />
<path d="M-141,-567.5 L-141,-600" stroke="#1e90ff" />
<path d="M-140,-567.5 L-140,-600" stroke="#1e90ff" />
<path d="M-139,-567.5 L-139,-600" stroke="#1e90ff" />
<path d="M-138,-567.5 L-138,-600" stroke="#1e90ff" />
<path d="M-136,-567.5 L-136,-600" stroke="#1e90ff" />
<path d="M-134,-567.5 L-134,-600" stroke="#1e90ff" />
<path d="M-130,-567.5 L-130,-600" stroke="#1e90ff" />
<path d="M-129,-567.5 L-129,-600" stroke="#1e90ff" />
<path d="M-128,-567.5 L-128,-600" stroke="#1e90ff" />
<path d="M-127,-567.5 L-127,-600" stroke="#1e90ff" />
<path d="M-126,-567.5 L-126,-600" stroke="#1e90ff" />
<path d="M-125,-567.5 L-125,-600" stroke="#1e90ff" />
<path d="M-123,-567.5 L-123,-600" stroke="#1e90ff" />
<path d="M-122,-567.5 L-122,-600" stroke="#1e90ff" />
<path d="M-121,-567.5 L-121,-600" stroke="#1e90ff" />
<path d="M-119,-567.5 L-119,-600" stroke="#1e90ff" />
<path d="M-118,-567.5 L-118,-600" stroke="#1e90ff" />
<path d="M-117,-567.5 L-117,-600" stroke="#1e90ff" />
<path d="M-114,-567.5 L-114,-600" stroke="#1e90ff" />
<path d="M-113,-567.5 L-113,-600" stroke="#1e90ff" />
<path d="M-112,-567.5 L-112,-600" stroke="#1e90ff" />
<path d="M-111,-567.5 L-111,-600" stroke="#1e90ff" />
<path d="M-109,-567.5 L-109,-600" stroke="#1e90ff" />
<path d="M-108,-567.5 L-108,-600" stroke="#1e90ff" />
<path d="M-107,-567.5 L-107,-600" stroke="#1e90ff" />
<path d="M-105,-567.5 L-105,-600" stroke="#1e90ff" />
<path d="M-104,-567.5 L-104,-600" stroke="#1e90ff" />
<path d="M-102,-567.5 L-102,-600" stroke="#1e90ff" />
<path d="M-101,-567.5 L-101,-600" stroke="#1e90ff" />
<path d="M-100,-567.5 L-100,-600" stroke="#1e90ff" />
<path d="M-99,-567.5 L-99,-600" stroke="#1e90ff" />
<path d="M-98,-567.5 L-98,-600" stroke="#1e90ff" />
<path d="M-96,-567.5 L-96,-600" stroke="#1e90ff" />
<path d="M-95,-567.5 L-95,-600" stroke="#1e90ff" />
<path d="M-94,-567.5 L-94,-600" stroke="#1e90ff" />
<path d="M-93,-567.5 L-93,-600" stroke="#1e90ff" />
<path d="M-92,-567.5 L-92,-600" stroke="#1e90ff" />
<path d="M-90,-567.5 L-90,-600" stroke="#1e90ff" />
<path d="M-89,-567.5 L-89,-600" stroke="#1e90ff" />
<path d="M-88,-567.5 L-88,-600" stroke="#1e90ff" />
<path d="M-86,-567.5 L-86,-600" stroke="#1e90ff" />
<path d="M-84,-567.5 L-84,-600" stroke="#1e90ff" />
<path d="M-83,-567.5 L-83,-600" stroke="#1e90ff" />
<path d="M-80,-567.5 L-80,-600" stroke="#1e90ff" />
<path d="M-79,-567.5 L-79,-600" stroke="#1e90ff" />
<path d="M-78,-567.5 L-78,-600" stroke="#1e90ff" />
<path d="M-74,-567.5 L-74,-600" stroke="#1e90ff" />
<path d="M-73,-567.5 L-73,-600" stroke="#1e90ff" />
<path d="M-72,-567.5 L-72,-600" stroke="#1e90ff" />
<path d="M-70,-567.5 L-70,-600" stroke="#1e90ff" />
<path d="M-69,-567.5 L-69,-600" stroke="#1e90ff" />
<path d="M-67,-567.5 L-67,-600" stroke="#1e90ff" />
<path d="M-66,-567.5 L-66,-600" stroke="#1e90ff" />
<path d="M-62,-567.5 L-62,-600" stroke="#1e90ff" />
<path d="M-61,-567.5 L-61,-600" stroke="#1e90ff" />
<path d="M-60,-567.5 L-60,-600" stroke="#1e90ff" />
<path d="M-57,-567.5 L-57,-600" stroke="#1e90ff" />
<path d="M-54,-567.5 L-54,-600" stroke="#1e90ff" />
<path d="M-53,-567.5 L-53,-600" stroke="#1e90ff" />
<path d="M-50,-567.5 L-50,-600" stroke="#1e90ff" />
<path d="M-49,-567.5 L-49,-600" stroke="#1e90ff" />
<path d="M-48,-567.5 L-48,-600" stroke="#1e90ff" />
<path d="M-44,-567.5 L-44,-600" stroke="#1e90ff" />
<path d="M-43,-567.5 L-43,-600" stroke="#1e90ff" />
<path d="M-40,-567.5 L-40,-600" stroke="#1e90ff" />
<path d="M-38,-567.5 L-38,-600" stroke="#1e90ff" />
<path d="M-37,-567.5 L-37,-600" stroke="#1e90ff" />
<path d="M-35,-567.5 L-35,-600" stroke="#1e90ff" />
<path d="M-33,-567.5 L-33,-600" stroke="#1e90ff" />
<path d="M-32,-567.5 L-32,-600" stroke="#1e90ff" />
<path d="M-30,-567.5 L-30,-600" stroke="#1e90ff" />
<path d="M-28,-567.5 L-28,-600" stroke="#1e90ff" />
<path d="M-27,-567.5 L-27,-600" stroke="#1e90ff" />
<path d="M-26,-567.5 L-26,-600" stroke="#1e90ff" />
<path d="M-25,-567.5 L-25,-600" stroke="#1e90ff" />
<path d="M-24,-567.5 L-24,-600" stroke="#1e90ff" />
<path d="M-16,-567.5 L-16,-600" stroke="#1e90ff" />
<path d="M-9,-567.5 L-9,-600" stroke="#1e90ff" />
<path d="M-5,-567.5 L-5,-600" stroke="#1e90ff" />
<path d="M-1,-567.5 L-1,-600" stroke="#1e90ff" />
<path d="M4,-567.5 L4,-600" stroke="#1e90ff" />
<path d="M5,-567.5 L5,-600" stroke="#1e90ff" />
<path d="M7,-567.5 L7,-600" stroke="#1e90ff" />
<path d="M11,-567.5 L11,-600" stroke="#1e90ff" />
<path d="M19,-567.5 L19,-600" stroke="#1e90ff" />
<path d="M20,-567.5 L20,-600" stroke="#1e90ff" />
<path d="M31,-567.5 L31,-600" stroke="#1e90ff" />
<path d="M32,-567.5 L32,-600" stroke="#1e90ff" />
<path d="M34,-567.5 L34,-600" stroke="#1e90ff" />
<path d="M95,-567.5 L95,-600" stroke="#1e90ff" />
<path d="M96,-567.5 L96,-600" stroke="#1e90ff" />
<path d="M98,-567.5 L98,-600" stroke="#1e90ff" />
<path d="M101,-567.5 L101,-600" stroke="#1e90ff" />
<path d="M103,-567.5 L103,-600" stroke="#1e90ff" />
<path d="M104,-567.5 L104,-600" stroke="#1e90ff" />
<path d="M105,-567.5 L105,-600" stroke="#1e90ff" />
<path d="M106,-567.5 L106,-600" stroke="#1e90ff" />
<path d="M108,-567.5 L108,-600" stroke="#1e90ff" />
<path d="M109,-567.5 L109,-600" stroke="#1e90ff" />
<path d="M-157,-600 L-157,-607.5" stroke="#dc143c" />
<path d="M-154,-600 L-154,-607.5" stroke="#dc143c" />
<path d="M-132,-600 L-132,-607.5" stroke="#dc143c" />
<path d="M-116,-600 L-116,-607.5" stroke="#dc143c" />
<path d="M-110,-600 L-110,-607.5" stroke="#dc143c" />
<path d="M-91,-600 L-91,-607.5" stroke="#dc143c" />
<path d="M-82,-600 L-82,-607.5" stroke="#dc143c" />
<path d="M-76,-600 L-76,-607.5" stroke="#dc143c" />
<path d="M-59,-600 L-59,-607.5" stroke="#dc143c" />
<path d="M-55,-600 L-55,-607.5" stroke="#dc143c" />
<path d="M-46,-600 L-46,-607.5" stroke="#dc143c" />
<path d="M-39,-600 L-39,-607.5" stroke="#dc143c" />
<path d="M-29,-600 L-29,-607.5" stroke="#dc143c" />
<path d="M-11,-600 L-11,-607.5" stroke="#dc143c" />
<path d="M-3,-600 L-3,-607.5" stroke="#dc143c" />
<path d="M2,-600 L2,-607.5" stroke="#dc143c" />
<path d="M18,-600 L18,-607.5" stroke="#dc143c" />
<path d="M57,-600 L57,-607.5" stroke="#dc143c" />
<path d="M88,-600 L88,-607.5" stroke="#dc143c" />
<path d="M93,-600 L93,-607.5" stroke="#dc143c" />
<rect x="-200" y="-600" width="388" height="25" fill="white" stroke="black" />
<rect x="-200" y="-600" width="27.0" height="25" fill="#dc143c" stroke="black" />
<rect x="-29.0" y="-600" width="113.0" height="25" fill="#ffd700" stroke="black" />
<rect x="121.0" y="-600" width="22.0" height="25" fill="#1e90ff" stroke="black" />
<text x="-290" y="-530" font-size="25" fill="black">RL11S</text>
<path d="M-67,-517.5 L-67,-550" stroke="#1e90ff" />
<path d="M-57,-517.5 L-57,-550" stroke="#1e90ff" />
<path d="M-55,-517.5 L-55,-550" stroke="#1e90ff" />
<path d="M-54,-517.5 L-54,-550" stroke="#1e90ff" />
<path d="M-52,-517.5 L-52,-550" stroke="#1e90ff" />
<path d="M-49,-517.5 L-49,-550" stroke="#1e90ff" />
<path d="M-48,-517.5 L-48,-550" stroke="#1e90ff" />
<path d="M-46,-517.5 L-46,-550" stroke="#1e90ff" />
<path d="M-45,-517.5 L-45,-550" stroke="#1e90ff" />
<path d="M-42,-517.5 L-42,-550" stroke="#1e90ff" />
<path d="M-41,-517.5 L-41,-550" stroke="#1e90ff" />
<path d="M-40,-517.5 L-40,-550" stroke="#1e90ff" />
<path d="M-38,-517.5 L-38,-550" stroke="#1e90ff" />
<path d="M-36,-517.5 L-36,-550" stroke="#1e90ff" />
<path d="M-35,-517.5 L-35,-550" stroke="#1e90ff" />
<path d="M-33,-517.5 L-33,-550" stroke="#1e90ff" />
<path d="M-32,-517.5 L-32,-550" stroke="#1e90ff" />
<path d="M-31,-517.5 L-31,-550" stroke="#1e90ff" />
<path d="M-27,-517.5 L-27,-550" stroke="#1e90ff" />
<path d="M-26,-517.5 L-26,-550" stroke="#1e90ff" />
<path d="M-24,-517.5 L-24,-550" stroke="#1e90ff" />
<path d="M-22,-517.5 L-22,-550" stroke="#1e90ff" />
<path d="M-21,-517.5 L-21,-550" stroke="#1e90ff" />
<path d="M-17,-517.5 L-17,-550" stroke="#1e90ff" />
<path d="M-16,-517.5 L-16,-550" stroke="#1e90ff" />
<path d="M-13,-517.5 L-13,-550" stroke="#1e90ff" />
<path d="M-12,-517.5 L-12,-550" stroke="#1e90ff" />
<path d="M-11,-517.5 L-11,-550" stroke="#1e90ff" />
<path d="M-8,-517.5 L-8,-550" stroke="#1e90ff" />
<path d="M-7,-517.5 L-7,-550" stroke="#1e90ff" />
<path d="M-6,-517.5 L-6,-550" stroke="#1e90ff" />
<path d="M-3,-517.5 L-3,-550" stroke="#1e90ff" />
<path d="M-2,-517.5 L-2,-550" stroke="#1e90ff" />
<path d="M7,-517.5 L7,-550" stroke="#1e90ff" />
<path d="M8,-517.5 L8,-550" stroke="#1e90ff" />
<path d="M9,-517.5 L9,-550" stroke="#1e90ff" />
<path d="M10,-517.5 L10,-550" stroke="#1e90ff" />
<path d="M14,-517.5 L14,-550" stroke="#1e90ff" />
<path d="M15,-517.5 L15,-550" stroke="#1e90ff" />
<path d="M16,-517.5 L16,-550" stroke="#1e90ff" />
<path d="M19,-517.5 L19,-550" stroke="#1e90ff" />
<path d="M20,-517.5 L20,-550" stroke="#1e90ff" />
<path d="M21,-517.5 L21,-550" stroke="#1e90ff" />
<path d="M25,-517.5 L25,-550" stroke="#1e90ff" />
<path d="M28,-517.5 L28,-550" stroke="#1e90ff" />
<path d="M29,-517.5 L29,-550" stroke="#1e90ff" />
<path d="M32,-517.5 L32,-550" stroke="#1e90ff" />
<path d="M33,-517.5 L33,-550" stroke="#1e90ff" />
<path d="M40,-517.5 L40,-550" stroke="#1e90ff" />
<path d="M43,-517.5 L43,-550" stroke="#1e90ff" />
<path d="M44,-517.5 L44,-550" stroke="#1e90ff" />
<path d="M46,-517.5 L46,-550" stroke="#1e90ff" />
<path d="M48,-517.5 L48,-550" stroke="#1e90ff" />
<path d="M50,-517.5 L50,-550" stroke="#1e90ff" />
<path d="M51,-517.5 L51,-550" stroke="#1e90ff" />
<path d="M55,-517.5 L55,-550" stroke="#1e90ff" />
<path d="M56,-517.5 L56,-550" stroke="#1e90ff" />
<path d="M61,-517.5 L61,-550" stroke="#1e90ff" />
<path d="M62,-517.5 L62,-550" stroke="#1e90ff" />
<path d="M65,-517.5 L65,-550" stroke="#1e90ff" />
<path d="M66,-517.5 L66,-550" stroke="#1e90ff" />
<path d="M67,-517.5 L67,-550" stroke="#1e90ff" />
<path d="M68,-517.5 L68,-550" stroke="#1e90ff" />
<path d="M70,-517.5 L70,-550" stroke="#1e90ff" />
<path d="M71,-517.5 L71,-550" stroke="#1e90ff" />
<path d="M75,-517.5 L75,-550" stroke="#1e90ff" />
<path d="M76,-517.5 L76,-550" stroke="#1e90ff" />
<path d="M79,-517.5 L79,-550" stroke="#1e90ff" />
<path d="M80,-517.5 L80,-550" stroke="#1e90ff" />
<path d="M81,-517.5 L81,-550" stroke="#1e90ff" />
<path d="M84,-517.5 L84,-550" stroke="#1e90ff" />
<path d="M85,-517.5 L85,-550" stroke="#1e90ff" />
<path d="M86,-517.5 L86,-550" stroke="#1e90ff" />
<path d="M88,-517.5 L88,-550" stroke="#1e90ff" />
<path d="M89,-517.5 L89,-550" stroke="#1e90ff" />
<path d="M90,-517.5 L90,-550" stroke="#1e90ff" />
<path d="M92,-517.5 L92,-550" stroke="#1e90ff" />
<path d="M93,-517.5 L93,-550" stroke="#1e90ff" />
<path d="M96,-517.5 L96,-550" stroke="#1e90ff" />
<path d="M97,-517.5 L97,-550" stroke="#1e90ff" />
<path d="M98,-517.5 L98,-550" stroke="#1e90ff" />
<path d="M101,-517.5 L101,-550" stroke="#1e90ff" />
<path d="M102,-517.5 L102,-550" stroke="#1e90ff" />
<path d="M104,-517.5 L104,-550" stroke="#1e90ff" />
<path d="M105,-517.5 L105,-550" stroke="#1e90ff" />
<path d="M107,-517.5 L107,-550" stroke="#1e90ff" />
<path d="M108,-517.5 L108,-550" stroke="#1e90ff" />
<path d="M112,-517.5 L112,-550" stroke="#1e90ff" />
<path d="M113,-517.5 L113,-550" stroke="#1e90ff" />
<path d="M115,-517.5 L115,-550" stroke="#1e90ff" />
<path d="M116,-517.5 L116,-550" stroke="#1e90ff" />
<path d="M117,-517.5 L117,-550" stroke="#1e90ff" />
<path d="M118,-517.5 L118,-550" stroke="#1e90ff" />
<path d="M119,-517.5 L119,-550" stroke="#1e90ff" />
<path d="M120,-517.5 L120,-550" stroke="#1e90ff" />
<path d="M123,-517.5 L123,-550" stroke="#1e90ff" />
<path d="M128,-517.5 L128,-550" stroke="#1e90ff" />
<path d="M130,-517.5 L130,-550" stroke="#1e90ff" />
<path d="M132,-517.5 L132,-550" stroke="#1e90ff" />
<path d="M135,-517.5 L135,-550" stroke="#1e90ff" />
<path d="M136,-517.5 L136,-550" stroke="#1e90ff" />
<path d="M137,-517.5 L137,-550" stroke="#1e90ff" />
<path d="M139,-517.5 L139,-550" stroke="#1e90ff" />
<path d="M141,-517.5 L141,-550" stroke="#1e90ff" />
<path d="M148,-517.5 L148,-550" stroke="#1e90ff" />
<path d="M-156,-550 L-156,-557.5" stroke="#dc143c" />
<path d="M-152,-550 L-152,-557.5" stroke="#dc143c" />
<path d="M-137,-550 L-137,-557.5" stroke="#dc143c" />
<path d="M-103,-550 L-103,-557.5" stroke="#dc143c" />
<path d="M-84,-550 L-84,-557.5" stroke="#dc143c" />
<path d="M-81,-550 L-81,-557.5" stroke="#dc143c" />
<path d="M-34,-550 L-34,-557.5" stroke="#dc143c" />
<path d="M5,-550 L5,-557.5" stroke="#dc143c" />
<path d="M42,-550 L42,-557.5" stroke="#dc143c" />
<path d="M146,-550 L146,-557.5" stroke="#dc143c" />
<rect x="-200" y="-550" width="412" height="25" fill="white" stroke="black" />
<rect x="-200" y="-550" width="32.0" height="25" fill="#dc143c" stroke="black" />
<rect x="-170.0" y="-550" width="97.0" height="25" fill="#ffd700" stroke="black" />
<rect x="163.0" y="-550" width="22.0" height="25" fill="#1e90ff" stroke="black" />
<text x="-290" y="-480" font-size="25" fill="black">RL11R</text>
<path d="M-54,-467.5 L-54,-500" stroke="#1e90ff" />
<path d="M-53,-467.5 L-53,-500" stroke="#1e90ff" />
<path d="M-50,-467.5 L-50,-500" stroke="#1e90ff" />
<path d="M-39,-467.5 L-39,-500" stroke="#1e90ff" />
<path d="M-173,-500 L-173,-507.5" stroke="#dc143c" />
<path d="M-162,-500 L-162,-507.5" stroke="#dc143c" />
<path d="M-158,-500 L-158,-507.5" stroke="#dc143c" />
<path d="M-132,-500 L-132,-507.5" stroke="#dc143c" />
<path d="M18,-500 L18,-507.5" stroke="#dc143c" />
<rect x="-200" y="-500" width="221" height="25" fill="white" stroke="black" />
<rect x="-200" y="-500" width="21.0" height="25" fill="#dc143c" stroke="black" />
<rect x="-174.0" y="-500" width="99.0" height="25" fill="#ffd700" stroke="black" />
<rect x="-36.0" y="-500" width="19.0" height="25" fill="#1e90ff" stroke="black" />
<text x="-290" y="-430" font-size="25" fill="black">RL11Q</text>
<path d="M-46,-417.5 L-46,-450" stroke="#1e90ff" />
<path d="M-44,-417.5 L-44,-450" stroke="#1e90ff" />
<path d="M-42,-417.5 L-42,-450" stroke="#1e90ff" />
<path d="M-41,-417.5 L-41,-450" stroke="#1e90ff" />
<path d="M-37,-417.5 L-37,-450" stroke="#1e90ff" />
<path d="M-122,-450 L-122,-457.5" stroke="#dc143c" />
<path d="M-92,-450 L-92,-457.5" stroke="#dc143c" />
<path d="M-82,-450 L-82,-457.5" stroke="#dc143c" />
<path d="M-75,-450 L-75,-457.5" stroke="#dc143c" />
<path d="M-51,-450 L-51,-457.5" stroke="#dc143c" />
<path d="M-48,-450 L-48,-457.5" stroke="#dc143c" />
<rect x="-200" y="-450" width="208" height="25" fill="white" stroke="black" />
<rect x="-200" y="-450" width="21.0" height="25" fill="#dc143c" stroke="black" />
<rect x="-175.0" y="-450" width="103.0" height="25" fill="#ffd700" stroke="black" />
<rect x="-25.0" y="-450" width="22.0" height="25" fill="#1e90ff" stroke="black" />
<text x="-290" y="-380" font-size="25" fill="black">RL11P</text>
<path d="M-46,-367.5 L-46,-400" stroke="#1e90ff" />
<path d="M-29,-367.5 L-29,-400" stroke="#1e90ff" />
<path d="M-28,-367.5 L-28,-400" stroke="#1e90ff" />
<path d="M-26,-367.5 L-26,-400" stroke="#1e90ff" />
<path d="M-25,-367.5 L-25,-400" stroke="#1e90ff" />
<path d="M-24,-367.5 L-24,-400" stroke="#1e90ff" />
<path d="M-17,-367.5 L-17,-400" stroke="#1e90ff" />
<path d="M-13,-367.5 L-13,-400" stroke="#1e90ff" />
<path d="M-145,-400 L-145,-407.5" stroke="#dc143c" />
<path d="M-114,-400 L-114,-407.5" stroke="#dc143c" />
<path d="M-104,-400 L-104,-407.5" stroke="#dc143c" />
<path d="M-97,-400 L-97,-407.5" stroke="#dc143c" />
<path d="M-73,-400 L-73,-407.5" stroke="#dc143c" />
<path d="M2,-400 L2,-407.5" stroke="#dc143c" />
<rect x="-200" y="-400" width="258" height="25" fill="white" stroke="black" />
<rect x="-200" y="-400" width="24.0" height="25" fill="#dc143c" stroke="black" />
<rect x="-161.0" y="-400" width="91.0" height="25" fill="#ffd700" stroke="black" />
<rect x="18.0" y="-400" width="22.0" height="25" fill="#1e90ff" stroke="black" />
<text x="-290" y="-330" font-size="25" fill="black">RL11O</text>
<path d="M-153,-350 L-153,-357.5" stroke="#dc143c" />
<path d="M-133,-350 L-133,-357.5" stroke="#dc143c" />
<path d="M-112,-350 L-112,-357.5" stroke="#dc143c" />
<path d="M-93,-350 L-93,-357.5" stroke="#dc143c" />
<path d="M-89,-350 L-89,-357.5" stroke="#dc143c" />
<path d="M-76,-350 L-76,-357.5" stroke="#dc143c" />
<path d="M-68,-350 L-68,-357.5" stroke="#dc143c" />
<path d="M-23,-350 L-23,-357.5" stroke="#dc143c" />
<rect x="-200" y="-350" width="230" height="25" fill="white" stroke="black" />
<rect x="-165.0" y="-350" width="100.0" height="25" fill="#ffd700" stroke="black" />
<rect x="-11.0" y="-350" width="22.0" height="25" fill="#1e90ff" stroke="black" />
<text x="-290" y="-280" font-size="25" fill="black">RL11N</text>
<path d="M-135,-267.5 L-135,-300" stroke="#1e90ff" />
<path d="M-128,-267.5 L-128,-300" stroke="#1e90ff" />
<path d="M-161,-300 L-161,-307.5" stroke="#dc143c" />
<rect x="-200" y="-300" width="126" height="25" fill="white" stroke="black" />
<rect x="-200" y="-300" width="32.0" height="25" fill="#dc143c" stroke="black" />
<rect x="-113.0" y="-300" width="22.0" height="25" fill="#1e90ff" stroke="black" />
<text x="-290" y="-230" font-size="25" fill="black">RL11K</text>
<path d="M-55,-217.5 L-55,-250" stroke="#1e90ff" />
<path d="M-54,-217.5 L-54,-250" stroke="#1e90ff" />
<path d="M-53,-217.5 L-53,-250" stroke="#1e90ff" />
<path d="M-45,-217.5 L-45,-250" stroke="#1e90ff" />
<path d="M-183,-250 L-183,-257.5" stroke="#dc143c" />
<path d="M-156,-250 L-156,-257.5" stroke="#dc143c" />
<path d="M-147,-250 L-147,-257.5" stroke="#dc143c" />
<path d="M-126,-250 L-126,-257.5" stroke="#dc143c" />
<path d="M-91,-250 L-91,-257.5" stroke="#dc143c" />
<path d="M-66,-250 L-66,-257.5" stroke="#dc143c" />
<rect x="-200" y="-250" width="220" height="25" fill="white" stroke="black" />
<rect x="-200" y="-250" width="18.0" height="25" fill="#dc143c" stroke="black" />
<rect x="-156.0" y="-250" width="93.0" height="25" fill="#ffd700" stroke="black" />
<rect x="-14.0" y="-250" width="22.0" height="25" fill="#1e90ff" stroke="black" />
<text x="-290" y="-180" font-size="25" fill="black">RL11J</text>
<path d="M-76,-167.5 L-76,-200" stroke="#1e90ff" />
<path d="M-73,-167.5 L-73,-200" stroke="#1e90ff" />
<path d="M-70,-167.5 L-70,-200" stroke="#1e90ff" />
<path d="M-69,-167.5 L-69,-200" stroke="#1e90ff" />
<path d="M-85,-200 L-85,-207.5" stroke="#dc143c" />
<path d="M-49,-200 L-49,-207.5" stroke="#dc143c" />
<rect x="-200" y="-200" width="205" height="25" fill="white" stroke="black" />
<rect x="-200" y="-200" width="16.0" height="25" fill="#dc143c" stroke="black" />
<rect x="-177.0" y="-200" width="95.0" height="25" fill="#ffd700" stroke="black" />
<rect x="-38.0" y="-200" width="22.0" height="25" fill="#1e90ff" stroke="black" />
<text x="-290" y="-130" font-size="25" fill="black">RL11H</text>
<path d="M-171,-117.5 L-171,-150" stroke="#1e90ff" />
<path d="M-170,-117.5 L-170,-150" stroke="#1e90ff" />
<path d="M-167,-117.5 L-167,-150" stroke="#1e90ff" />
<path d="M-163,-117.5 L-163,-150" stroke="#1e90ff" />
<path d="M-157,-117.5 L-157,-150" stroke="#1e90ff" />
<path d="M-153,-117.5 L-153,-150" stroke="#1e90ff" />
<path d="M-150,-117.5 L-150,-150" stroke="#1e90ff" />
<path d="M-149,-117.5 L-149,-150" stroke="#1e90ff" />
<path d="M-20,-117.5 L-20,-150" stroke="#1e90ff" />
<path d="M-19,-117.5 L-19,-150" stroke="#1e90ff" />
<path d="M-13,-117.5 L-13,-150" stroke="#1e90ff" />
<path d="M-12,-117.5 L-12,-150" stroke="#1e90ff" />
<path d="M-11,-117.5 L-11,-150" stroke="#1e90ff" />
<path d="M7,-117.5 L7,-150" stroke="#1e90ff" />
<path d="M-169,-150 L-169,-157.5" stroke="#dc143c" />
<path d="M-155,-150 L-155,-157.5" stroke="#dc143c" />
<path d="M-114,-150 L-114,-157.5" stroke="#dc143c" />
<path d="M-110,-150 L-110,-157.5" stroke="#dc143c" />
<path d="M-104,-150 L-104,-157.5" stroke="#dc143c" />
<path d="M-68,-150 L-68,-157.5" stroke="#dc143c" />
<path d="M-58,-150 L-58,-157.5" stroke="#dc143c" />
<path d="M-37,-150 L-37,-157.5" stroke="#dc143c" />
<path d="M-30,-150 L-30,-157.5" stroke="#dc143c" />
<path d="M-21,-150 L-21,-157.5" stroke="#dc143c" />
<path d="M35,-150 L35,-157.5" stroke="#dc143c" />
<rect x="-200" y="-150" width="289" height="25" fill="white" stroke="black" />
<rect x="-200" y="-150" width="27.0" height="25" fill="#dc143c" stroke="black" />
<rect x="-123.0" y="-150" width="96.0" height="25" fill="#ffd700" stroke="black" />
<rect x="40.0" y="-150" width="22.0" height="25" fill="#1e90ff" stroke="black" />
<text x="-290" y="-80" font-size="25" fill="black">RL11G</text>
<path d="M-26,-67.5 L-26,-100" stroke="#1e90ff" />
<path d="M-25,-67.5 L-25,-100" stroke="#1e90ff" />
<path d="M-21,-67.5 L-21,-100" stroke="#1e90ff" />
<path d="M-20,-67.5 L-20,-100" stroke="#1e90ff" />
<path d="M-19,-67.5 L-19,-100" stroke="#1e90ff" />
<path d="M-18,-67.5 L-18,-100" stroke="#1e90ff" />
<path d="M-17,-67.5 L-17,-100" stroke="#1e90ff" />
<path d="M-16,-67.5 L-16,-100" stroke="#1e90ff" />
<path d="M-14,-67.5 L-14,-100" stroke="#1e90ff" />
<path d="M-13,-67.5 L-13,-100" stroke="#1e90ff" />
<path d="M-12,-67.5 L-12,-100" stroke="#1e90ff" />
<path d="M-11,-67.5 L-11,-100" stroke="#1e90ff" />
<path d="M-7,-67.5 L-7,-100" stroke="#1e90ff" />
<path d="M-6,-67.5 L-6,-100" stroke="#1e90ff" />
<path d="M-5,-67.5 L-5,-100" stroke="#1e90ff" />
<path d="M-2,-67.5 L-2,-100" stroke="#1e90ff" />
<path d="M-1,-67.5 L-1,-100" stroke="#1e90ff" />
<path d="M3,-67.5 L3,-100" stroke="#1e90ff" />
<path d="M5,-67.5 L5,-100" stroke="#1e90ff" />
<path d="M7,-67.5 L7,-100" stroke="#1e90ff" />
<path d="M9,-67.5 L9,-100" stroke="#1e90ff" />
<path d="M12,-67.5 L12,-100" stroke="#1e90ff" />
<path d="M15,-67.5 L15,-100" stroke="#1e90ff" />
<path d="M17,-67.5 L17,-100" stroke="#1e90ff" />
<path d="M18,-67.5 L18,-100" stroke="#1e90ff" />
<path d="M20,-67.5 L20,-100" stroke="#1e90ff" />
<path d="M21,-67.5 L21,-100" stroke="#1e90ff" />
<path d="M28,-67.5 L28,-100" stroke="#1e90ff" />
<path d="M-160,-100 L-160,-107.5" stroke="#dc143c" />
<path d="M-138,-100 L-138,-107.5" stroke="#dc143c" />
<path d="M-96,-100 L-96,-107.5" stroke="#dc143c" />
<path d="M-84,-100 L-84,-107.5" stroke="#dc143c" />
<path d="M-47,-100 L-47,-107.5" stroke="#dc143c" />
<path d="M-34,-100 L-34,-107.5" stroke="#dc143c" />
<rect x="-200" y="-100" width="316" height="25" fill="white" stroke="black" />
<rect x="-200" y="-100" width="21.0" height="25" fill="#dc143c" stroke="black" />
<rect x="-168.0" y="-100" width="105.0" height="25" fill="#ffd700" stroke="black" />
<rect x="33.0" y="-100" width="22.0" height="25" fill="#1e90ff" stroke="black" />
<text x="-290" y="-30" font-size="25" fill="black">RL11F</text>
<path d="M-47,-17.5 L-47,-50" stroke="#1e90ff" />
<path d="M-174,-50 L-174,-57.5" stroke="#dc143c" />
<path d="M-146,-50 L-146,-57.5" stroke="#dc143c" />
<path d="M-108,-50 L-108,-57.5" stroke="#dc143c" />
<path d="M-98,-50 L-98,-57.5" stroke="#dc143c" />
<path d="M-73,-50 L-73,-57.5" stroke="#dc143c" />
<rect x="-200" y="-50" width="208" height="25" fill="white" stroke="black" />
<rect x="-200" y="-50" width="17.0" height="25" fill="#dc143c" stroke="black" />
<rect x="-183.0" y="-50" width="115.0" height="25" fill="#ffd700" stroke="black" />
<rect x="-26.0" y="-50" width="22.0" height="25" fill="#1e90ff" stroke="black" />
<text x="-290" y="20" font-size="25" fill="black">RL11D2</text>
<path d="M-195,0 L-195,-7.5" stroke="#dc143c" />
<path d="M-158,0 L-158,-7.5" stroke="#dc143c" />
<path d="M-149,0 L-149,-7.5" stroke="#dc143c" />
<path d="M-141,0 L-141,-7.5" stroke="#dc143c" />
<path d="M-133,0 L-133,-7.5" stroke="#dc143c" />
<path d="M-104,0 L-104,-7.5" stroke="#dc143c" />
<path d="M-97,0 L-97,-7.5" stroke="#dc143c" />
<path d="M-72,0 L-72,-7.5" stroke="#dc143c" />
<path d="M-51,0 L-51,-7.5" stroke="#dc143c" />
<path d="M15,0 L15,-7.5" stroke="#dc143c" />
<rect x="-200" y="0" width="219" height="25" fill="white" stroke="black" />
<rect x="-161.0" y="0" width="117.0" height="25" fill="#ffd700" stroke="black" />
<rect x="-21.0" y="0" width="22.0" height="25" fill="#1e90ff" stroke="black" />
<text x="-290" y="70" font-size="25" fill="black">RL11D1</text>
<path d="M-162,50 L-162,42.5" stroke="#dc143c" />
<path d="M-154,50 L-154,42.5" stroke="#dc143c" />
<path d="M-146,50 L-146,42.5" stroke="#dc143c" />
<path d="M-70,50 L-70,42.5" stroke="#dc143c" />
<rect x="-200" y="50" width="201" height="25" fill="white" stroke="black" />
<rect x="-167.0" y="50" width="109.0" height="25" fill="#ffd700" stroke="black" />
<rect x="-27.0" y="50" width="22.0" height="25" fill="#1e90ff" stroke="black" />
<text x="-290" y="120" font-size="25" fill="black">RL11B4</text>
<path d="M-104,100 L-104,92.5" stroke="#dc143c" />
<path d="M-92,100 L-92,92.5" stroke="#dc143c" />
<path d="M-85,100 L-85,92.5" stroke="#dc143c" />
<rect x="-200" y="100" width="199" height="25" fill="white" stroke="black" />
<rect x="-170.0" y="100" width="108.0" height="25" fill="#ffd700" stroke="black" />
<rect x="-33.0" y="100" width="22.0" height="25" fill="#1e90ff" stroke="black" />
<text x="-290" y="170" font-size="25" fill="black">RL11B3</text>
<path d="M-97,182.5 L-97,150" stroke="#1e90ff" />
<path d="M-72,182.5 L-72,150" stroke="#1e90ff" />
<path d="M-70,182.5 L-70,150" stroke="#1e90ff" />
<path d="M-69,182.5 L-69,150" stroke="#1e90ff" />
<path d="M-176,150 L-176,142.5" stroke="#dc143c" />
<path d="M-125,150 L-125,142.5" stroke="#dc143c" />
<path d="M-117,150 L-117,142.5" stroke="#dc143c" />
<rect x="-200" y="150" width="178" height="25" fill="white" stroke="black" />
<rect x="-195.0" y="150" width="111.0" height="25" fill="#ffd700" stroke="black" />
<rect x="-52.0" y="150" width="22.0" height="25" fill="#1e90ff" stroke="black" />
<text x="-290" y="220" font-size="25" fill="black">RL11B2</text>
<path d="M-52,232.5 L-52,200" stroke="#1e90ff" />
<path d="M-51,232.5 L-51,200" stroke="#1e90ff" />
<path d="M-48,232.5 L-48,200" stroke="#1e90ff" />
<path d="M-42,232.5 L-42,200" stroke="#1e90ff" />
<path d="M-41,232.5 L-41,200" stroke="#1e90ff" />
<path d="M-162,200 L-162,192.5" stroke="#dc143c" />
<path d="M-96,200 L-96,192.5" stroke="#dc143c" />
<path d="M-73,200 L-73,192.5" stroke="#dc143c" />
<path d="M-61,200 L-61,192.5" stroke="#dc143c" />
<rect x="-200" y="200" width="220" height="25" fill="white" stroke="black" />
<rect x="-200" y="200" width="26.0" height="25" fill="#dc143c" stroke="black" />
<rect x="-172.0" y="200" width="112.0" height="25" fill="#ffd700" stroke="black" />
<rect x="-9.0" y="200" width="22.0" height="25" fill="#1e90ff" stroke="black" />
<text x="-290" y="270" font-size="25" fill="black">RL11B1</text>
<path d="M-67,282.5 L-67,250" stroke="#1e90ff" />
<path d="M-30,282.5 L-30,250" stroke="#1e90ff" />
<path d="M-27,282.5 L-27,250" stroke="#1e90ff" />
<path d="M-26,282.5 L-26,250" stroke="#1e90ff" />
<path d="M-25,282.5 L-25,250" stroke="#1e90ff" />
<path d="M-22,282.5 L-22,250" stroke="#1e90ff" />
<path d="M-21,282.5 L-21,250" stroke="#1e90ff" />
<path d="M-20,282.5 L-20,250" stroke="#1e90ff" />
<path d="M-14,282.5 L-14,250" stroke="#1e90ff" />
<path d="M-13,282.5 L-13,250" stroke="#1e90ff" />
<path d="M-141,250 L-141,242.5" stroke="#dc143c" />
<path d="M-118,250 L-118,242.5" stroke="#dc143c" />
<path d="M-70,250 L-70,242.5" stroke="#dc143c" />
<path d="M-42,250 L-42,242.5" stroke="#dc143c" />
<path d="M-15,250 L-15,242.5" stroke="#dc143c" />
<rect x="-200" y="250" width="234" height="25" fill="white" stroke="black" />
<rect x="-151.0" y="250" width="110.0" height="25" fill="#ffd700" stroke="black" />
<rect x="4.0" y="250" width="22.0" height="25" fill="#1e90ff" stroke="black" />
<text x="-290" y="320" font-size="25" fill="black">RL11A</text>
<path d="M-48,332.5 L-48,300" stroke="#1e90ff" />
<path d="M-171,300 L-171,292.5" stroke="#dc143c" />
<path d="M-160,300 L-160,292.5" stroke="#dc143c" />
<path d="M-156,300 L-156,292.5" stroke="#dc143c" />
<path d="M-141,300 L-141,292.5" stroke="#dc143c" />
<path d="M-102,300 L-102,292.5" stroke="#dc143c" />
<path d="M-71,300 L-71,292.5" stroke="#dc143c" />
<rect x="-200" y="300" width="255" height="25" fill="white" stroke="black" />
<rect x="-200" y="300" width="21.0" height="25" fill="#dc143c" stroke="black" />
<rect x="-174.0" y="300" width="106.0" height="25" fill="#ffd700" stroke="black" />
<rect x="-27.0" y="300" width="22.0" height="25" fill="#1e90ff" stroke="black" />
</svg>