<?xml version="1.0" encoding="UTF-8"?>
<svg xmlns="http://www.w3.org/2000/svg" xmlns:xlink="http://www.w3.org/1999/xlink"
     width="800" height="1400" viewBox="-400.0 -700.0 800 1400">
<defs>
</defs>
<text x="-290" y="-650" font-size="25" fill="black">panine_betaherpesvirus_2</text>
<text x="-290" y="-580" font-size="25" fill="black">RL11</text>
<path d="M-119,-567.5 L-119,-600" stroke="#1e90ff" />
<path d="M-112,-567.5 L-112,-600" stroke="#1e90ff" />
<path d="M-111,-567.5 L-111,-600" stroke="#1e90ff" />
<path d="M-40,-567.5 L-40,-600" stroke="#1e90ff" />
<path d="M-34,-567.5 L-34,-600" stroke="#1e90ff" />
<path d="M-153,-600 L-153,-607.5" stroke="#dc143c" />
<path d="M-145,-600 L-145,-607.5" stroke="#dc143c" />
<path d="M-91,-600 L-91,-607.5" stroke="#dc143c" />
<path d="M-21,-600 L-21,-607.5" stroke="#dc143c" />
<rect x="-200" y="-600" width="232" height="25" fill="white" stroke="black" />
<rect x="-200" y="-600" width="30.0" height="25" fill="#dc143c" stroke="black" />
<rect x="-172.0" y="-600" width="107.0" height="25" fill="#ffd700" stroke="black" />
<rect x="-18.0" y="-600" width="22.0" height="25" fill="#1e90ff" stroke="black" />
<text x="-290" y="-530" font-size="25" fill="black">RL12</text>
<path d="M-85,-517.5 L-85,-550" stroke="#1e90ff" />
<path d="M-81,-517.5 L-81,-550" stroke="#1e90ff" />
<path d="M-77,-517.5 L-77,-550" stroke="#1e90ff" />
<path d="M-76,-517.5 L-76,-550" stroke="#1e90ff" />
<path d="M-73,-517.5 L-73,-550" stroke="#1e90ff" />
<path d="M-70,-517.5 L-70,-550" stroke="#1e90ff" />
<path d="M-68,-517.5 L-68,-550" stroke="#1e90ff" />
<path d="M-67,-517.5 L-67,-550" stroke="#1e90ff" />
<path d="M-66,-517.5 L-66,-550" stroke="#1e90ff" />
<path d="M-65,-517.5 L-65,-550" stroke="#1e90ff" />
<path d="M-64,-517.5 L-64,-550" stroke="#1e90ff" />
<path d="M-60,-517.5 L-60,-550" stroke="#1e90ff" />
<path d="M-59,-517.5 L-59,-550" stroke="#1e90ff" />
<path d="M-58,-517.5 L-58,-550" stroke="#1e90ff" />
<path d="M-57,-517.5 L-57,-550" stroke="#1e90ff" />
<path d="M-55,-517.5 L-55,-550" stroke="#1e90ff" />
<path d="M-53,-517.5 L-53,-550" stroke="#1e90ff" />
<path d="M-51,-517.5 L-51,-550" stroke="#1e90ff" />
<path d="M-47,-517.5 L-47,-550" stroke="#1e90ff" />
<path d="M-46,-517.5 L-46,-550" stroke="#1e90ff" />
<path d="M-45,-517.5 L-45,-550" stroke="#1e90ff" />
<path d="M-39,-517.5 L-39,-550" stroke="#1e90ff" />
<path d="M-38,-517.5 L-38,-550" stroke="#1e90ff" />
<path d="M-35,-517.5 L-35,-550" stroke="#1e90ff" />
<path d="M-34,-517.5 L-34,-550" stroke="#1e90ff" />
<path d="M-32,-517.5 L-32,-550" stroke="#1e90ff" />
<path d="M-30,-517.5 L-30,-550" stroke="#1e90ff" />
<path d="M-28,-517.5 L-28,-550" stroke="#1e90ff" />
<path d="M-27,-517.5 L-27,-550" stroke="#1e90ff" />
<path d="M-26,-517.5 L-26,-550" stroke="#1e90ff" />
<path d="M-23,-517.5 L-23,-550" stroke="#1e90ff" />
<path d="M-22,-517.5 L-22,-550" stroke="#1e90ff" />
<path d="M-21,-517.5 L-21,-550" stroke="#1e90ff" />
<path d="M-20,-517.5 L-20,-550" stroke="#1e90ff" />
<path d="M-19,-517.5 L-19,-550" stroke="#1e90ff" />
<path d="M-18,-517.5 L-18,-550" stroke="#1e90ff" />
<path d="M-16,-517.5 L-16,-550" stroke="#1e90ff" />
<path d="M-12,-517.5 L-12,-550" stroke="#1e90ff" />
<path d="M-11,-517.5 L-11,-550" stroke="#1e90ff" />
<path d="M-9,-517.5 L-9,-550" stroke="#1e90ff" />
<path d="M-6,-517.5 L-6,-550" stroke="#1e90ff" />
<path d="M-5,-517.5 L-5,-550" stroke="#1e90ff" />
<path d="M-4,-517.5 L-4,-550" stroke="#1e90ff" />
<path d="M3,-517.5 L3,-550" stroke="#1e90ff" />
<path d="M7,-517.5 L7,-550" stroke="#1e90ff" />
<path d="M8,-517.5 L8,-550" stroke="#1e90ff" />
<path d="M10,-517.5 L10,-550" stroke="#1e90ff" />
<path d="M11,-517.5 L11,-550" stroke="#1e90ff" />
<path d="M13,-517.5 L13,-550" stroke="#1e90ff" />
<path d="M15,-517.5 L15,-550" stroke="#1e90ff" />
<path d="M17,-517.5 L17,-550" stroke="#1e90ff" />
<path d="M18,-517.5 L18,-550" stroke="#1e90ff" />
<path d="M19,-517.5 L19,-550" stroke="#1e90ff" />
<path d="M22,-517.5 L22,-550" stroke="#1e90ff" />
<path d="M25,-517.5 L25,-550" stroke="#1e90ff" />
<path d="M30,-517.5 L30,-550" stroke="#1e90ff" />
<path d="M31,-517.5 L31,-550" stroke="#1e90ff" />
<path d="M33,-517.5 L33,-550" stroke="#1e90ff" />
<path d="M34,-517.5 L34,-550" stroke="#1e90ff" />
<path d="M101,-517.5 L101,-550" stroke="#1e90ff" />
<path d="M159,-517.5 L159,-550" stroke="#1e90ff" />
<path d="M162,-517.5 L162,-550" stroke="#1e90ff" />
<path d="M171,-517.5 L171,-550" stroke="#1e90ff" />
<path d="M173,-517.5 L173,-550" stroke="#1e90ff" />
<path d="M174,-517.5 L174,-550" stroke="#1e90ff" />
<path d="M178,-517.5 L178,-550" stroke="#1e90ff" />
<path d="M179,-517.5 L179,-550" stroke="#1e90ff" />
<path d="M-86,-550 L-86,-557.5" stroke="#dc143c" />
<path d="M-83,-550 L-83,-557.5" stroke="#dc143c" />
<path d="M-79,-550 L-79,-557.5" stroke="#dc143c" />
<path d="M-75,-550 L-75,-557.5" stroke="#dc143c" />
<path d="M-72,-550 L-72,-557.5" stroke="#dc143c" />
<path d="M-49,-550 L-49,-557.5" stroke="#dc143c" />
<path d="M-40,-550 L-40,-557.5" stroke="#dc143c" />
<path d="M-36,-550 L-36,-557.5" stroke="#dc143c" />
<path d="M-13,-550 L-13,-557.5" stroke="#dc143c" />
<path d="M1,-550 L1,-557.5" stroke="#dc143c" />
<path d="M9,-550 L9,-557.5" stroke="#dc143c" />
<path d="M29,-550 L29,-557.5" stroke="#dc143c" />
<path d="M59,-550 L59,-557.5" stroke="#dc143c" />
<path d="M65,-550 L65,-557.5" stroke="#dc143c" />
<path d="M70,-550 L70,-557.5" stroke="#dc143c" />
<path d="M81,-550 L81,-557.5" stroke="#dc143c" />
<path d="M120,-550 L120,-557.5" stroke="#dc143c" />
<path d="M154,-550 L154,-557.5" stroke="#dc143c" />
<path d="M160,-550 L160,-557.5" stroke="#dc143c" />
<path d="M185,-550 L185,-557.5" stroke="#dc143c" />
<rect x="-200" y="-550" width="449" height="25" fill="white" stroke="black" />
<rect x="39.0" y="-550" width="114.0" height="25" fill="#ffd700" stroke="black" />
<rect x="202.0" y="-550" width="17.0" height="25" fill="#1e90ff" stroke="black" />
<text x="-290" y="-480" font-size="25" fill="black">RL13</text>
<path d="M-176,-467.5 L-176,-500" stroke="#1e90ff" />
<path d="M-173,-467.5 L-173,-500" stroke="#1e90ff" />
<path d="M-172,-467.5 L-172,-500" stroke="#1e90ff" />
<path d="M-170,-467.5 L-170,-500" stroke="#1e90ff" />
<path d="M-168,-467.5 L-168,-500" stroke="#1e90ff" />
<path d="M-167,-467.5 L-167,-500" stroke="#1e90ff" />
<path d="M-166,-467.5 L-166,-500" stroke="#1e90ff" />
<path d="M-165,-467.5 L-165,-500" stroke="#1e90ff" />
<path d="M-162,-467.5 L-162,-500" stroke="#1e90ff" />
<path d="M-161,-467.5 L-161,-500" stroke="#1e90ff" />
<path d="M-160,-467.5 L-160,-500" stroke="#1e90ff" />
<path d="M-159,-467.5 L-159,-500" stroke="#1e90ff" />
<path d="M-158,-467.5 L-158,-500" stroke="#1e90ff" />
<path d="M-156,-467.5 L-156,-500" stroke="#1e90ff" />
<path d="M-153,-467.5 L-153,-500" stroke="#1e90ff" />
<path d="M-152,-467.5 L-152,-500" stroke="#1e90ff" />
<path d="M-150,-467.5 L-150,-500" stroke="#1e90ff" />
<path d="M-147,-467.5 L-147,-500" stroke="#1e90ff" />
<path d="M-146,-467.5 L-146,-500" stroke="#1e90ff" />
<path d="M-144,-467.5 L-144,-500" stroke="#1e90ff" />
<path d="M-143,-467.5 L-143,-500" stroke="#1e90ff" />
<path d="M-142,-467.5 L-142,-500" stroke="#1e90ff" />
<path d="M-141,-467.5 L-141,-500" stroke="#1e90ff" />
<path d="M-139,-467.5 L-139,-500" stroke="#1e90ff" />
<path d="M-138,-467.5 L-138,-500" stroke="#1e90ff" />
<path d="M-137,-467.5 L-137,-500" stroke="#1e90ff" />
<path d="M-136,-467.5 L-136,-500" stroke="#1e90ff" />
<path d="M-135,-467.5 L-135,-500" stroke="#1e90ff" />
<path d="M-133,-467.5 L-133,-500" stroke="#1e90ff" />
<path d="M-132,-467.5 L-132,-500" stroke="#1e90ff" />
<path d="M-131,-467.5 L-131,-500" stroke="#1e90ff" />
<path d="M-130,-467.5 L-130,-500" stroke="#1e90ff" />
<path d="M-128,-467.5 L-128,-500" stroke="#1e90ff" />
<path d="M-127,-467.5 L-127,-500" stroke="#1e90ff" />
<path d="M-126,-467.5 L-126,-500" stroke="#1e90ff" />
<path d="M-125,-467.5 L-125,-500" stroke="#1e90ff" />
<path d="M-124,-467.5 L-124,-500" stroke="#1e90ff" />
<path d="M-122,-467.5 L-122,-500" stroke="#1e90ff" />
<path d="M-119,-467.5 L-119,-500" stroke="#1e90ff" />
<path d="M-118,-467.5 L-118,-500" stroke="#1e90ff" />
<path d="M-115,-467.5 L-115,-500" stroke="#1e90ff" />
<path d="M-114,-467.5 L-114,-500" stroke="#1e90ff" />
<path d="M-112,-467.5 L-112,-500" stroke="#1e90ff" />
<path d="M-111,-467.5 L-111,-500" stroke="#1e90ff" />
<path d="M-110,-467.5 L-110,-500" stroke="#1e90ff" />
<path d="M-109,-467.5 L-109,-500" stroke="#1e90ff" />
<path d="M-106,-467.5 L-106,-500" stroke="#1e90ff" />
<path d="M-105,-467.5 L-105,-500" stroke="#1e90ff" />
<path d="M-103,-467.5 L-103,-500" stroke="#1e90ff" />
<path d="M-102,-467.5 L-102,-500" stroke="#1e90ff" />
<path d="M-101,-467.5 L-101,-500" stroke="#1e90ff" />
<path d="M-98,-467.5 L-98,-500" stroke="#1e90ff" />
<path d="M-97,-467.5 L-97,-500" stroke="#1e90ff" />
<path d="M-96,-467.5 L-96,-500" stroke="#1e90ff" />
<path d="M-95,-467.5 L-95,-500" stroke="#1e90ff" />
<path d="M-94,-467.5 L-94,-500" stroke="#1e90ff" />
<path d="M-92,-467.5 L-92,-500" stroke="#1e90ff" />
<path d="M-91,-467.5 L-91,-500" stroke="#1e90ff" />
<path d="M-90,-467.5 L-90,-500" stroke="#1e90ff" />
<path d="M-87,-467.5 L-87,-500" stroke="#1e90ff" />
<path d="M-86,-467.5 L-86,-500" stroke="#1e90ff" />
<path d="M-85,-467.5 L-85,-500" stroke="#1e90ff" />
<path d="M-84,-467.5 L-84,-500" stroke="#1e90ff" />
<path d="M-83,-467.5 L-83,-500" stroke="#1e90ff" />
<path d="M52,-467.5 L52,-500" stroke="#1e90ff" />
<path d="M53,-467.5 L53,-500" stroke="#1e90ff" />
<path d="M55,-467.5 L55,-500" stroke="#1e90ff" />
<path d="M64,-467.5 L64,-500" stroke="#1e90ff" />
<path d="M-154,-500 L-154,-507.5" stroke="#dc143c" />
<path d="M-145,-500 L-145,-507.5" stroke="#dc143c" />
<path d="M-129,-500 L-129,-507.5" stroke="#dc143c" />
<path d="M-76,-500 L-76,-507.5" stroke="#dc143c" />
<path d="M-60,-500 L-60,-507.5" stroke="#dc143c" />
<path d="M-52,-500 L-52,-507.5" stroke="#dc143c" />
<path d="M-45,-500 L-45,-507.5" stroke="#dc143c" />
<rect x="-200" y="-500" width="333" height="25" fill="white" stroke="black" />
<rect x="-200" y="-500" width="23.0" height="25" fill="#dc143c" stroke="black" />
<rect x="-69.0" y="-500" width="103.0" height="25" fill="#ffd700" stroke="black" />
<rect x="81.0" y="-500" width="22.0" height="25" fill="#1e90ff" stroke="black" />
<text x="-290" y="-430" font-size="25" fill="black">UL5</text>
<path d="M-162,-417.5 L-162,-450" stroke="#1e90ff" />
<path d="M-156,-417.5 L-156,-450" stroke="#1e90ff" />
<path d="M-155,-417.5 L-155,-450" stroke="#1e90ff" />
<path d="M-154,-417.5 L-154,-450" stroke="#1e90ff" />
<path d="M-149,-417.5 L-149,-450" stroke="#1e90ff" />
<path d="M-148,-417.5 L-148,-450" stroke="#1e90ff" />
<path d="M-141,-417.5 L-141,-450" stroke="#1e90ff" />
<path d="M-135,-417.5 L-135,-450" stroke="#1e90ff" />
<path d="M-134,-417.5 L-134,-450" stroke="#1e90ff" />
<path d="M-131,-417.5 L-131,-450" stroke="#1e90ff" />
<path d="M-129,-417.5 L-129,-450" stroke="#1e90ff" />
<path d="M-128,-417.5 L-128,-450" stroke="#1e90ff" />
<path d="M-127,-417.5 L-127,-450" stroke="#1e90ff" />
<path d="M-126,-417.5 L-126,-450" stroke="#1e90ff" />
<path d="M-143,-450 L-143,-457.5" stroke="#dc143c" />
<path d="M-137,-450 L-137,-457.5" stroke="#dc143c" />
<rect x="-200" y="-450" width="151" height="25" fill="white" stroke="black" />
<rect x="-200" y="-450" width="47.0" height="25" fill="#dc143c" stroke="black" />
<rect x="-100.0" y="-450" width="22.0" height="25" fill="#1e90ff" stroke="black" />
<text x="-290" y="-380" font-size="25" fill="black">UL6</text>
<path d="M-145,-400 L-145,-407.5" stroke="#dc143c" />
<path d="M-135,-400 L-135,-407.5" stroke="#dc143c" />
<path d="M-127,-400 L-127,-407.5" stroke="#dc143c" />
<path d="M-118,-400 L-118,-407.5" stroke="#dc143c" />
<path d="M-53,-400 L-53,-407.5" stroke="#dc143c" />
<path d="M0,-400 L0,-407.5" stroke="#dc143c" />
<path d="M27,-400 L27,-407.5" stroke="#dc143c" />
<rect x="-200" y="-400" width="283" height="25" fill="white" stroke="black" />
<rect x="-200" y="-400" width="36.0" height="25" fill="#dc143c" stroke="black" />
<rect x="-148.0" y="-400" width="98.0" height="25" fill="#ffd700" stroke="black" />
<rect x="37.0" y="-400" width="22.0" height="25" fill="#1e90ff" stroke="black" />
<text x="-290" y="-330" font-size="25" fill="black">UL7</text>
<path d="M-155,-317.5 L-155,-350" stroke="#1e90ff" />
<path d="M-49,-317.5 L-49,-350" stroke="#1e90ff" />
<path d="M-48,-317.5 L-48,-350" stroke="#1e90ff" />
<path d="M-143,-350 L-143,-357.5" stroke="#dc143c" />
<path d="M-128,-350 L-128,-357.5" stroke="#dc143c" />
<path d="M-108,-350 L-108,-357.5" stroke="#dc143c" />
<path d="M-94,-350 L-94,-357.5" stroke="#dc143c" />
<path d="M-82,-350 L-82,-357.5" stroke="#dc143c" />
<path d="M-67,-350 L-67,-357.5" stroke="#dc143c" />
<rect x="-200" y="-350" width="213" height="25" fill="white" stroke="black" />
<rect x="-200" y="-350" width="36.0" height="25" fill="#dc143c" stroke="black" />
<rect x="-163.0" y="-350" width="99.0" height="25" fill="#ffd700" stroke="black" />
<rect x="-15.0" y="-350" width="22.0" height="25" fill="#1e90ff" stroke="black" />
<text x="-290" y="-280" font-size="25" fill="black">UL8</text>
<path d="M-196,-267.5 L-196,-300" stroke="#1e90ff" />
<path d="M-191,-267.5 L-191,-300" stroke="#1e90ff" />
<path d="M-190,-267.5 L-190,-300" stroke="#1e90ff" />
<path d="M-183,-267.5 L-183,-300" stroke="#1e90ff" />
<path d="M-181,-267.5 L-181,-300" stroke="#1e90ff" />
<path d="M-180,-267.5 L-180,-300" stroke="#1e90ff" />
<path d="M-176,-267.5 L-176,-300" stroke="#1e90ff" />
<path d="M-163,-267.5 L-163,-300" stroke="#1e90ff" />
<path d="M-162,-267.5 L-162,-300" stroke="#1e90ff" />
<path d="M-161,-267.5 L-161,-300" stroke="#1e90ff" />
<path d="M-157,-267.5 L-157,-300" stroke="#1e90ff" />
<path d="M-156,-267.5 L-156,-300" stroke="#1e90ff" />
<path d="M-153,-267.5 L-153,-300" stroke="#1e90ff" />
<path d="M-152,-267.5 L-152,-300" stroke="#1e90ff" />
<path d="M-150,-267.5 L-150,-300" stroke="#1e90ff" />
<path d="M-147,-267.5 L-147,-300" stroke="#1e90ff" />
<path d="M-144,-267.5 L-144,-300" stroke="#1e90ff" />
<path d="M-143,-267.5 L-143,-300" stroke="#1e90ff" />
<path d="M-142,-267.5 L-142,-300" stroke="#1e90ff" />
<path d="M-141,-267.5 L-141,-300" stroke="#1e90ff" />
<path d="M-139,-267.5 L-139,-300" stroke="#1e90ff" />
<path d="M-138,-267.5 L-138,-300" stroke="#1e90ff" />
<path d="M-137,-267.5 L-137,-300" stroke="#1e90ff" />
<path d="M-133,-267.5 L-133,-300" stroke="#1e90ff" />
<path d="M-132,-267.5 L-132,-300" stroke="#1e90ff" />
<path d="M-131,-267.5 L-131,-300" stroke="#1e90ff" />
<path d="M-129,-267.5 L-129,-300" stroke="#1e90ff" />
<path d="M-128,-267.5 L-128,-300" stroke="#1e90ff" />
<path d="M-127,-267.5 L-127,-300" stroke="#1e90ff" />
<path d="M-123,-267.5 L-123,-300" stroke="#1e90ff" />
<path d="M-122,-267.5 L-122,-300" stroke="#1e90ff" />
<path d="M-120,-267.5 L-120,-300" stroke="#1e90ff" />
<path d="M-118,-267.5 L-118,-300" stroke="#1e90ff" />
<path d="M-117,-267.5 L-117,-300" stroke="#1e90ff" />
<path d="M-116,-267.5 L-116,-300" stroke="#1e90ff" />
<path d="M-113,-267.5 L-113,-300" stroke="#1e90ff" />
<path d="M-112,-267.5 L-112,-300" stroke="#1e90ff" />
<path d="M-110,-267.5 L-110,-300" stroke="#1e90ff" />
<path d="M-109,-267.5 L-109,-300" stroke="#1e90ff" />
<path d="M-108,-267.5 L-108,-300" stroke="#1e90ff" />
<path d="M-107,-267.5 L-107,-300" stroke="#1e90ff" />
<path d="M-106,-267.5 L-106,-300" stroke="#1e90ff" />
<path d="M-198,-300 L-198,-307.5" stroke="#dc143c" />
<path d="M-178,-300 L-178,-307.5" stroke="#dc143c" />
<path d="M-119,-300 L-119,-307.5" stroke="#dc143c" />
<rect x="-200" y="-300" width="168" height="25" fill="white" stroke="black" />
<rect x="-80.0" y="-300" width="22.0" height="25" fill="#1e90ff" stroke="black" />
<text x="-290" y="-230" font-size="25" fill="black">UL9</text>
<path d="M-166,-250 L-166,-257.5" stroke="#dc143c" />
<path d="M-154,-250 L-154,-257.5" stroke="#dc143c" />
<path d="M-126,-250 L-126,-257.5" stroke="#dc143c" />
<path d="M-119,-250 L-119,-257.5" stroke="#dc143c" />
<path d="M-80,-250 L-80,-257.5" stroke="#dc143c" />
<rect x="-200" y="-250" width="177" height="25" fill="white" stroke="black" />
<rect x="-175.0" y="-250" width="98.0" height="25" fill="#ffd700" stroke="black" />
<rect x="-64.0" y="-250" width="22.0" height="25" fill="#1e90ff" stroke="black" />
<text x="-290" y="-180" font-size="25" fill="black">UL10</text>
<path d="M-54,-167.5 L-54,-200" stroke="#1e90ff" />
<path d="M-53,-167.5 L-53,-200" stroke="#1e90ff" />
<path d="M-52,-167.5 L-52,-200" stroke="#1e90ff" />
<path d="M-47,-167.5 L-47,-200" stroke="#1e90ff" />
<path d="M-44,-167.5 L-44,-200" stroke="#1e90ff" />
<path d="M-39,-167.5 L-39,-200" stroke="#1e90ff" />
<path d="M-98,-200 L-98,-207.5" stroke="#dc143c" />
<path d="M-89,-200 L-89,-207.5" stroke="#dc143c" />
<path d="M-77,-200 L-77,-207.5" stroke="#dc143c" />
<path d="M-35,-200 L-35,-207.5" stroke="#dc143c" />
<rect x="-200" y="-200" width="232" height="25" fill="white" stroke="black" />
<rect x="-169.0" y="-200" width="109.0" height="25" fill="#ffd700" stroke="black" />
<rect x="-14.0" y="-200" width="22.0" height="25" fill="#1e90ff" stroke="black" />
<text x="-290" y="-130" font-size="25" fill="black">UL11</text>
<path d="M-45,-117.5 L-45,-150" stroke="#1e90ff" />
<path d="M-158,-150 L-158,-157.5" stroke="#dc143c" />
<path d="M-128,-150 L-128,-157.5" stroke="#dc143c" />
<path d="M-124,-150 L-124,-157.5" stroke="#dc143c" />
<path d="M-113,-150 L-113,-157.5" stroke="#dc143c" />
<path d="M-107,-150 L-107,-157.5" stroke="#dc143c" />
<path d="M-100,-150 L-100,-157.5" stroke="#dc143c" />
<rect x="-200" y="-150" width="236" height="25" fill="white" stroke="black" />
<rect x="-200" y="-150" width="25.0" height="25" fill="#dc143c" stroke="black" />
<rect x="-167.0" y="-150" width="100.0" height="25" fill="#ffd700" stroke="black" />
<rect x="-11.0" y="-150" width="22.0" height="25" fill="#1e90ff" stroke="black" />
</svg>