<?xml version="1.0" encoding="UTF-8"?>
<svg xmlns="http://www.w3.org/2000/svg" xmlns:xlink="http://www.w3.org/1999/xlink"
     width="800" height="1400" viewBox="-400.0 -700.0 800 1400">
<defs>
</defs>
<text x="-290" y="-650" font-size="25" fill="black">papiine_betaherpesvirus_4</text>
<text x="-290" y="-580" font-size="25" fill="black">RL11T</text>
<path d="M-172,-567.5 L-172,-600" stroke="#1e90ff" />
<path d="M-171,-567.5 L-171,-600" stroke="#1e90ff" />
<path d="M-168,-567.5 L-168,-600" stroke="#1e90ff" />
<path d="M-166,-567.5 L-166,-600" stroke="#1e90ff" />
<path d="M-165,-567.5 L-165,-600" stroke="#1e90ff" />
<path d="M-164,-567.5 L-164,-600" stroke="#1e90ff" />
<path d="M-163,-567.5 L-163,-600" stroke="#1e90ff" />
<path d="M-162,-567.5 L-162,-600" stroke="#1e90ff" />
<path d="M-157,-567.5 L-157,-600" stroke="#1e90ff" />
<path d="M-156,-567.5 L-156,-600" stroke="#1e90ff" />
<path d="M-155,-567.5 L-155,-600" stroke="#1e90ff" />
<path d="M-153,-567.5 L-153,-600" stroke="#1e90ff" />
<path d="M-152,-567.5 L-152,-600" stroke="#1e90ff" />
<path d="M-151,-567.5 L-151,-600" stroke="#1e90ff" />
<path d="M-150,-567.5 L-150,-600" stroke="#1e90ff" />
<path d="M-149,-567.5 L-149,-600" stroke="#1e90ff" />
<path d="M-147,-567.5 L-147,-600" stroke="#1e90ff" />
<path d="M-146,-567.5 L-146,-600" stroke="#1e90ff" />
<path d="M-144,-567.5 L-144,-600" stroke="#1e90ff" />
<path d="M-143,-567.5 L-143,-600" stroke="#1e90ff" />
<path d="M-142,-567.5 L-142,-600" stroke="#1e90ff" />
<path d="M-141,-567.5 L-141,-600" stroke="#1e90ff" />
<path d="M-140,-567.5 L-140,-600" stroke="#1e90ff" />
<path d="M-139,-567.5 L-139,-600" stroke="#1e90ff" />
<path d="M-138,-567.5 L-138,-600" stroke="#1e90ff" />
<path d="M-135,-567.5 L-135,-600" stroke="#1e90ff" />
<path d="M-134,-567.5 L-134,-600" stroke="#1e90ff" />
<path d="M-131,-567.5 L-131,-600" stroke="#1e90ff" />
<path d="M-130,-567.5 L-130,-600" stroke="#1e90ff" />
<path d="M-128,-567.5 L-128,-600" stroke="#1e90ff" />
<path d="M-127,-567.5 L-127,-600" stroke="#1e90ff" />
<path d="M-126,-567.5 L-126,-600" stroke="#1e90ff" />
<path d="M-125,-567.5 L-125,-600" stroke="#1e90ff" />
<path d="M-123,-567.5 L-123,-600" stroke="#1e90ff" />
<path d="M-122,-567.5 L-122,-600" stroke="#1e90ff" />
<path d="M-121,-567.5 L-121,-600" stroke="#1e90ff" />
<path d="M-120,-567.5 L-120,-600" stroke="#1e90ff" />
<path d="M-118,-567.5 L-118,-600" stroke="#1e90ff" />
<path d="M-116,-567.5 L-116,-600" stroke="#1e90ff" />
<path d="M-114,-567.5 L-114,-600" stroke="#1e90ff" />
<path d="M-110,-567.5 L-110,-600" stroke="#1e90ff" />
<path d="M-109,-567.5 L-109,-600" stroke="#1e90ff" />
<path d="M-106,-567.5 L-106,-600" stroke="#1e90ff" />
<path d="M-105,-567.5 L-105,-600" stroke="#1e90ff" />
<path d="M-103,-567.5 L-103,-600" stroke="#1e90ff" />
<path d="M-102,-567.5 L-102,-600" stroke="#1e90ff" />
<path d="M-101,-567.5 L-101,-600" stroke="#1e90ff" />
<path d="M-98,-567.5 L-98,-600" stroke="#1e90ff" />
<path d="M-97,-567.5 L-97,-600" stroke="#1e90ff" />
<path d="M-94,-567.5 L-94,-600" stroke="#1e90ff" />
<path d="M-93,-567.5 L-93,-600" stroke="#1e90ff" />
<path d="M-90,-567.5 L-90,-600" stroke="#1e90ff" />
<path d="M-89,-567.5 L-89,-600" stroke="#1e90ff" />
<path d="M-88,-567.5 L-88,-600" stroke="#1e90ff" />
<path d="M-87,-567.5 L-87,-600" stroke="#1e90ff" />
<path d="M-86,-567.5 L-86,-600" stroke="#1e90ff" />
<path d="M-85,-567.5 L-85,-600" stroke="#1e90ff" />
<path d="M-83,-567.5 L-83,-600" stroke="#1e90ff" />
<path d="M-81,-567.5 L-81,-600" stroke="#1e90ff" />
<path d="M-79,-567.5 L-79,-600" stroke="#1e90ff" />
<path d="M-77,-567.5 L-77,-600" stroke="#1e90ff" />
<path d="M-76,-567.5 L-76,-600" stroke="#1e90ff" />
<path d="M-75,-567.5 L-75,-600" stroke="#1e90ff" />
<path d="M-70,-567.5 L-70,-600" stroke="#1e90ff" />
<path d="M-69,-567.5 L-69,-600" stroke="#1e90ff" />
<path d="M-68,-567.5 L-68,-600" stroke="#1e90ff" />
<path d="M-67,-567.5 L-67,-600" stroke="#1e90ff" />
<path d="M-66,-567.5 L-66,-600" stroke="#1e90ff" />
<path d="M-65,-567.5 L-65,-600" stroke="#1e90ff" />
<path d="M-64,-567.5 L-64,-600" stroke="#1e90ff" />
<path d="M-62,-567.5 L-62,-600" stroke="#1e90ff" />
<path d="M-60,-567.5 L-60,-600" stroke="#1e90ff" />
<path d="M-58,-567.5 L-58,-600" stroke="#1e90ff" />
<path d="M-57,-567.5 L-57,-600" stroke="#1e90ff" />
<path d="M-53,-567.5 L-53,-600" stroke="#1e90ff" />
<path d="M-51,-567.5 L-51,-600" stroke="#1e90ff" />
<path d="M-50,-567.5 L-50,-600" stroke="#1e90ff" />
<path d="M-47,-567.5 L-47,-600" stroke="#1e90ff" />
<path d="M-46,-567.5 L-46,-600" stroke="#1e90ff" />
<path d="M-45,-567.5 L-45,-600" stroke="#1e90ff" />
<path d="M-42,-567.5 L-42,-600" stroke="#1e90ff" />
<path d="M-41,-567.5 L-41,-600" stroke="#1e90ff" />
<path d="M-38,-567.5 L-38,-600" stroke="#1e90ff" />
<path d="M-37,-567.5 L-37,-600" stroke="#1e90ff" />
<path d="M-34,-567.5 L-34,-600" stroke="#1e90ff" />
<path d="M-33,-567.5 L-33,-600" stroke="#1e90ff" />
<path d="M-31,-567.5 L-31,-600" stroke="#1e90ff" />
<path d="M-30,-567.5 L-30,-600" stroke="#1e90ff" />
<path d="M-29,-567.5 L-29,-600" stroke="#1e90ff" />
<path d="M-24,-567.5 L-24,-600" stroke="#1e90ff" />
<path d="M-23,-567.5 L-23,-600" stroke="#1e90ff" />
<path d="M-20,-567.5 L-20,-600" stroke="#1e90ff" />
<path d="M-19,-567.5 L-19,-600" stroke="#1e90ff" />
<path d="M-18,-567.5 L-18,-600" stroke="#1e90ff" />
<path d="M-15,-567.5 L-15,-600" stroke="#1e90ff" />
<path d="M-14,-567.5 L-14,-600" stroke="#1e90ff" />
<path d="M-13,-567.5 L-13,-600" stroke="#1e90ff" />
<path d="M-12,-567.5 L-12,-600" stroke="#1e90ff" />
<path d="M-8,-567.5 L-8,-600" stroke="#1e90ff" />
<path d="M-7,-567.5 L-7,-600" stroke="#1e90ff" />
<path d="M-4,-567.5 L-4,-600" stroke="#1e90ff" />
<path d="M13,-567.5 L13,-600" stroke="#1e90ff" />
<path d="M19,-567.5 L19,-600" stroke="#1e90ff" />
<path d="M33,-567.5 L33,-600" stroke="#1e90ff" />
<path d="M43,-567.5 L43,-600" stroke="#1e90ff" />
<path d="M44,-567.5 L44,-600" stroke="#1e90ff" />
<path d="M45,-567.5 L45,-600" stroke="#1e90ff" />
<path d="M48,-567.5 L48,-600" stroke="#1e90ff" />
<path d="M49,-567.5 L49,-600" stroke="#1e90ff" />
<path d="M113,-567.5 L113,-600" stroke="#1e90ff" />
<path d="M116,-567.5 L116,-600" stroke="#1e90ff" />
<path d="M118,-567.5 L118,-600" stroke="#1e90ff" />
<path d="M119,-567.5 L119,-600" stroke="#1e90ff" />
<path d="M120,-567.5 L120,-600" stroke="#1e90ff" />
<path d="M121,-567.5 L121,-600" stroke="#1e90ff" />
<path d="M124,-567.5 L124,-600" stroke="#1e90ff" />
<path d="M126,-567.5 L126,-600" stroke="#1e90ff" />
<path d="M127,-567.5 L127,-600" stroke="#1e90ff" />
<path d="M134,-567.5 L134,-600" stroke="#1e90ff" />
<path d="M-167,-600 L-167,-607.5" stroke="#dc143c" />
<path d="M-158,-600 L-158,-607.5" stroke="#dc143c" />
<path d="M-137,-600 L-137,-607.5" stroke="#dc143c" />
<path d="M-124,-600 L-124,-607.5" stroke="#dc143c" />
<path d="M-112,-600 L-112,-607.5" stroke="#dc143c" />
<path d="M-96,-600 L-96,-607.5" stroke="#dc143c" />
<path d="M-72,-600 L-72,-607.5" stroke="#dc143c" />
<path d="M-55,-600 L-55,-607.5" stroke="#dc143c" />
<path d="M-43,-600 L-43,-607.5" stroke="#dc143c" />
<path d="M-35,-600 L-35,-607.5" stroke="#dc143c" />
<path d="M-25,-600 L-25,-607.5" stroke="#dc143c" />
<path d="M-22,-600 L-22,-607.5" stroke="#dc143c" />
<path d="M-10,-600 L-10,-607.5" stroke="#dc143c" />
<path d="M1,-600 L1,-607.5" stroke="#dc143c" />
<path d="M9,-600 L9,-607.5" stroke="#dc143c" />
<path d="M16,-600 L16,-607.5" stroke="#dc143c" />
<path d="M59,-600 L59,-607.5" stroke="#dc143c" />
<path d="M69,-600 L69,-607.5" stroke="#dc143c" />
<path d="M73,-600 L73,-607.5" stroke="#dc143c" />
<rect x="-200" y="-600" width="405" height="25" fill="white" stroke="black" />
<rect x="-200" y="-600" width="26.0" height="25" fill="#dc143c" stroke="black" />
<rect x="-17.0" y="-600" width="116.0" height="25" fill="#ffd700" stroke="black" />
<rect x="141.0" y="-600" width="19.0" height="25" fill="#1e90ff" stroke="black" />
<text x="-290" y="-530" font-size="25" fill="black">RL11S</text>
<path d="M-124,-517.5 L-124,-550" stroke="#1e90ff" />
<path d="M-123,-517.5 L-123,-550" stroke="#1e90ff" />
<path d="M-102,-517.5 L-102,-550" stroke="#1e90ff" />
<path d="M-101,-517.5 L-101,-550" stroke="#1e90ff" />
<path d="M-75,-517.5 L-75,-550" stroke="#1e90ff" />
<path d="M-58,-517.5 L-58,-550" stroke="#1e90ff" />
<path d="M-57,-517.5 L-57,-550" stroke="#1e90ff" />
<path d="M-56,-517.5 L-56,-550" stroke="#1e90ff" />
<path d="M-55,-517.5 L-55,-550" stroke="#1e90ff" />
<path d="M-52,-517.5 L-52,-550" stroke="#1e90ff" />
<path d="M-51,-517.5 L-51,-550" stroke="#1e90ff" />
<path d="M-50,-517.5 L-50,-550" stroke="#1e90ff" />
<path d="M-49,-517.5 L-49,-550" stroke="#1e90ff" />
<path d="M-48,-517.5 L-48,-550" stroke="#1e90ff" />
<path d="M-47,-517.5 L-47,-550" stroke="#1e90ff" />
<path d="M-46,-517.5 L-46,-550" stroke="#1e90ff" />
<path d="M-45,-517.5 L-45,-550" stroke="#1e90ff" />
<path d="M-44,-517.5 L-44,-550" stroke="#1e90ff" />
<path d="M-43,-517.5 L-43,-550" stroke="#1e90ff" />
<path d="M-42,-517.5 L-42,-550" stroke="#1e90ff" />
<path d="M-38,-517.5 L-38,-550" stroke="#1e90ff" />
<path d="M-37,-517.5 L-37,-550" stroke="#1e90ff" />
<path d="M-33,-517.5 L-33,-550" stroke="#1e90ff" />
<path d="M-32,-517.5 L-32,-550" stroke="#1e90ff" />
<path d="M-29,-517.5 L-29,-550" stroke="#1e90ff" />
<path d="M-28,-517.5 L-28,-550" stroke="#1e90ff" />
<path d="M-27,-517.5 L-27,-550" stroke="#1e90ff" />
<path d="M-23,-517.5 L-23,-550" stroke="#1e90ff" />
<path d="M-22,-517.5 L-22,-550" stroke="#1e90ff" />
<path d="M-19,-517.5 L-19,-550" stroke="#1e90ff" />
<path d="M-18,-517.5 L-18,-550" stroke="#1e90ff" />
<path d="M-14,-517.5 L-14,-550" stroke="#1e90ff" />
<path d="M-13,-517.5 L-13,-550" stroke="#1e90ff" />
<path d="M-9,-517.5 L-9,-550" stroke="#1e90ff" />
<path d="M-6,-517.5 L-6,-550" stroke="#1e90ff" />
<path d="M-4,-517.5 L-4,-550" stroke="#1e90ff" />
<path d="M-3,-517.5 L-3,-550" stroke="#1e90ff" />
<path d="M-1,-517.5 L-1,-550" stroke="#1e90ff" />
<path d="M0,-517.5 L0,-550" stroke="#1e90ff" />
<path d="M1,-517.5 L1,-550" stroke="#1e90ff" />
<path d="M3,-517.5 L3,-550" stroke="#1e90ff" />
<path d="M5,-517.5 L5,-550" stroke="#1e90ff" />
<path d="M6,-517.5 L6,-550" stroke="#1e90ff" />
<path d="M8,-517.5 L8,-550" stroke="#1e90ff" />
<path d="M10,-517.5 L10,-550" stroke="#1e90ff" />
<path d="M13,-517.5 L13,-550" stroke="#1e90ff" />
<path d="M14,-517.5 L14,-550" stroke="#1e90ff" />
<path d="M15,-517.5 L15,-550" stroke="#1e90ff" />
<path d="M18,-517.5 L18,-550" stroke="#1e90ff" />
<path d="M19,-517.5 L19,-550" stroke="#1e90ff" />
<path d="M20,-517.5 L20,-550" stroke="#1e90ff" />
<path d="M21,-517.5 L21,-550" stroke="#1e90ff" />
<path d="M22,-517.5 L22,-550" stroke="#1e90ff" />
<path d="M23,-517.5 L23,-550" stroke="#1e90ff" />
<path d="M26,-517.5 L26,-550" stroke="#1e90ff" />
<path d="M34,-517.5 L34,-550" stroke="#1e90ff" />
<path d="M37,-517.5 L37,-550" stroke="#1e90ff" />
<path d="M38,-517.5 L38,-550" stroke="#1e90ff" />
<path d="M39,-517.5 L39,-550" stroke="#1e90ff" />
<path d="M40,-517.5 L40,-550" stroke="#1e90ff" />
<path d="M42,-517.5 L42,-550" stroke="#1e90ff" />
<path d="M44,-517.5 L44,-550" stroke="#1e90ff" />
<path d="M45,-517.5 L45,-550" stroke="#1e90ff" />
<path d="M46,-517.5 L46,-550" stroke="#1e90ff" />
<path d="M49,-517.5 L49,-550" stroke="#1e90ff" />
<path d="M50,-517.5 L50,-550" stroke="#1e90ff" />
<path d="M51,-517.5 L51,-550" stroke="#1e90ff" />
<path d="M55,-517.5 L55,-550" stroke="#1e90ff" />
<path d="M56,-517.5 L56,-550" stroke="#1e90ff" />
<path d="M57,-517.5 L57,-550" stroke="#1e90ff" />
<path d="M61,-517.5 L61,-550" stroke="#1e90ff" />
<path d="M62,-517.5 L62,-550" stroke="#1e90ff" />
<path d="M64,-517.5 L64,-550" stroke="#1e90ff" />
<path d="M65,-517.5 L65,-550" stroke="#1e90ff" />
<path d="M68,-517.5 L68,-550" stroke="#1e90ff" />
<path d="M69,-517.5 L69,-550" stroke="#1e90ff" />
<path d="M73,-517.5 L73,-550" stroke="#1e90ff" />
<path d="M76,-517.5 L76,-550" stroke="#1e90ff" />
<path d="M77,-517.5 L77,-550" stroke="#1e90ff" />
<path d="M78,-517.5 L78,-550" stroke="#1e90ff" />
<path d="M80,-517.5 L80,-550" stroke="#1e90ff" />
<path d="M81,-517.5 L81,-550" stroke="#1e90ff" />
<path d="M85,-517.5 L85,-550" stroke="#1e90ff" />
<path d="M86,-517.5 L86,-550" stroke="#1e90ff" />
<path d="M90,-517.5 L90,-550" stroke="#1e90ff" />
<path d="M91,-517.5 L91,-550" stroke="#1e90ff" />
<path d="M94,-517.5 L94,-550" stroke="#1e90ff" />
<path d="M95,-517.5 L95,-550" stroke="#1e90ff" />
<path d="M96,-517.5 L96,-550" stroke="#1e90ff" />
<path d="M98,-517.5 L98,-550" stroke="#1e90ff" />
<path d="M100,-517.5 L100,-550" stroke="#1e90ff" />
<path d="M101,-517.5 L101,-550" stroke="#1e90ff" />
<path d="M104,-517.5 L104,-550" stroke="#1e90ff" />
<path d="M105,-517.5 L105,-550" stroke="#1e90ff" />
<path d="M106,-517.5 L106,-550" stroke="#1e90ff" />
<path d="M107,-517.5 L107,-550" stroke="#1e90ff" />
<path d="M110,-517.5 L110,-550" stroke="#1e90ff" />
<path d="M111,-517.5 L111,-550" stroke="#1e90ff" />
<path d="M112,-517.5 L112,-550" stroke="#1e90ff" />
<path d="M113,-517.5 L113,-550" stroke="#1e90ff" />
<path d="M116,-517.5 L116,-550" stroke="#1e90ff" />
<path d="M117,-517.5 L117,-550" stroke="#1e90ff" />
<path d="M118,-517.5 L118,-550" stroke="#1e90ff" />
<path d="M119,-517.5 L119,-550" stroke="#1e90ff" />
<path d="M122,-517.5 L122,-550" stroke="#1e90ff" />
<path d="M123,-517.5 L123,-550" stroke="#1e90ff" />
<path d="M124,-517.5 L124,-550" stroke="#1e90ff" />
<path d="M125,-517.5 L125,-550" stroke="#1e90ff" />
<path d="M128,-517.5 L128,-550" stroke="#1e90ff" />
<path d="M129,-517.5 L129,-550" stroke="#1e90ff" />
<path d="M130,-517.5 L130,-550" stroke="#1e90ff" />
<path d="M131,-517.5 L131,-550" stroke="#1e90ff" />
<path d="M134,-517.5 L134,-550" stroke="#1e90ff" />
<path d="M135,-517.5 L135,-550" stroke="#1e90ff" />
<path d="M136,-517.5 L136,-550" stroke="#1e90ff" />
<path d="M137,-517.5 L137,-550" stroke="#1e90ff" />
<path d="M140,-517.5 L140,-550" stroke="#1e90ff" />
<path d="M141,-517.5 L141,-550" stroke="#1e90ff" />
<path d="M142,-517.5 L142,-550" stroke="#1e90ff" />
<path d="M143,-517.5 L143,-550" stroke="#1e90ff" />
<path d="M144,-517.5 L144,-550" stroke="#1e90ff" />
<path d="M146,-517.5 L146,-550" stroke="#1e90ff" />
<path d="M147,-517.5 L147,-550" stroke="#1e90ff" />
<path d="M150,-517.5 L150,-550" stroke="#1e90ff" />
<path d="M151,-517.5 L151,-550" stroke="#1e90ff" />
<path d="M154,-517.5 L154,-550" stroke="#1e90ff" />
<path d="M155,-517.5 L155,-550" stroke="#1e90ff" />
<path d="M156,-517.5 L156,-550" stroke="#1e90ff" />
<path d="M158,-517.5 L158,-550" stroke="#1e90ff" />
<path d="M159,-517.5 L159,-550" stroke="#1e90ff" />
<path d="M160,-517.5 L160,-550" stroke="#1e90ff" />
<path d="M163,-517.5 L163,-550" stroke="#1e90ff" />
<path d="M164,-517.5 L164,-550" stroke="#1e90ff" />
<path d="M167,-517.5 L167,-550" stroke="#1e90ff" />
<path d="M168,-517.5 L168,-550" stroke="#1e90ff" />
<path d="M169,-517.5 L169,-550" stroke="#1e90ff" />
<path d="M170,-517.5 L170,-550" stroke="#1e90ff" />
<path d="M171,-517.5 L171,-550" stroke="#1e90ff" />
<path d="M173,-517.5 L173,-550" stroke="#1e90ff" />
<path d="M174,-517.5 L174,-550" stroke="#1e90ff" />
<path d="M175,-517.5 L175,-550" stroke="#1e90ff" />
<path d="M176,-517.5 L176,-550" stroke="#1e90ff" />
<path d="M177,-517.5 L177,-550" stroke="#1e90ff" />
<path d="M178,-517.5 L178,-550" stroke="#1e90ff" />
<path d="M182,-517.5 L182,-550" stroke="#1e90ff" />
<path d="M183,-517.5 L183,-550" stroke="#1e90ff" />
<path d="M185,-517.5 L185,-550" stroke="#1e90ff" />
<path d="M186,-517.5 L186,-550" stroke="#1e90ff" />
<path d="M187,-517.5 L187,-550" stroke="#1e90ff" />
<path d="M188,-517.5 L188,-550" stroke="#1e90ff" />
<path d="M189,-517.5 L189,-550" stroke="#1e90ff" />
<path d="M190,-517.5 L190,-550" stroke="#1e90ff" />
<path d="M191,-517.5 L191,-550" stroke="#1e90ff" />
<path d="M192,-517.5 L192,-550" stroke="#1e90ff" />
<path d="M193,-517.5 L193,-550" stroke="#1e90ff" />
<path d="M196,-517.5 L196,-550" stroke="#1e90ff" />
<path d="M197,-517.5 L197,-550" stroke="#1e90ff" />
<path d="M198,-517.5 L198,-550" stroke="#1e90ff" />
<path d="M200,-517.5 L200,-550" stroke="#1e90ff" />
<path d="M201,-517.5 L201,-550" stroke="#1e90ff" />
<path d="M205,-517.5 L205,-550" stroke="#1e90ff" />
<path d="M207,-517.5 L207,-550" stroke="#1e90ff" />
<path d="M208,-517.5 L208,-550" stroke="#1e90ff" />
<path d="M210,-517.5 L210,-550" stroke="#1e90ff" />
<path d="M214,-517.5 L214,-550" stroke="#1e90ff" />
<path d="M221,-517.5 L221,-550" stroke="#1e90ff" />
<path d="M-157,-550 L-157,-557.5" stroke="#dc143c" />
<path d="M-153,-550 L-153,-557.5" stroke="#dc143c" />
<path d="M-138,-550 L-138,-557.5" stroke="#dc143c" />
<path d="M-111,-550 L-111,-557.5" stroke="#dc143c" />
<path d="M-104,-550 L-104,-557.5" stroke="#dc143c" />
<path d="M-77,-550 L-77,-557.5" stroke="#dc143c" />
<path d="M-21,-550 L-21,-557.5" stroke="#dc143c" />
<path d="M219,-550 L219,-557.5" stroke="#dc143c" />
<rect x="-200" y="-550" width="483" height="25" fill="white" stroke="black" />
<rect x="-200" y="-550" width="31.0" height="25" fill="#dc143c" stroke="black" />
<rect x="-170.0" y="-550" width="96.0" height="25" fill="#ffd700" stroke="black" />
<rect x="236.0" y="-550" width="22.0" height="25" fill="#1e90ff" stroke="black" />
<text x="-290" y="-480" font-size="25" fill="black">RL11R</text>
<path d="M-67,-467.5 L-67,-500" stroke="#1e90ff" />
<path d="M-65,-467.5 L-65,-500" stroke="#1e90ff" />
<path d="M-64,-467.5 L-64,-500" stroke="#1e90ff" />
<path d="M-63,-467.5 L-63,-500" stroke="#1e90ff" />
<path d="M-62,-467.5 L-62,-500" stroke="#1e90ff" />
<path d="M-58,-467.5 L-58,-500" stroke="#1e90ff" />
<path d="M-57,-467.5 L-57,-500" stroke="#1e90ff" />
<path d="M-50,-467.5 L-50,-500" stroke="#1e90ff" />
<path d="M-47,-467.5 L-47,-500" stroke="#1e90ff" />
<path d="M-44,-467.5 L-44,-500" stroke="#1e90ff" />
<path d="M-43,-467.5 L-43,-500" stroke="#1e90ff" />
<path d="M-173,-500 L-173,-507.5" stroke="#dc143c" />
<path d="M-168,-500 L-168,-507.5" stroke="#dc143c" />
<path d="M-162,-500 L-162,-507.5" stroke="#dc143c" />
<path d="M-132,-500 L-132,-507.5" stroke="#dc143c" />
<path d="M-115,-500 L-115,-507.5" stroke="#dc143c" />
<rect x="-200" y="-500" width="211" height="25" fill="white" stroke="black" />
<rect x="-200" y="-500" width="20.0" height="25" fill="#dc143c" stroke="black" />
<rect x="-174.0" y="-500" width="101.0" height="25" fill="#ffd700" stroke="black" />
<text x="-290" y="-430" font-size="25" fill="black">RL11Q</text>
<path d="M-123,-450 L-123,-457.5" stroke="#dc143c" />
<path d="M-101,-450 L-101,-457.5" stroke="#dc143c" />
<path d="M-93,-450 L-93,-457.5" stroke="#dc143c" />
<path d="M-83,-450 L-83,-457.5" stroke="#dc143c" />
<path d="M-76,-450 L-76,-457.5" stroke="#dc143c" />
<path d="M-49,-450 L-49,-457.5" stroke="#dc143c" />
<rect x="-200" y="-450" width="208" height="25" fill="white" stroke="black" />
<rect x="-200" y="-450" width="20.0" height="25" fill="#dc143c" stroke="black" />
<rect x="-176.0" y="-450" width="103.0" height="25" fill="#ffd700" stroke="black" />
<rect x="-27.0" y="-450" width="22.0" height="25" fill="#1e90ff" stroke="black" />
<text x="-290" y="-380" font-size="25" fill="black">RL11P</text>
<path d="M-36,-367.5 L-36,-400" stroke="#1e90ff" />
<path d="M-23,-367.5 L-23,-400" stroke="#1e90ff" />
<path d="M-21,-367.5 L-21,-400" stroke="#1e90ff" />
<path d="M-20,-367.5 L-20,-400" stroke="#1e90ff" />
<path d="M-13,-367.5 L-13,-400" stroke="#1e90ff" />
<path d="M-12,-367.5 L-12,-400" stroke="#1e90ff" />
<path d="M-11,-367.5 L-11,-400" stroke="#1e90ff" />
<path d="M-10,-367.5 L-10,-400" stroke="#1e90ff" />
<path d="M-8,-367.5 L-8,-400" stroke="#1e90ff" />
<path d="M-7,-367.5 L-7,-400" stroke="#1e90ff" />
<path d="M-6,-367.5 L-6,-400" stroke="#1e90ff" />
<path d="M-5,-367.5 L-5,-400" stroke="#1e90ff" />
<path d="M-4,-367.5 L-4,-400" stroke="#1e90ff" />
<path d="M-144,-400 L-144,-407.5" stroke="#dc143c" />
<path d="M-113,-400 L-113,-407.5" stroke="#dc143c" />
<path d="M-103,-400 L-103,-407.5" stroke="#dc143c" />
<path d="M-96,-400 L-96,-407.5" stroke="#dc143c" />
<path d="M-72,-400 L-72,-407.5" stroke="#dc143c" />
<path d="M-63,-400 L-63,-407.5" stroke="#dc143c" />
<path d="M6,-400 L6,-407.5" stroke="#dc143c" />
<rect x="-200" y="-400" width="256" height="25" fill="white" stroke="black" />
<rect x="-160.0" y="-400" width="91.0" height="25" fill="#ffd700" stroke="black" />
<rect x="22.0" y="-400" width="22.0" height="25" fill="#1e90ff" stroke="black" />
<text x="-290" y="-330" font-size="25" fill="black">RL11O</text>
<path d="M-48,-317.5 L-48,-350" stroke="#1e90ff" />
<path d="M-47,-317.5 L-47,-350" stroke="#1e90ff" />
<path d="M-165,-350 L-165,-357.5" stroke="#dc143c" />
<path d="M-153,-350 L-153,-357.5" stroke="#dc143c" />
<path d="M-112,-350 L-112,-357.5" stroke="#dc143c" />
<path d="M-101,-350 L-101,-357.5" stroke="#dc143c" />
<path d="M-91,-350 L-91,-357.5" stroke="#dc143c" />
<path d="M-68,-350 L-68,-357.5" stroke="#dc143c" />
<path d="M-22,-350 L-22,-357.5" stroke="#dc143c" />
<rect x="-200" y="-350" width="231" height="25" fill="white" stroke="black" />
<rect x="-200" y="-350" width="29.0" height="25" fill="#dc143c" stroke="black" />
<rect x="-165.0" y="-350" width="100.0" height="25" fill="#ffd700" stroke="black" />
<rect x="-10.0" y="-350" width="22.0" height="25" fill="#1e90ff" stroke="black" />
<text x="-290" y="-280" font-size="25" fill="black">RL11N</text>
<path d="M-169,-267.5 L-169,-300" stroke="#1e90ff" />
<path d="M-167,-267.5 L-167,-300" stroke="#1e90ff" />
<path d="M-195,-300 L-195,-307.5" stroke="#dc143c" />
<path d="M-173,-300 L-173,-307.5" stroke="#dc143c" />
<path d="M-168,-300 L-168,-307.5" stroke="#dc143c" />
<rect x="-200" y="-300" width="120" height="25" fill="white" stroke="black" />
<rect x="-200" y="-300" width="25.0" height="25" fill="#dc143c" stroke="black" />
<rect x="-121.0" y="-300" width="22.0" height="25" fill="#1e90ff" stroke="black" />
<text x="-290" y="-230" font-size="25" fill="black">RL11M</text>
<path d="M-195,-217.5 L-195,-250" stroke="#1e90ff" />
<path d="M-64,-217.5 L-64,-250" stroke="#1e90ff" />
<path d="M-60,-217.5 L-60,-250" stroke="#1e90ff" />
<path d="M-59,-217.5 L-59,-250" stroke="#1e90ff" />
<path d="M-58,-217.5 L-58,-250" stroke="#1e90ff" />
<path d="M-55,-217.5 L-55,-250" stroke="#1e90ff" />
<path d="M-54,-217.5 L-54,-250" stroke="#1e90ff" />
<path d="M-53,-217.5 L-53,-250" stroke="#1e90ff" />
<path d="M-52,-217.5 L-52,-250" stroke="#1e90ff" />
<path d="M-50,-217.5 L-50,-250" stroke="#1e90ff" />
<path d="M-49,-217.5 L-49,-250" stroke="#1e90ff" />
<path d="M-47,-217.5 L-47,-250" stroke="#1e90ff" />
<path d="M-46,-217.5 L-46,-250" stroke="#1e90ff" />
<path d="M-45,-217.5 L-45,-250" stroke="#1e90ff" />
<path d="M-42,-217.5 L-42,-250" stroke="#1e90ff" />
<path d="M-41,-217.5 L-41,-250" stroke="#1e90ff" />
<path d="M-39,-217.5 L-39,-250" stroke="#1e90ff" />
<path d="M-38,-217.5 L-38,-250" stroke="#1e90ff" />
<path d="M-32,-217.5 L-32,-250" stroke="#1e90ff" />
<path d="M-161,-250 L-161,-257.5" stroke="#dc143c" />
<path d="M-106,-250 L-106,-257.5" stroke="#dc143c" />
<path d="M-99,-250 L-99,-257.5" stroke="#dc143c" />
<path d="M-90,-250 L-90,-257.5" stroke="#dc143c" />
<path d="M-18,-250 L-18,-257.5" stroke="#dc143c" />
<rect x="-200" y="-250" width="242" height="25" fill="white" stroke="black" />
<rect x="-200" y="-250" width="29.0" height="25" fill="#dc143c" stroke="black" />
<rect x="-164.0" y="-250" width="95.0" height="25" fill="#ffd700" stroke="black" />
<rect x="-5.0" y="-250" width="22.0" height="25" fill="#1e90ff" stroke="black" />
<text x="-290" y="-180" font-size="25" fill="black">RL11K</text>
<path d="M-143,-167.5 L-143,-200" stroke="#1e90ff" />
<path d="M-47,-167.5 L-47,-200" stroke="#1e90ff" />
<path d="M-46,-167.5 L-46,-200" stroke="#1e90ff" />
<path d="M-45,-167.5 L-45,-200" stroke="#1e90ff" />
<path d="M-41,-167.5 L-41,-200" stroke="#1e90ff" />
<path d="M-39,-167.5 L-39,-200" stroke="#1e90ff" />
<path d="M-37,-167.5 L-37,-200" stroke="#1e90ff" />
<path d="M-36,-167.5 L-36,-200" stroke="#1e90ff" />
<path d="M-35,-167.5 L-35,-200" stroke="#1e90ff" />
<path d="M-34,-167.5 L-34,-200" stroke="#1e90ff" />
<path d="M-33,-167.5 L-33,-200" stroke="#1e90ff" />
<path d="M-32,-167.5 L-32,-200" stroke="#1e90ff" />
<path d="M-30,-167.5 L-30,-200" stroke="#1e90ff" />
<path d="M-29,-167.5 L-29,-200" stroke="#1e90ff" />
<path d="M-27,-167.5 L-27,-200" stroke="#1e90ff" />
<path d="M-26,-167.5 L-26,-200" stroke="#1e90ff" />
<path d="M-25,-167.5 L-25,-200" stroke="#1e90ff" />
<path d="M-24,-167.5 L-24,-200" stroke="#1e90ff" />
<path d="M-23,-167.5 L-23,-200" stroke="#1e90ff" />
<path d="M-20,-167.5 L-20,-200" stroke="#1e90ff" />
<path d="M-170,-200 L-170,-207.5" stroke="#dc143c" />
<path d="M-148,-200 L-148,-207.5" stroke="#dc143c" />
<path d="M-139,-200 L-139,-207.5" stroke="#dc143c" />
<path d="M-90,-200 L-90,-207.5" stroke="#dc143c" />
<path d="M-83,-200 L-83,-207.5" stroke="#dc143c" />
<path d="M-58,-200 L-58,-207.5" stroke="#dc143c" />
<rect x="-200" y="-200" width="232" height="25" fill="white" stroke="black" />
<rect x="-200" y="-200" width="26.0" height="25" fill="#dc143c" stroke="black" />
<rect x="-148.0" y="-200" width="93.0" height="25" fill="#ffd700" stroke="black" />
<rect x="0.0" y="-200" width="22.0" height="25" fill="#1e90ff" stroke="black" />
<text x="-290" y="-130" font-size="25" fill="black">RL11J</text>
<path d="M-146,-150 L-146,-157.5" stroke="#dc143c" />
<path d="M-84,-150 L-84,-157.5" stroke="#dc143c" />
<path d="M-55,-150 L-55,-157.5" stroke="#dc143c" />
<path d="M-44,-150 L-44,-157.5" stroke="#dc143c" />
<rect x="-200" y="-150" width="210" height="25" fill="white" stroke="black" />
<rect x="-200" y="-150" width="16.0" height="25" fill="#dc143c" stroke="black" />
<rect x="-176.0" y="-150" width="95.0" height="25" fill="#ffd700" stroke="black" />
<rect x="-34.0" y="-150" width="22.0" height="25" fill="#1e90ff" stroke="black" />
<text x="-290" y="-80" font-size="25" fill="black">RL11H</text>
<path d="M-162,-67.5 L-162,-100" stroke="#1e90ff" />
<path d="M-159,-67.5 L-159,-100" stroke="#1e90ff" />
<path d="M-158,-67.5 L-158,-100" stroke="#1e90ff" />
<path d="M-155,-67.5 L-155,-100" stroke="#1e90ff" />
<path d="M-153,-67.5 L-153,-100" stroke="#1e90ff" />
<path d="M-151,-67.5 L-151,-100" stroke="#1e90ff" />
<path d="M-150,-67.5 L-150,-100" stroke="#1e90ff" />
<path d="M-147,-67.5 L-147,-100" stroke="#1e90ff" />
<path d="M-144,-67.5 L-144,-100" stroke="#1e90ff" />
<path d="M-143,-67.5 L-143,-100" stroke="#1e90ff" />
<path d="M-107,-67.5 L-107,-100" stroke="#1e90ff" />
<path d="M-14,-67.5 L-14,-100" stroke="#1e90ff" />
<path d="M-8,-67.5 L-8,-100" stroke="#1e90ff" />
<path d="M-7,-67.5 L-7,-100" stroke="#1e90ff" />
<path d="M-6,-67.5 L-6,-100" stroke="#1e90ff" />
<path d="M-160,-100 L-160,-107.5" stroke="#dc143c" />
<path d="M-152,-100 L-152,-107.5" stroke="#dc143c" />
<path d="M-149,-100 L-149,-107.5" stroke="#dc143c" />
<path d="M-105,-100 L-105,-107.5" stroke="#dc143c" />
<path d="M-99,-100 L-99,-107.5" stroke="#dc143c" />
<path d="M-63,-100 L-63,-107.5" stroke="#dc143c" />
<path d="M-53,-100 L-53,-107.5" stroke="#dc143c" />
<path d="M-32,-100 L-32,-107.5" stroke="#dc143c" />
<path d="M-25,-100 L-25,-107.5" stroke="#dc143c" />
<path d="M-19,-100 L-19,-107.5" stroke="#dc143c" />
<path d="M-16,-100 L-16,-107.5" stroke="#dc143c" />
<path d="M16,-100 L16,-107.5" stroke="#dc143c" />
<rect x="-200" y="-100" width="296" height="25" fill="white" stroke="black" />
<rect x="-200" y="-100" width="32.0" height="25" fill="#dc143c" stroke="black" />
<rect x="-118.0" y="-100" width="96.0" height="25" fill="#ffd700" stroke="black" />
<rect x="46.0" y="-100" width="22.0" height="25" fill="#1e90ff" stroke="black" />
<text x="-290" y="-30" font-size="25" fill="black">RL11G</text>
<path d="M-27,-17.5 L-27,-50" stroke="#1e90ff" />
<path d="M-26,-17.5 L-26,-50" stroke="#1e90ff" />
<path d="M-22,-17.5 L-22,-50" stroke="#1e90ff" />
<path d="M-21,-17.5 L-21,-50" stroke="#1e90ff" />
<path d="M-20,-17.5 L-20,-50" stroke="#1e90ff" />
<path d="M-19,-17.5 L-19,-50" stroke="#1e90ff" />
<path d="M-18,-17.5 L-18,-50" stroke="#1e90ff" />
<path d="M-17,-17.5 L-17,-50" stroke="#1e90ff" />
<path d="M-16,-17.5 L-16,-50" stroke="#1e90ff" />
<path d="M-15,-17.5 L-15,-50" stroke="#1e90ff" />
<path d="M-14,-17.5 L-14,-50" stroke="#1e90ff" />
<path d="M-13,-17.5 L-13,-50" stroke="#1e90ff" />
<path d="M-10,-17.5 L-10,-50" stroke="#1e90ff" />
<path d="M-9,-17.5 L-9,-50" stroke="#1e90ff" />
<path d="M-8,-17.5 L-8,-50" stroke="#1e90ff" />
<path d="M-7,-17.5 L-7,-50" stroke="#1e90ff" />
<path d="M-4,-17.5 L-4,-50" stroke="#1e90ff" />
<path d="M-3,-17.5 L-3,-50" stroke="#1e90ff" />
<path d="M1,-17.5 L1,-50" stroke="#1e90ff" />
<path d="M3,-17.5 L3,-50" stroke="#1e90ff" />
<path d="M5,-17.5 L5,-50" stroke="#1e90ff" />
<path d="M6,-17.5 L6,-50" stroke="#1e90ff" />
<path d="M8,-17.5 L8,-50" stroke="#1e90ff" />
<path d="M9,-17.5 L9,-50" stroke="#1e90ff" />
<path d="M10,-17.5 L10,-50" stroke="#1e90ff" />
<path d="M13,-17.5 L13,-50" stroke="#1e90ff" />
<path d="M14,-17.5 L14,-50" stroke="#1e90ff" />
<path d="M16,-17.5 L16,-50" stroke="#1e90ff" />
<path d="M17,-17.5 L17,-50" stroke="#1e90ff" />
<path d="M19,-17.5 L19,-50" stroke="#1e90ff" />
<path d="M20,-17.5 L20,-50" stroke="#1e90ff" />
<path d="M-168,-50 L-168,-57.5" stroke="#dc143c" />
<path d="M-160,-50 L-160,-57.5" stroke="#dc143c" />
<path d="M-149,-50 L-149,-57.5" stroke="#dc143c" />
<path d="M-138,-50 L-138,-57.5" stroke="#dc143c" />
<path d="M-96,-50 L-96,-57.5" stroke="#dc143c" />
<path d="M-84,-50 L-84,-57.5" stroke="#dc143c" />
<path d="M-47,-50 L-47,-57.5" stroke="#dc143c" />
<path d="M-34,-50 L-34,-57.5" stroke="#dc143c" />
<rect x="-200" y="-50" width="315" height="25" fill="white" stroke="black" />
<rect x="-200" y="-50" width="21.0" height="25" fill="#dc143c" stroke="black" />
<rect x="-168.0" y="-50" width="105.0" height="25" fill="#ffd700" stroke="black" />
<rect x="37.0" y="-50" width="22.0" height="25" fill="#1e90ff" stroke="black" />
<text x="-290" y="20" font-size="25" fill="black">RL11F</text>
<path d="M-51,32.5 L-51,0" stroke="#1e90ff" />
<path d="M-47,32.5 L-47,0" stroke="#1e90ff" />
<path d="M-171,0 L-171,-7.5" stroke="#dc143c" />
<path d="M-143,0 L-143,-7.5" stroke="#dc143c" />
<path d="M-96,0 L-96,-7.5" stroke="#dc143c" />
<path d="M-72,0 L-72,-7.5" stroke="#dc143c" />
<rect x="-200" y="0" width="205" height="25" fill="white" stroke="black" />
<rect x="-181.0" y="0" width="114.0" height="25" fill="#ffd700" stroke="black" />
<rect x="-28.0" y="0" width="22.0" height="25" fill="#1e90ff" stroke="black" />
<text x="-290" y="70" font-size="25" fill="black">RL11D3</text>
<path d="M-73,50 L-73,42.5" stroke="#dc143c" />
<path d="M-64,50 L-64,42.5" stroke="#dc143c" />
<path d="M-56,50 L-56,42.5" stroke="#dc143c" />
<path d="M-48,50 L-48,42.5" stroke="#dc143c" />
<path d="M-31,50 L-31,42.5" stroke="#dc143c" />
<path d="M9,50 L9,42.5" stroke="#dc143c" />
<path d="M12,50 L12,42.5" stroke="#dc143c" />
<rect x="-200" y="50" width="304" height="25" fill="white" stroke="black" />
<rect x="-76.0" y="50" width="116.0" height="25" fill="#ffd700" stroke="black" />
<rect x="61.0" y="50" width="22.0" height="25" fill="#1e90ff" stroke="black" />
<text x="-290" y="120" font-size="25" fill="black">RL11D2</text>
<path d="M-103,132.5 L-103,100" stroke="#1e90ff" />
<path d="M-102,132.5 L-102,100" stroke="#1e90ff" />
<path d="M-101,132.5 L-101,100" stroke="#1e90ff" />
<path d="M-179,100 L-179,92.5" stroke="#dc143c" />
<path d="M-146,100 L-146,92.5" stroke="#dc143c" />
<path d="M-138,100 L-138,92.5" stroke="#dc143c" />
<path d="M-46,100 L-46,92.5" stroke="#dc143c" />
<rect x="-200" y="100" width="205" height="25" fill="white" stroke="black" />
<rect x="-152.0" y="100" width="113.0" height="25" fill="#ffd700" stroke="black" />
<text x="-290" y="170" font-size="25" fill="black">RL11D1</text>
<path d="M-193,182.5 L-193,150" stroke="#1e90ff" />
<path d="M-190,182.5 L-190,150" stroke="#1e90ff" />
<path d="M-189,182.5 L-189,150" stroke="#1e90ff" />
<path d="M-188,182.5 L-188,150" stroke="#1e90ff" />
<path d="M-88,182.5 L-88,150" stroke="#1e90ff" />
<path d="M-130,150 L-130,142.5" stroke="#dc143c" />
<path d="M-122,150 L-122,142.5" stroke="#dc143c" />
<path d="M-114,150 L-114,142.5" stroke="#dc143c" />
<path d="M-59,150 L-59,142.5" stroke="#dc143c" />
<rect x="-200" y="150" width="190" height="25" fill="white" stroke="black" />
<rect x="-142.0" y="150" width="115.0" height="25" fill="#ffd700" stroke="black" />
<text x="-290" y="220" font-size="25" fill="black">RL11B5</text>
<path d="M-51,232.5 L-51,200" stroke="#1e90ff" />
<path d="M-165,200 L-165,192.5" stroke="#dc143c" />
<path d="M-145,200 L-145,192.5" stroke="#dc143c" />
<path d="M-116,200 L-116,192.5" stroke="#dc143c" />
<path d="M-87,200 L-87,192.5" stroke="#dc143c" />
<rect x="-200" y="200" width="163" height="25" fill="white" stroke="black" />
<rect x="-200" y="200" width="23.0" height="25" fill="#dc143c" stroke="black" />
<rect x="-175.0" y="200" width="116.0" height="25" fill="#ffd700" stroke="black" />
<text x="-290" y="270" font-size="25" fill="black">RL11B4</text>
<path d="M-179,250 L-179,242.5" stroke="#dc143c" />
<path d="M-146,250 L-146,242.5" stroke="#dc143c" />
<path d="M-142,250 L-142,242.5" stroke="#dc143c" />
<path d="M-113,250 L-113,242.5" stroke="#dc143c" />
<path d="M-109,250 L-109,242.5" stroke="#dc143c" />
<path d="M-101,250 L-101,242.5" stroke="#dc143c" />
<path d="M-94,250 L-94,242.5" stroke="#dc143c" />
<rect x="-200" y="250" width="194" height="25" fill="white" stroke="black" />
<rect x="-200" y="250" width="22.0" height="25" fill="#dc143c" stroke="black" />
<rect x="-176.0" y="250" width="105.0" height="25" fill="#ffd700" stroke="black" />
<rect x="-36.0" y="250" width="22.0" height="25" fill="#1e90ff" stroke="black" />
<text x="-290" y="320" font-size="25" fill="black">RL11B3</text>
<path d="M-56,332.5 L-56,300" stroke="#1e90ff" />
<path d="M-55,332.5 L-55,300" stroke="#1e90ff" />
<path d="M-54,332.5 L-54,300" stroke="#1e90ff" />
<path d="M-53,332.5 L-53,300" stroke="#1e90ff" />
<path d="M-45,332.5 L-45,300" stroke="#1e90ff" />
<path d="M-156,300 L-156,292.5" stroke="#dc143c" />
<path d="M-109,300 L-109,292.5" stroke="#dc143c" />
<path d="M-105,300 L-105,292.5" stroke="#dc143c" />
<path d="M-97,300 L-97,292.5" stroke="#dc143c" />
<path d="M-79,300 L-79,292.5" stroke="#dc143c" />
<rect x="-200" y="300" width="194" height="25" fill="white" stroke="black" />
<rect x="-200" y="300" width="26.0" height="25" fill="#dc143c" stroke="black" />
<rect x="-177.0" y="300" width="110.0" height="25" fill="#ffd700" stroke="black" />
<rect x="-36.0" y="300" width="22.0" height="25" fill="#1e90ff" stroke="black" />
<text x="-290" y="370" font-size="25" fill="black">RL11B2</text>
<path d="M-51,382.5 L-51,350" stroke="#1e90ff" />
<path d="M-45,382.5 L-45,350" stroke="#1e90ff" />
<path d="M-43,382.5 L-43,350" stroke="#1e90ff" />
<path d="M-42,382.5 L-42,350" stroke="#1e90ff" />
<path d="M-41,382.5 L-41,350" stroke="#1e90ff" />
<path d="M-38,382.5 L-38,350" stroke="#1e90ff" />
<path d="M-37,382.5 L-37,350" stroke="#1e90ff" />
<path d="M-35,382.5 L-35,350" stroke="#1e90ff" />
<path d="M-33,382.5 L-33,350" stroke="#1e90ff" />
<path d="M-32,382.5 L-32,350" stroke="#1e90ff" />
<path d="M-29,382.5 L-29,350" stroke="#1e90ff" />
<path d="M-23,382.5 L-23,350" stroke="#1e90ff" />
<path d="M-15,382.5 L-15,350" stroke="#1e90ff" />
<path d="M-163,350 L-163,342.5" stroke="#dc143c" />
<path d="M-97,350 L-97,342.5" stroke="#dc143c" />
<rect x="-200" y="350" width="222" height="25" fill="white" stroke="black" />
<rect x="-200" y="350" width="23.0" height="25" fill="#dc143c" stroke="black" />
<rect x="-173.0" y="350" width="113.0" height="25" fill="#ffd700" stroke="black" />
<rect x="-6.0" y="350" width="22.0" height="25" fill="#1e90ff" stroke="black" />
<text x="-290" y="420" font-size="25" fill="black">RL11B1</text>
<path d="M-45,432.5 L-45,400" stroke="#1e90ff" />
<path d="M-42,432.5 L-42,400" stroke="#1e90ff" />
<path d="M-39,432.5 L-39,400" stroke="#1e90ff" />
<path d="M-38,432.5 L-38,400" stroke="#1e90ff" />
<path d="M-35,432.5 L-35,400" stroke="#1e90ff" />
<path d="M-34,432.5 L-34,400" stroke="#1e90ff" />
<path d="M-33,432.5 L-33,400" stroke="#1e90ff" />
<path d="M-31,432.5 L-31,400" stroke="#1e90ff" />
<path d="M-21,432.5 L-21,400" stroke="#1e90ff" />
<path d="M-18,432.5 L-18,400" stroke="#1e90ff" />
<path d="M-17,432.5 L-17,400" stroke="#1e90ff" />
<path d="M-10,432.5 L-10,400" stroke="#1e90ff" />
<path d="M-154,400 L-154,392.5" stroke="#dc143c" />
<path d="M-83,400 L-83,392.5" stroke="#dc143c" />
<path d="M-55,400 L-55,392.5" stroke="#dc143c" />
<path d="M-12,400 L-12,392.5" stroke="#dc143c" />
<rect x="-200" y="400" width="238" height="25" fill="white" stroke="black" />
<rect x="-200" y="400" width="34.0" height="25" fill="#dc143c" stroke="black" />
<rect x="-164.0" y="400" width="110.0" height="25" fill="#ffd700" stroke="black" />
<rect x="8.0" y="400" width="22.0" height="25" fill="#1e90ff" stroke="black" />
<text x="-290" y="470" font-size="25" fill="black">RL11A</text>
<path d="M-176,482.5 L-176,450" stroke="#1e90ff" />
<path d="M-174,482.5 L-174,450" stroke="#1e90ff" />
<path d="M-166,482.5 L-166,450" stroke="#1e90ff" />
<path d="M-52,482.5 L-52,450" stroke="#1e90ff" />
<path d="M-46,482.5 L-46,450" stroke="#1e90ff" />
<path d="M-168,450 L-168,442.5" stroke="#dc143c" />
<path d="M-157,450 L-157,442.5" stroke="#dc143c" />
<path d="M-138,450 L-138,442.5" stroke="#dc143c" />
<path d="M-103,450 L-103,442.5" stroke="#dc143c" />
<path d="M-72,450 L-72,442.5" stroke="#dc143c" />
<rect x="-200" y="450" width="250" height="25" fill="white" stroke="black" />
<rect x="-200" y="450" width="21.0" height="25" fill="#dc143c" stroke="black" />
<rect x="-173.0" y="450" width="104.0" height="25" fill="#ffd700" stroke="black" />
<rect x="-28.0" y="450" width="22.0" height="25" fill="#1e90ff" stroke="black" />
</svg>